<?xml version="1.0" encoding="utf-8"?>
<!-- Generator: Adobe Illustrator 26.2.1, SVG Export Plug-In . SVG Version: 6.00 Build 0)  -->
<svg version="1.1" id="Layer_1" xmlns="http://www.w3.org/2000/svg" xmlns:xlink="http://www.w3.org/1999/xlink" x="0px" y="0px"
	 viewBox="0 0 300 300" style="enable-background:new 0 0 300 300;" xml:space="preserve">
<style type="text/css">
	.st0{fill:#FFFFFF;}
</style>
<g>
	<path class="st0" d="M50.7,206.2c0.2,2.8,1.8,4.1,4.2,4.3c1.2,0.1,2.3,0.1,3.5,0.1c63.6,0,127.3,0,190.9,0c1,0,2,0,3,0
		c2.7-0.2,4.4-1.4,4.6-4.7c-0.9-1-2-2.2-3.3-3.6c0.9-10.6,1.9-21.3,2.8-32.1c1.1-13.6,1.2-27.2-1.2-40.8
		c-4.3-24.8-17.7-42.6-40.4-53.4c-12.7-6.1-26.2-9.3-40.3-10.7c-17.9-1.8-35.5-0.6-52.9,4.2c-27.4,7.7-47.3,24.2-58.9,50.5
		c-7.6,17.1-11.6,35-11.8,53.7c-0.1,9.6,0.8,19.2,1.4,29.8C52.1,203.7,51.4,205,50.7,206.2z"/>
	<path d="M50.7,206.2c0.7-1.2,1.4-2.5,1.5-2.8c-0.5-10.6-1.5-20.2-1.4-29.8c0.2-18.7,4.2-36.6,11.8-53.7
		c11.7-26.2,31.5-42.7,58.9-50.5c17.3-4.9,35-6.1,52.9-4.2c14,1.4,27.5,4.7,40.3,10.7c22.7,10.8,36.1,28.7,40.4,53.4
		c2.4,13.6,2.3,27.2,1.2,40.8c-0.9,10.8-1.9,21.5-2.8,32.1c1.3,1.4,2.4,2.6,3.3,3.6c-0.2,3.3-1.9,4.5-4.6,4.7c-1,0.1-2,0-3,0
		c-63.6,0-127.3,0-190.9,0c-1.2,0-2.3,0.1-3.5-0.1C52.5,210.3,51,209,50.7,206.2z M244.3,203c0.2-1.2,0.4-2.1,0.5-3.1
		c0.8-7.4,1.5-14.9,2.3-22.3c1.6-14.9,2.2-29.9-0.3-44.8c-4.2-24.3-16.4-42.7-39.8-52.3c-28.8-11.8-58.2-13-87.8-3.3
		c-21.3,7-36.8,20.7-46.6,41c-11.2,23.1-14.4,47.6-12.4,72.9c0.3,3.9,1.2,7.8,1.8,11.9C123,203,183.5,203,244.3,203z"/>
	<path class="st0" d="M244.3,203c-60.8,0-121.3,0-182.2,0c-0.6-4-1.5-7.9-1.8-11.9c-2-25.3,1.2-49.7,12.4-72.9
		c9.8-20.3,25.3-34,46.6-41c29.6-9.8,59-8.5,87.8,3.3c23.4,9.6,35.6,27.9,39.8,52.3c2.6,14.9,1.9,29.8,0.3,44.8
		c-0.8,7.4-1.5,14.9-2.3,22.3C244.7,200.9,244.5,201.8,244.3,203z M117.1,180.2c1.7,0.2,2.8,0.5,3.9,0.4c5.8-0.3,11.6-0.8,17.4-0.9
		c15.7-0.4,31.3-0.6,47-0.9c2.6,0,5-0.2,6.9-3.4c-0.9-9.7-4.2-18.8-11.3-26.4c-3.7-4-8.3-6.5-13.7-7.8c-15.6-3.7-36.1,4.3-44.9,17.6
		C118.3,165.1,116.1,172,117.1,180.2z M116.1,134.5c0-5.3-4.4-9.8-9.8-10c-5.4-0.1-10.3,4.8-10.2,10.2c0.1,5.2,5,9.9,10.1,9.7
		C111.5,144.3,116.1,139.7,116.1,134.5z M192.7,134.6c0,5.4,4.6,9.9,9.8,9.9c5.3-0.1,9.7-4.7,9.6-10.1c-0.1-5.4-4.6-9.9-9.9-9.8
		C196.9,124.6,192.7,129.1,192.7,134.6z"/>
	<path d="M117.1,180.2c-0.9-8.2,1.3-15,5.4-21.3c8.8-13.3,29.3-21.3,44.9-17.6c5.3,1.3,10,3.8,13.7,7.8c7.1,7.6,10.4,16.7,11.3,26.4
		c-1.9,3.1-4.3,3.3-6.9,3.4c-15.7,0.3-31.3,0.5-47,0.9c-5.8,0.1-11.6,0.6-17.4,0.9C119.9,180.6,118.8,180.4,117.1,180.2z
		 M164.1,175.3c-0.2-10.1-0.7-19.8-2.4-29.7c-1.5,0.2-2.6,0.4-4.2,0.7c1,9.8,1.9,19.4,2.8,29C161.7,175.3,162.6,175.3,164.1,175.3z
		 M146.3,147.6c-0.4,8.4,1.2,21.9,3.2,27.9c1-0.1,2-0.2,3.1-0.3c-1-9.7-2-19-3-28.7C148.2,146.9,147.3,147.2,146.3,147.6z
		 M175.7,175.2c-0.7-8.1-1.4-15.7-2.1-23.7c-0.9-0.6-2.1-1.4-3.8-2.5c0.3,9.3,1,17.8,2.5,26.3C173.7,175.2,174.5,175.2,175.7,175.2z
		 M135.5,153.3c0.5,7.4,0.9,14.7,1.4,22.4c1.7-0.3,2.7-0.4,3.7-0.6c-0.8-8.1-1.6-15.9-2.4-24C137.3,151.9,136.5,152.5,135.5,153.3z
		 M124.4,176.1c1.8,0,3.4,0,5.2,0c-0.4-4.7-0.7-9-1.1-14C125.6,166.7,124.5,171.1,124.4,176.1z M183.6,169.4
		c-0.6,3.4-0.6,3.4,1.2,5.6C184.4,173.1,184,171.2,183.6,169.4z"/>
	<path d="M116.1,134.5c0,5.2-4.5,9.8-9.8,10c-5.1,0.1-10-4.5-10.1-9.7c-0.1-5.4,4.8-10.3,10.2-10.2
		C111.7,124.6,116.1,129.1,116.1,134.5z M109.1,128.1c-2,0-4,0-6.9,0C105.1,131,107.2,130.6,109.1,128.1z"/>
	<path d="M192.7,134.6c0-5.5,4.2-10,9.6-10.1c5.3-0.1,9.8,4.4,9.9,9.8c0.1,5.4-4.3,10-9.6,10.1C197.3,144.5,192.8,140,192.7,134.6z
		 M199.5,127.9c3.3,3,3.3,3,6.3,0C203.4,127.9,201.5,127.9,199.5,127.9z"/>
	<path class="st0" d="M164.1,175.3c-1.4,0-2.4,0-3.9,0c-0.9-9.6-1.9-19.2-2.8-29c1.7-0.3,2.7-0.4,4.2-0.7
		C163.3,155.5,163.9,165.2,164.1,175.3z"/>
	<path class="st0" d="M146.3,147.6c1-0.3,1.9-0.6,3.3-1.1c1,9.7,2,19,3,28.7c-1,0.1-2.1,0.2-3.1,0.3
		C147.4,169.5,145.8,156,146.3,147.6z"/>
	<path class="st0" d="M175.7,175.2c-1.3,0-2,0-3.4,0c-1.6-8.4-2.3-16.9-2.5-26.3c1.7,1.1,2.9,1.9,3.8,2.5
		C174.3,159.4,175,167.1,175.7,175.2z"/>
	<path class="st0" d="M135.5,153.3c1-0.8,1.7-1.4,2.7-2.2c0.8,8.2,1.6,15.9,2.4,24c-1,0.2-2,0.3-3.7,0.6
		C136.5,168,136,160.7,135.5,153.3z"/>
	<path class="st0" d="M124.4,176.1c0.2-5,1.3-9.4,4.2-14c0.4,5,0.7,9.4,1.1,14C127.8,176.1,126.2,176.1,124.4,176.1z"/>
	<path class="st0" d="M183.6,169.4c0.4,1.9,0.8,3.7,1.2,5.6C183.1,172.8,183.1,172.8,183.6,169.4z"/>
	<path class="st0" d="M109.1,128.1c-1.9,2.5-4,2.9-6.9,0C105.1,128.1,107.1,128.1,109.1,128.1z"/>
	<path class="st0" d="M199.5,127.9c2,0,3.9,0,6.3,0C202.8,130.9,202.8,130.9,199.5,127.9z"/>
</g>
<g>
</g>
<g>
</g>
<g>
</g>
<g>
</g>
<g>
</g>
<g>
</g>
</svg>
