<?xml version="1.0" encoding="utf-8"?>
<!-- Generator: Adobe Illustrator 26.2.1, SVG Export Plug-In . SVG Version: 6.00 Build 0)  -->
<svg version="1.1" id="Layer_1" xmlns="http://www.w3.org/2000/svg" xmlns:xlink="http://www.w3.org/1999/xlink" x="0px" y="0px"
	 viewBox="0 0 300 300" style="enable-background:new 0 0 300 300;" xml:space="preserve">
<style type="text/css">
	.st0{fill:#FFFFFF;}
</style>
<g>
	<g>
		<path class="st0" d="M150.7,220.1c30.4,0,60.9,0,91.3,0c1.5,0,3.1,0.2,4.5-0.1c3.1-0.8,3.6-2.6,2.2-5.5c-0.9-1.9-1.8-4.2-1.7-6.3
			c0.7-18.5,2.9-37,2.1-55.4c-1.2-28.9-14.9-50.5-42.2-62.3c-22.5-9.7-45.9-12-69.9-8.6c-31.2,4.4-56.5,18.1-71.1,47.7
			c-12.1,24.6-15.4,50.6-12.1,77.7c0.2,2,0.7,4.2,0.3,6.1c-1.6,6.4-1.5,6.7,5.4,6.7C89.8,220.1,120.3,220.1,150.7,220.1z"/>
		<path d="M150.7,220.1c-30.4,0-60.9,0-91.3,0c-6.9,0-7-0.3-5.4-6.7c0.5-1.9,0-4.1-0.3-6.1c-3.2-27,0-53,12.1-77.7
			C80.4,100,105.7,86.3,137,81.9c24-3.4,47.4-1.1,69.9,8.6c27.3,11.8,41,33.5,42.2,62.3c0.8,18.4-1.4,36.9-2.1,55.4
			c-0.1,2.1,0.8,4.4,1.7,6.3c1.4,2.9,0.9,4.7-2.2,5.5c-1.4,0.4-3,0.1-4.5,0.1C211.6,220.1,181.1,220.1,150.7,220.1z M238.1,213.1
			c2.7-20.8,5.3-41.4,2.9-62.2c-3.4-29.5-19-49.4-47.7-58.4c-22.7-7.1-45.6-7.9-68.7-2c-26,6.7-44.5,22.2-53.9,47.2
			c-4.4,11.5-7.4,23.8-9.2,36c-1.9,13-1.3,26.3,1.5,39.4C121.5,213.1,179.6,213.1,238.1,213.1z"/>
		<path class="st0" d="M238.1,213.1c-58.5,0-116.6,0-175.1,0c-2.9-13.1-3.4-26.4-1.5-39.4c1.8-12.2,4.8-24.5,9.2-36
			c9.5-25,27.9-40.6,53.9-47.2c23.1-5.9,46-5,68.7,2c28.7,9,44.3,28.9,47.7,58.4C243.4,171.7,240.8,192.4,238.1,213.1z M109,167.7
			c0.6-0.3,2.7-1.2,4.2-2.7c2.9-2.7,5.4-5.7,8.1-8.5c2.1-2.2,4.7-3.9,6.3-6.4c3.4-5,0.3-10.7-5.7-10.7c-2.4,0-4.7,1.2-7.1,1.6
			c-1.8,0.3-3.8,0.7-5.3,0.1c-5.4-2.2-9.7-1.4-12.5,2.7c-3.1,4.6-0.1,7.6,2.5,11C102.5,158.6,105.3,162.7,109,167.7z M186.9,168
			c0.8-0.5,2.8-1.3,4.3-2.7c2.8-2.7,5.3-5.8,8-8.6c2-2,4.8-3.5,5.9-5.9c1.1-2.4,1.5-6,0.5-8.3c-0.7-1.7-4.3-3-6.5-2.9
			c-3,0.1-6,1.6-9.5,2.7c-7-3.7-11-3.5-14.4,1.3c-4.3,6.1,1.2,9.1,4.1,12.9C181.7,159.8,183.8,163.3,186.9,168z M162.8,170.7
			c-4.1-0.5-4.9,1.7-5.6,4.9c-1.2,5.4-5.7,6.5-9.6,2.4c-1.1-1.2-1.5-3.1-2.6-4.2c-1.1-1.1-2.8-1.5-4.2-2.2c-0.4,1.6-1.6,3.3-1.2,4.7
			c1.7,5.6,8.6,8.9,14.8,7.4C160.2,182.2,163.4,177.5,162.8,170.7z"/>
		<path d="M109,167.7c-3.7-5-6.4-9.1-9.5-12.9c-2.7-3.3-5.6-6.4-2.5-11c2.9-4.2,7.1-4.9,12.5-2.7c1.5,0.6,3.6,0.2,5.3-0.1
			c2.4-0.4,4.7-1.6,7.1-1.6c6,0,9.1,5.7,5.7,10.7c-1.6,2.4-4.2,4.2-6.3,6.4c-2.7,2.8-5.2,5.8-8.1,8.5
			C111.6,166.5,109.5,167.4,109,167.7z M111.7,158.6c3-2.3,6.1-3.9,8.1-6.5c1.4-1.8,1-4.9,1.4-7.5c-2,1-4.4,1.7-5.9,3.2
			c-3.3,3.5-5.2,3.5-7.9-0.7c-0.8-1.2-2.1-2.2-3.1-3.3c-0.5,0.4-1,0.8-1.5,1.2C101.8,151.6,108.7,153.6,111.7,158.6z"/>
		<path d="M186.9,168c-3.1-4.7-5.2-8.2-7.6-11.4c-2.9-3.9-8.4-6.9-4.1-12.9c3.4-4.8,7.3-5,14.4-1.3c3.5-1.1,6.5-2.6,9.5-2.7
			c2.3-0.1,5.8,1.3,6.5,2.9c1,2.3,0.6,5.9-0.5,8.3c-1.1,2.4-4,3.9-5.9,5.9c-2.7,2.8-5.2,5.9-8,8.6
			C189.7,166.7,187.7,167.5,186.9,168z M189.6,158.6c2.9-2.1,5.4-3.7,7.7-5.6c2.7-2.3,4.1-5.2,1.5-8.3c-0.3-0.3-4.2,1.7-5.7,3.3
			c-3.2,3.4-5.2,3.4-7.6-0.5c-0.8-1.3-2-2.4-3-3.7c-0.6,0.4-1.3,0.8-1.9,1.2C179.9,151.6,186.8,153.7,189.6,158.6z"/>
		<path d="M162.8,170.7c0.6,6.8-2.6,11.5-8.5,12.9c-6.1,1.5-13.1-1.8-14.8-7.4c-0.4-1.3,0.7-3.1,1.2-4.7c1.4,0.7,3.1,1.2,4.2,2.2
			c1.2,1.1,1.5,3,2.6,4.2c3.9,4.1,8.3,3.1,9.6-2.4C157.9,172.4,158.7,170.2,162.8,170.7z"/>
		<path class="st0" d="M111.7,158.6c-3-5-9.9-6.9-9-13.6c0.5-0.4,1-0.8,1.5-1.2c1,1.1,2.3,2.1,3.1,3.3c2.7,4.2,4.6,4.2,7.9,0.7
			c1.5-1.6,3.9-2.2,5.9-3.2c-0.4,2.5,0,5.6-1.4,7.5C117.8,154.7,114.6,156.3,111.7,158.6z"/>
		<path class="st0" d="M189.6,158.6c-2.8-4.9-9.7-7-9-13.5c0.6-0.4,1.3-0.8,1.9-1.2c1,1.2,2.2,2.3,3,3.7c2.4,3.8,4.4,3.8,7.6,0.5
			c1.5-1.6,5.4-3.6,5.7-3.3c2.5,3.1,1.1,6-1.5,8.3C195.1,154.9,192.5,156.5,189.6,158.6z"/>
	</g>
</g>
</svg>
