<?xml version="1.0" encoding="utf-8"?>
<!-- Generator: Adobe Illustrator 26.2.1, SVG Export Plug-In . SVG Version: 6.00 Build 0)  -->
<svg version="1.1" id="Layer_1" xmlns="http://www.w3.org/2000/svg" xmlns:xlink="http://www.w3.org/1999/xlink" x="0px" y="0px"
	 viewBox="0 0 300 300" style="enable-background:new 0 0 300 300;" xml:space="preserve">
<style type="text/css">
	.st0{fill:#020202;}
	.st1{fill:#CBCBCB;}
	.st2{fill:#C6C6C6;}
	.st3{fill:#D2D2D2;}
	.st4{fill:#CCCCCC;}
	.st5{fill:#DEDEDE;}
	.st6{fill:#C1C1C1;}
	.st7{fill:#F3F3F3;}
	.st8{fill:#D0D0D0;}
	.st9{fill:#C8C8C8;}
	.st10{fill:#F0F0F0;}
	.st11{fill:#DADADA;}
</style>
<path class="st0" d="M70.6,179.4c1.5-10.5,2.8-21,4.5-31.4c3.7-23.4,9-46.4,15.3-69.3c3.5-12.6,4.7-26,6-39.2
	c0.9-8.8,1.5-10.6,10.1-10.1c10.1,0.7,20.1,1.9,30.1,3.4c23.4,3.4,46.7,3.9,69.9-0.6c5.7-1.9,11.4-3.9,17.1-5.8
	c5.7-1,7.5,2.6,7.9,7.2c1,11.8-0.1,23.6-6.1,33.8c-7.4,12.6-10,26.6-13.7,40.3c-2.9,10.4-5.1,20.9-7.5,31.4
	c-4.6,20.3-9.4,40.6-13.7,60.9c-2.8,13.3-4.9,26.7-6.9,40.1c-1.2,7.6-2.8,15.4,1.5,22.9c0.4,0.7-0.9,2.3-1.5,3.5c-1.3-1-2.6-2-3.9-3
	c-0.4-4.4-1.6-8.9-1.1-13.2c1-9.9,2.9-19.6,4.4-29.4c1.3-8.2,1.8-16.6,3.9-24.5c5.5-20.8,10.9-41.5,13.9-62.9
	c0.3-0.4,0.6-0.8,0.7-1.3c5.4-19.9,10.8-39.8,16.3-59.7c7.7-12.6,11.8-26,8.8-41.2c-8.3,2.3-16.1,4.3-23.8,6.4c-2,0.3-4,0.6-6.1,0.9
	c-2.7,0.2-5.5,0.5-8.2,0.7c-22.7,2.3-45-0.7-67.4-4.7c-6.1-1.1-12.5-1-18.5-1.4c-0.5,1.3-0.8,1.7-0.8,2.2
	c-1.2,17.6-3.6,34.9-9.3,51.7c-1.9,5.5-3.6,11.1-4.7,16.7c-3.4,17.9-6.4,35.9-9.6,53.8c-1.1,6.1-2.5,12.1-3.7,18.4
	c3.3-0.6,5.8-0.9,8.1-1.7c3.3-1,5.4,0.1,7,2.9c5.3,9.2,11.3,18.1,16,27.6c4.8,9.7,13.9,15.8,19.3,25.1c3.1,5.4,8.4,10,13.7,13.6
	c12.3,8.4,24.5,17.1,39.2,20.9c-0.3,1-0.7,2.1-1,3.1c-2.5-0.4-5.1-0.2-7.3-1.2c-5.1-2.3-10.1-4.9-15-7.7
	c-6.3-3.6-12.4-7.5-18.6-11.3c-10.4-10-20.7-20.1-31.1-30.1c-6.3-7-12.6-13.9-18.9-20.9C80.7,190.7,75.7,185.1,70.6,179.4z
	 M76.3,179.9c7.2,7.6,14.4,15.1,21.6,22.7c0.4-0.3,0.8-0.6,1.2-0.9c-3.3-5.4-7.2-10.6-9.9-16.3C86.3,179.3,82.5,177.5,76.3,179.9z"
	/>
<path class="st1" d="M135.8,247.4c6.2,3.8,12.3,7.7,18.6,11.3c4.9,2.8,9.8,5.4,15,7.7c2.2,1,4.9,0.8,7.3,1.2c0.6,4-3.1,3.6-5,5
	c-7.1,0.6-13.7,0.9-20.1-4.1c-7.1-5.6-15.4-9.6-22.7-14.9c-3.8-2.7-6.8-6.6-10.2-10c2.9,1.1,6.2,1.7,8.6,3.4
	C130.2,248.9,132.8,249.4,135.8,247.4z"/>
<path class="st2" d="M135.8,247.4c-3,2-5.5,1.5-8.5-0.6c-2.5-1.7-5.7-2.3-8.6-3.4c-3.1-2.3-6.2-4.7-9.3-7c-3-2.3-6-4.6-8.9-7
	c-4.9-4-9.8-8.1-14.7-12.2c-0.7-0.6-0.8-1.8-1.2-2.7c3.2,2.3,6.2,4.9,9.6,6.8c2.3,1.3,5.2,2.8,7.4,2.3c1.5-0.3,2.1-4.1,3.2-6.3
	C115,227.3,125.4,237.3,135.8,247.4z"/>
<path class="st3" d="M104.7,217.3c-1,2.2-1.7,6-3.2,6.3c-2.2,0.5-5.2-1-7.4-2.3c-3.4-2-6.4-4.5-9.6-6.8c-1.3-1.3-2.6-2.6-3.9-3.9
	c-3-3.9-4.2-8.5-2.2-12.8c0.6-1.3,4.8-0.9,7.3-1.3C92.1,203.3,98.4,210.3,104.7,217.3z"/>
<path class="st4" d="M85.8,196.4c-2.5,0.4-6.7,0-7.3,1.3c-2,4.3-0.8,8.9,2.2,12.8c-4.6-0.5-7.4-2.7-8.2-7.7
	c-0.6-3.7-2.5-7.1-3.5-10.8c-1.1-4.3-1.9-8.8,1.7-12.6C75.7,185.1,80.7,190.7,85.8,196.4z"/>
<path class="st5" d="M171.6,272.5c2-1.3,5.7-1,5-5c0.3-1,0.7-2.1,1-3.1c0.7-0.3,1.3-0.7,2-1c1.3,1,2.6,2,3.9,3
	c2.1,2.9,1.2,5.7-1.4,7.1C178.8,275.5,174.8,276.1,171.6,272.5z"/>
<path class="st6" d="M223.7,26.4c-5.7,1.9-11.4,3.9-17.1,5.8C211.5,28,216.7,24.5,223.7,26.4z"/>
<path class="st7" d="M179.7,263.4c-0.7,0.3-1.3,0.7-2,1c-14.7-3.8-27-12.5-39.2-20.9c-5.3-3.6-10.6-8.2-13.7-13.6
	c-5.3-9.3-14.5-15.4-19.3-25.1c-4.7-9.5-10.6-18.4-16-27.6c-1.7-2.8-3.7-3.9-7-2.9c-2.4,0.7-4.9,1-8.1,1.7
	c1.3-6.3,2.6-12.3,3.7-18.4c3.2-17.9,6.3-35.9,9.6-53.8c1.1-5.7,2.8-11.3,4.7-16.7c5.7-16.8,8.1-34.1,9.3-51.7
	c0-0.5,0.3-0.9,0.8-2.2c6.1,0.4,12.4,0.3,18.5,1.4c22.3,4,44.6,7,67.4,4.7c1.4,1.2,2.9,2.4,4.3,3.6c2,1.6,4,3,6,4.6
	c6.3,2.5,9.9,7,10.1,13.9c0,0.6,0,1.3-0.1,1.9c-3.9,7.3-6.5,14.8-4.6,23.5c0.8,3.4-0.3,7.4-1.2,10.9c-2.6,10.2-5.8,20.3-4.4,31.1
	c0.2,1.6,1.5,3.2,2.3,4.7c-2.9,21.3-8.3,42.1-13.9,62.9c-2.1,8-2.7,16.3-3.9,24.5c-1.5,9.8-3.3,19.6-4.4,29.4
	C178.1,254.5,179.2,259,179.7,263.4z"/>
<path class="st8" d="M208.6,63.3c0-0.6,0-1.3,0.1-1.9c2.7-4.2,2.7-8.2,0-12.5c-2.3-3.6-4-7.5-6-11.2c7.7-2.1,15.5-4.2,23.8-6.4
	c3,15.3-1,28.6-8.8,41.2c-7.6,2.3-8.7,1.4-9.1-6.7C208.6,64.9,208.6,64.1,208.6,63.3z"/>
<path class="st9" d="M208.6,63.3c0,0.8,0,1.7,0,2.5c0.3,8.1,1.5,9,9.1,6.7c-5.4,19.9-10.8,39.8-16.3,59.7c-0.1,0.5-0.5,0.8-0.7,1.3
	c-0.8-1.6-2.1-3.1-2.3-4.7c-1.4-10.7,1.8-20.9,4.4-31.1c0.9-3.5,1.9-7.5,1.2-10.9C202.1,78,204.7,70.6,208.6,63.3z"/>
<path class="st10" d="M76.3,179.9c6.2-2.4,10-0.6,12.9,5.4c2.7,5.7,6.5,10.9,9.9,16.3c-0.4,0.3-0.8,0.6-1.2,0.9
	C90.7,195,83.5,187.5,76.3,179.9z"/>
<path class="st9" d="M202.6,37.6c2,3.8,3.7,7.7,6,11.2c2.7,4.3,2.7,8.3,0,12.5c-0.2-6.9-3.7-11.4-10.1-13.9c-0.7-3-1.3-5.9-2-8.9
	C198.6,38.2,200.6,37.9,202.6,37.6z"/>
<path class="st11" d="M196.6,38.5c0.7,3,1.3,5.9,2,8.9c-2-1.5-4-3-6-4.6c-1.5-1.2-2.9-2.4-4.3-3.6C191.1,39,193.8,38.8,196.6,38.5z"
	/>
<g>
</g>
<g>
</g>
<g>
</g>
<g>
</g>
<g>
</g>
<g>
</g>
</svg>
