<?xml version="1.0" encoding="utf-8"?>
<!-- Generator: Adobe Illustrator 26.2.1, SVG Export Plug-In . SVG Version: 6.00 Build 0)  -->
<svg version="1.1" id="Layer_1" xmlns="http://www.w3.org/2000/svg" xmlns:xlink="http://www.w3.org/1999/xlink" x="0px" y="0px"
	 viewBox="0 0 300 300" style="enable-background:new 0 0 300 300;" xml:space="preserve">
<style type="text/css">
	.st0{fill:#FFFFFF;}
</style>
<g>
	<g>
		<path class="st0" d="M154,222c30.7,0,61.4,0,92.1,0c1.6,0,3.3,0.2,4.8-0.3c2.8-1,3.6-2.8,1.7-5.6c-1-1.4-1.8-3.4-1.7-5.1
			c1.5-20.3,4.5-40.5,2.1-61c-3.1-25.8-14.9-45.6-38.8-56.9c-27.6-13-56.5-14.8-86-7.9c-24.9,5.8-44.8,18.7-57.3,41.7
			C58.3,150.1,54,175,55.7,201.3c0.4,5.5,3.5,11.2-0.2,16.8c-0.3,0.5,1.5,3,2.8,3.7s3.1,0.3,4.7,0.3C93.2,222,123.6,222,154,222z"/>
		<path d="M154,222c-30.4,0-60.7,0-91.1,0c-1.6,0-3.5,0.4-4.7-0.3c-1.3-0.7-3.1-3.2-2.8-3.7c3.7-5.6,0.6-11.3,0.2-16.8
			c-1.7-26.2,2.6-51.1,15.2-74.4c12.5-23,32.4-35.9,57.3-41.7c29.5-6.9,58.4-5.1,86,7.9c23.9,11.3,35.7,31.1,38.8,56.9
			c2.4,20.5-0.6,40.7-2.1,61c-0.1,1.7,0.7,3.7,1.7,5.1c1.9,2.8,1.1,4.6-1.7,5.6c-1.4,0.5-3.2,0.3-4.8,0.3
			C215.4,222,184.7,222,154,222z M241.9,215.2c2.2-21.2,5.6-41.8,3.1-62.7c-3.3-28.5-17.5-48.8-45.3-58.3
			c-22.4-7.6-45.2-9.1-68.3-3.7c-25.2,5.8-44.5,19.3-55.7,43.2c-9,19.1-13,39.2-12.1,60.2c0.3,7.1,1.2,14.2,1.8,21.3
			C124.7,215.2,183,215.2,241.9,215.2z"/>
		<path class="st0" d="M241.9,215.2c-58.9,0-117.2,0-176.5,0c-0.6-7.1-1.5-14.2-1.8-21.3c-0.9-21,3.1-41.1,12.1-60.2
			c11.2-23.9,30.5-37.4,55.7-43.2c23.1-5.3,45.9-3.9,68.3,3.7c27.8,9.5,42,29.7,45.3,58.3C247.5,173.4,244.1,194,241.9,215.2z
			 M206.2,179.7c0.8-3.3,1-5.9,2.1-7.9c1.6-2.9,1.5-4.6-1.5-6.2c-3.2-1.7-2.8-3.7-0.4-6.1c2.7-2.8,5.1-5.9,8.2-9.6
			c-12.5,0-24.1-0.1-35.8,0.1c-1.2,0-2.3,1.5-3.5,2.3c0.1,0.4,0.3,0.8,0.4,1.2c2.2,0.1,4.4-0.1,6.5,0.4c2.2,0.5,4.2,1.7,6.2,2.6
			c-1,1.7-1.7,3.7-3.1,5c-2.5,2.4-2.7,4.3,0.5,6c3,1.6,3,3.4,1.3,6.2c-1.1,1.9-1,4.6-1.5,7.9c3.5-1,5.4-1.6,6.3-1.8
			c0.7-3.2,0.7-5.8,1.9-7.6c1.8-3,1.9-4.9-1.4-6.6c-2.9-1.5-2.8-3.5-0.5-5.7c1.4-1.3,2.4-2.9,3.8-4.3c0.8-0.7,2-1.8,2.8-1.6
			c1.6,0.4,3.7,1.3,4.2,2.5c0.4,1.1-0.8,3.4-2,4.3c-3.3,2.8-3.8,5,0.4,7.2c2.8,1.5,1.7,3.4,0.6,5.6c-1,2.1-1,4.6-1.7,8
			C203.4,180.5,205.2,180,206.2,179.7z M98.3,180.4c6.6,0.1,8.6-3,5.2-8.4c-1.9-3-1.7-4.8,1.5-6.5c2.9-1.6,2.6-3.6,0.4-5.7
			c-1.4-1.3-2.5-2.8-4.2-4.8c3.7,0,6.2,0,7.3,0c1.8,2.8,2.9,5,4.5,6.5c2.4,2.4,2.7,4.2-0.5,6c-2.3,1.3-3.3,2.7-1.8,5.5
			c1.2,2.3,1.8,5,2.7,7.6c5.8-0.4,7.7-3.3,4.6-8.5c-1.8-2.9-1.9-4.8,1.4-6.6c2.9-1.5,2.8-3.5,0.5-5.7c-1.4-1.3-2.6-2.9-4.2-4.7
			c12-0.9,12-0.9,13.8-4.1c-11.9,0-23.5-0.1-35.1,0.1c-1.2,0-2.3,1.4-4.5,2.8c2.9,0.6,4.4,0.9,5.9,1.3c-0.3,0.2-0.6,0.5-1,0.7
			c1.3,1.9,2.7,3.7,3.8,5.8c0.7,1.3,1.5,4.2,1.2,4.3c-5.6,2.8-4.2,6.4-1.6,10.5C98.9,177.3,98.3,179,98.3,180.4z M153.5,202.8
			c0,0.1,0,0.2,0,0.3c2.9-0.3,5.8-0.2,8.5-0.9c5.4-1.4,7.1-4.9,4.7-9.8c-1.7-3.4-3.8-6.7-6.2-9.6c-3.7-4.5-9.1-4.2-12.6,0.5
			c-1.9,2.6-3.3,5.5-4.7,8.3c-3.8,7.5-1.6,11,6.9,11.2C151.3,202.8,152.4,202.8,153.5,202.8z"/>
		<path d="M206.2,179.7c-1,0.3-2.9,0.8-6.3,1.8c0.7-3.3,0.7-5.9,1.7-8c1.1-2.3,2.2-4.1-0.6-5.6c-4.2-2.3-3.7-4.5-0.4-7.2
			c1.2-1,2.3-3.2,2-4.3c-0.4-1.2-2.6-2.1-4.2-2.5c-0.8-0.2-2,0.8-2.8,1.6c-1.4,1.3-2.4,3-3.8,4.3c-2.3,2.2-2.4,4.2,0.5,5.7
			c3.3,1.7,3.2,3.6,1.4,6.6c-1.1,1.8-1.1,4.4-1.9,7.6c-0.8,0.2-2.7,0.8-6.3,1.8c0.6-3.3,0.4-6,1.5-7.9c1.7-2.9,1.7-4.6-1.3-6.2
			c-3.2-1.7-3-3.6-0.5-6c1.4-1.3,2.1-3.3,3.1-5c-2.1-0.9-4.1-2.1-6.2-2.6c-2.1-0.5-4.3-0.3-6.5-0.4c-0.1-0.4-0.3-0.8-0.4-1.2
			c1.2-0.8,2.3-2.2,3.5-2.3c11.6-0.2,23.3-0.1,35.8-0.1c-3.1,3.7-5.5,6.8-8.2,9.6c-2.4,2.4-2.8,4.3,0.4,6.1c3,1.6,3.1,3.4,1.5,6.2
			C207.2,173.8,207.1,176.4,206.2,179.7z"/>
		<path d="M98.3,180.4c0-1.4,0.5-3.1-0.1-4.1c-2.6-4.1-4-7.6,1.6-10.5c0.3-0.1-0.5-2.9-1.2-4.3c-1.1-2-2.5-3.9-3.8-5.8
			c0.3-0.2,0.6-0.5,1-0.7c-1.5-0.3-3-0.6-5.9-1.3c2.1-1.4,3.3-2.8,4.5-2.8c11.6-0.2,23.2-0.1,35.1-0.1c-1.8,3.2-1.8,3.2-13.8,4.1
			c1.6,1.9,2.8,3.4,4.2,4.7c2.3,2.2,2.4,4.2-0.5,5.7c-3.3,1.7-3.2,3.6-1.4,6.6c3.2,5.2,1.2,8.1-4.6,8.5c-0.9-2.7-1.5-5.3-2.7-7.6
			c-1.5-2.7-0.5-4.2,1.8-5.5c3.2-1.8,2.9-3.6,0.5-6c-1.6-1.6-2.6-3.8-4.5-6.5c-1.1,0-3.6,0-7.3,0c1.7,2,2.8,3.5,4.2,4.8
			c2.3,2.1,2.6,4.2-0.4,5.7c-3.2,1.7-3.4,3.5-1.5,6.5C106.9,177.4,104.9,180.4,98.3,180.4z"/>
		<path d="M153.5,202.8c-1.1,0-2.2,0-3.4,0c-8.5-0.2-10.7-3.7-6.9-11.2c1.4-2.8,2.9-5.8,4.7-8.3c3.5-4.7,8.9-5,12.6-0.5
			c2.4,2.9,4.5,6.2,6.2,9.6c2.4,4.9,0.7,8.4-4.7,9.8c-2.7,0.7-5.7,0.6-8.5,0.9C153.5,203,153.5,202.9,153.5,202.8z M162.1,197.2
			c-3-4.6-5.3-8.2-8.1-12.6c-2.3,4.6-4.1,8.2-6.4,12.6C152.8,197.2,156.6,197.2,162.1,197.2z"/>
		<path class="st0" d="M162.1,197.2c-5.5,0-9.3,0-14.5,0c2.2-4.4,4.1-8.1,6.4-12.6C156.8,188.9,159.1,192.6,162.1,197.2z"/>
	</g>
</g>
</svg>
