<?xml version="1.0" encoding="utf-8"?>
<!-- Generator: Adobe Illustrator 26.2.1, SVG Export Plug-In . SVG Version: 6.00 Build 0)  -->
<svg version="1.1" id="Layer_1" xmlns="http://www.w3.org/2000/svg" xmlns:xlink="http://www.w3.org/1999/xlink" x="0px" y="0px"
	 viewBox="0 0 300 300" style="enable-background:new 0 0 300 300;" xml:space="preserve">
<style type="text/css">
	.st0{fill:#D2D2D2;}
	.st1{fill:#F3F3F3;}
	.st2{opacity:0.85;}
	.st3{fill:#CECECE;}
</style>
<path class="st0" d="M237.8,100.1c-0.2-2.9-0.8-5.8-1.5-8.6c0-0.2-0.1-0.4-0.3-0.8c-0.4,1.1-0.6,1.9-0.9,2.7
	c-0.9,2.5-1.8,4.9-2.7,7.4c-0.7,1.8-1.9,3.4-3.6,4.5c-1,0.7-2,1.3-3.1,1.8c-2.8,1.3-5.7,2.5-8.2,4.5h-0.1c0-0.1,0-0.2,0-0.3
	c0.7-4.8,1.1-9.6,1.2-14.4c0.1-3.1,0-6.2-0.1-9.2c-0.1-4.8-0.7-9.5-1.6-14.1c-1.4-6.9-3.6-13.6-7.4-19.6c-4.3-7-10.1-12.2-17.7-15.3
	c-8.3-3.4-17-4.5-25.9-3c-9,1.4-16.5,5.8-22.7,12.4c-4.9,5.2-8.5,11.2-11.4,17.6c-2.6,5.8-4.5,11.9-5.9,18.2
	c-0.8,3.4-1.5,6.8-1.1,10.4c0,0.1,0,0.2,0,0.2c-0.1,0.2-0.1,0.4-0.2,0.7c-0.2-0.3-0.3-0.4-0.4-0.6c-2.4-3.8-3.3-8-2.5-12.4
	c0.4-2,1.1-3.8,1.9-5.6c0.1-0.3,0.4-0.5,0.2-1c-0.9,0.5-1.7,0.9-2.6,1.4c-4.9,2.9-7.2,7.3-7.2,12.9c0,3.5,1.1,6.8,2.8,9.9
	c1.8,3.3,4,6.3,6.4,9.2c1,1.2,1.2,2.4,1,3.8c0,0.1,0,0.1,0,0.2c-0.6,3.1-1.2,6.3-1.8,9.4c-0.4,2-0.9,4-0.7,6
	c0.1,1.7,0.3,3.4,0.6,5.1c0.5,2.5,1.2,5,2.7,7.1c1.3,1.9,3.1,3.1,5.5,3c0.2,0,0.5,0,0.8-0.1c0,0.2,0,0.2,0,0.3c-1,4.6-2,9.2-3,13.8
	c-0.8,4-1.4,8.1-1.5,12.2c0,3.8,0.1,7.6,0.3,11.4c0.1,2,0.5,4,0.9,6c0.1,0.6,0.5,1.3,0.9,1.8c0.6,0.9,1.4,1.8,2.1,2.7
	c2.4,3.7,4.3,7.7,6.2,11.7c0.3,0.7,0.7,1.4,1,2.2c-0.6,1.6-1.2,3.3-1.9,4.9c-0.3,0.6-0.7,1.3-1.2,1.8c-1.5,1.4-3.1,2.6-4.8,3.7
	c-0.3,0-0.5,0-0.8-0.1c-1.2-0.3-2.2,0.1-3.1,0.7c-0.6,0.4-1.1,0.9-1.5,1.3c-1.3,1.4-2.5,2.7-4.1,3.8c-3.3,2.3-6.9,4.1-10.5,5.6
	c-5,2.1-10.2,3.8-15.3,5.5c-3.7,1.2-7.2,2.7-10.3,5c-2.4,1.8-4.2,4-4.8,7c-0.4,2-0.9,3.9-1.1,5.9c-0.4,3-0.8,6.1-1.1,9.2
	c-0.1,0.9-0.1,1.9-0.2,2.8l25.4-0.1l0,0l0,0l38.2,4.8c0,1.5,42.9-4.2,43.8-5.2h2.2c0.4,0.4,1,0.4,0.8,0l15.8-0.1
	c0.1,0.2,0.5,0.1,0.4,0c-2.3-3.5-4.5-7.1-6.9-10.6c-1.5-2.3-3.2-4.4-5.5-6c-4.6-3.3-9-6.8-13.5-10.1c-1.4-1.1-2.9-2.1-4.3-3.1
	c-0.1-2.1-0.2-4.1-0.3-6.2c0.2-0.3,0.5-0.7,0.8-1c3.7-4.6,6.9-9.5,9.5-14.9c3-6.1,5.6-12.3,8.1-18.6c0.2-0.6,0.6-1.2,1.1-1.7
	c1.5-1.8,3-3.5,4.4-5.2c1.9-2.3,3.2-4.9,3.6-7.9c0.2-1.2,0.4-2.3,0.7-3.5c0.4-1.6,1-3.1,1.3-4.7c0.7-3.3,0.9-6.6,0.9-10
	c0-0.3,0-0.6,0.1-0.9c0.5,0.1,1,0.2,1.4,0.3c0.5,0.1,1,0.1,1.5,0.1c6-0.2,10.8-2.7,14.4-7.4c1.8-2.3,2.4-4.9,1.9-7.8
	c-0.3-1.9-0.6-3.8-0.8-5.7s-0.3-3.8,0-5.7c0.5-3.5,1.9-6.7,3.5-9.8c1.1-2.1,2.6-3.9,4.5-5.4c0.7-0.6,1.5-1.2,2.3-1.7
	c2-1.4,3.5-3.1,4.4-5.4C237.8,106,238,103.1,237.8,100.1z"/>
<path class="st1" d="M180.8,260.4c14.7-0.7,20.7-4.1,20.6-4.2c-2.3-3.5-4.5-7.1-6.9-10.6c-1.5-2.3-3.2-4.4-5.5-6
	c-4.6-3.3-9-6.8-13.5-10.1c-1.4-1.1-2.9-2.1-4.3-3.1c-0.1-2.1-0.2-4.1-0.3-6.2c0.2-0.3,0.5-0.7,0.8-1c3.7-4.6,6.9-9.5,9.5-14.9
	c3-6.1,5.6-12.3,8.1-18.6c0.2-0.6,0.6-1.2,1.1-1.7c1.5-1.8,3-3.5,4.4-5.2c1.9-2.3,3.2-4.9,3.6-7.9c0.2-1.2,0.4-2.3,0.7-3.5
	c0.4-1.6,1-3.1,1.3-4.7c0.7-3.3,0.9-6.6,0.9-10c0-0.3,0-0.6,0.1-0.9c0.5,0.1,1,0.2,1.4,0.3c0.5,0.1,1,0.1,1.5,0.1
	c6-0.2,10.8-2.7,14.4-7.4c1.8-2.3,2.4-4.9,1.9-7.8c-0.3-1.9-0.6-3.8-0.8-5.7s-0.3-3.8,0-5.7c0.5-3.5,1.9-6.7,3.5-9.8
	c1.1-2.1,2.6-3.9,4.5-5.4c0.7-0.6,1.5-1.2,2.3-1.7c2-1.4,3.5-3.1,4.4-5.4c1.1-2.8,1.3-5.7,1.1-8.6s-0.8-5.8-1.5-8.6
	c0-0.2-0.1-0.4-0.3-0.8c-0.4,1.1-0.6,1.9-0.9,2.7c-0.9,2.5-1.8,4.9-2.7,7.4c-0.7,1.8-1.9,3.4-3.6,4.5c-1,0.7-2,1.3-3.1,1.8
	c-2.8,1.3-5.7,2.5-8.2,4.5h-0.1c0-0.1,0-0.2,0-0.3c0.7-4.8,1.1-9.6,1.2-14.4c0.1-3.1,0-6.2-0.1-9.2c-0.1-4.8-0.7-9.5-1.6-14.1
	c-1.4-6.9-3.6-13.6-7.4-19.6c-4.3-7-10.1-12.2-17.7-15.3c-8.3-3.4-17-4.5-25.9-3c-9,1.4-16.5,5.8-22.7,12.4
	c-4.9,5.2-8.5,11.2-11.4,17.6c-2.6,5.8-4.5,11.9-5.9,18.2c-0.8,3.4-1.5,6.8-1.1,10.4c0,0.1,0,0.2,0,0.2c-0.1,0.2-0.1,0.4-0.2,0.7
	c-0.2-0.3-0.3-0.4-0.4-0.6c-2.4-3.8-3.3-8-2.5-12.4c0.4-2,1.1-3.8,1.9-5.6c0.1-0.3,0.4-0.5,0.2-1c-0.9,0.5-1.7,0.9-2.6,1.4
	c-4.9,2.9-7.2,7.3-7.2,12.9c0,3.5,1.1,6.8,2.8,9.9c1.8,3.3,4,6.3,6.4,9.2c1,1.2,1.2,2.4,1,3.8c0,0.1,0,0.1,0,0.2
	c-0.6,3.1-1.2,6.3-1.8,9.4c-0.4,2-0.9,4-0.7,6c0.1,1.7,0.3,3.4,0.6,5.1c0.5,2.5,1.2,5,2.7,7.1c1.3,1.9,3.1,3.1,5.5,3
	c0.2,0,0.5,0,0.8-0.1c0,0.2,0,0.2,0,0.3c-1,4.6-2,9.2-3,13.8c-0.8,4-1.4,8.1-1.5,12.2c0,3.8,0.1,7.6,0.3,11.4c0.1,2,0.5,4,0.9,6
	c0.1,0.6,0.5,1.3,0.9,1.8c0.6,0.9,1.4,1.8,2.1,2.7c2.4,3.7,4.3,7.7,6.2,11.7c0.3,0.7,0.7,1.4,1,2.2c-0.6,1.6-1.2,3.3-1.9,4.9
	c-0.3,0.6-0.7,1.3-1.2,1.8c-1.5,1.4-3.1,2.6-4.8,3.7c-0.3,0-0.5,0-0.8-0.1c-1.2-0.3-7.2,4.7-8.7,5.8c-3.3,2.3-6.9,4.1-10.5,5.6
	c-5,2.1-10.2,3.8-15.3,5.5c-3.7,1.2-7.2,2.7-10.3,5c-2.4,1.8-4.2,4-4.8,7c-0.4,2-0.9,3.9-1.1,5.9c-0.4,3-0.8,6.1-1.1,9.2
	c-0.1,0.9-6.8,4.1-6.9,5L180.8,260.4z M111.4,235.9c-0.1-0.1-0.1-0.1-0.2-0.2c-0.2,0.1-0.4,0.3-0.6,0.4c-2.8,2.1-5.6,4.1-8.3,6.2
	c-1.1,0.9-2.3,1-3.5,0.5c-1.2-0.4-2.3-1.2-3.3-2c-0.2-0.2-0.5-0.4-0.8-0.6c0.1,0.4,0.3,0.6,0.5,0.9c1,1.4,2.1,2.7,3.1,4.1
	c0.7,1,1.1,2.1,1.3,3.4c0.3,2.4,0.4,4.8,0.4,7.3c0,0.2,0.1,0.4,0.1,0.7c0.7-1.2,1.1-2.3,1.5-3.5c0.6-1.8,0.8-3.6,0.6-5.5
	c-0.1-0.9-0.1-1.8-0.1-2.7C105.2,241.8,108.3,238.9,111.4,235.9z M121.1,221.9c-0.1,0.2-0.1,0.2-0.1,0.3c0,0.2,0,0.4,0,0.6
	c0.1,3.7,1.9,6.4,5.1,8.2c2.8,1.6,5.8,2.2,8.9,2.5c0.7,0.1,1.5,0.1,2.4,0.2c-0.2-0.2-0.3-0.2-0.4-0.3c-0.2-0.1-0.4-0.1-0.6-0.2
	c-3.6-1-7-2.4-10-4.6C124.1,226.8,122,224.9,121.1,221.9z M181,249.5c-1.4,2.1-1.8,8.4-1,10.1c0.9-1.6,1.6-3.4,3.4-4.4
	c0.8,0.8,1.5,1.6,2.2,2.3C184.8,254.5,183.2,251.9,181,249.5z"/>
<path d="M111.4,235.9c-3.1,3-6.2,6-9.4,9c0,0.9,0,1.8,0.1,2.7c0.3,1.9,0.1,3.7-0.6,5.5c-0.4,1.2-0.9,2.3-1.5,3.5
	c0-0.2-0.1-0.4-0.1-0.7c0-2.4-0.1-4.9-0.4-7.3c-0.2-1.2-0.6-2.4-1.3-3.4c-1-1.4-2-2.7-3.1-4.1c-0.2-0.3-0.4-0.5-0.5-0.9
	c0.3,0.2,0.5,0.4,0.8,0.6c1,0.8,2.1,1.5,3.3,2c1.3,0.5,2.4,0.4,3.5-0.5c2.7-2.1,5.5-4.2,8.3-6.2c0.2-0.2,0.4-0.3,0.6-0.4
	C111.3,235.8,111.4,235.8,111.4,235.9z"/>
<path d="M121.1,221.9c0.8,3,2.9,5,5.3,6.7c3,2.2,6.4,3.6,10,4.6c0.2,0.1,0.4,0.1,0.6,0.2c0.1,0,0.1,0.1,0.4,0.3
	c-0.9-0.1-1.7-0.1-2.4-0.2c-3.1-0.3-6.1-0.9-8.9-2.5c-3.2-1.8-5-4.5-5.1-8.2c0-0.2,0-0.4,0-0.6C121,222.1,121.1,222,121.1,221.9z"/>
<path d="M181,249.5c2.2,2.4,3.7,5,4.5,8c-0.7-0.7-1.4-1.5-2.2-2.3c-1.8,1-2.5,2.8-3.4,4.4C179.2,257.9,179.7,251.6,181,249.5z
	 M182.2,255.4c-0.9,0.1-1.5-0.2-2-1.2c0,1.5,0,2.7,0,4C180.9,257.2,181.5,256.3,182.2,255.4z M182.9,252.3c-0.6-0.8-1.2-1.5-1.8-2.3
	c-0.3,1-0.5,1.8-0.7,2.7C181.5,252,181.6,252,182.9,252.3z M180.8,254.5c1.3-0.1,1.7-0.4,2.1-1.4
	C181.8,253.1,181.3,253.6,180.8,254.5z"/>
<path d="M180.8,241.4c-1.3-0.4-2.6-0.8-3.9-1.2c-0.2-0.1-0.4-0.2-0.7-0.4l0,0c0.3,0,0.5,0,0.8,0.1c1.1,0.4,2.2,0.8,3.3,1.2
	C180.5,241.1,180.6,241.3,180.8,241.4L180.8,241.4z"/>
<path class="st1" d="M129.4,135.2c-1.9,0.9-3.6,0.3-4.7-1.1c-0.7-0.9-1.3-1.9-1.8-2.9c-1.4-3.5-2.1-7.2-1.7-11
	c0.2-2.1,0.8-4.3,1.2-6.4c0.5-2.6,0.9-5.2,1.4-7.7c0-0.1,0.1-0.1,0.2-0.2c1.6,1.4,3.1,2.8,4.7,4.3c0.1-0.2,0.1-0.3,0.1-0.4l0,0
	c1.1,2.4,1.8,4.9,2.3,7.5c0.2,1.4,0.5,2.8,0.4,4.3c-0.1,2.9-0.5,5.7-1,8.5c0,0.2-0.1,0.4-0.2,0.7 M123.8,120
	c-0.2-0.5-0.2-1.1-0.5-1.6c0.2,0.9,0.3,1.9,0.5,2.8 M131.1,118.2c-0.3,3-0.8,6-0.6,9.1C130.7,124.2,130.9,121.2,131.1,118.2z"/>
<path class="st1" d="M128.8,109.7c-0.2-0.2-0.5-0.4-0.7-0.6c-3.1-4-6.3-8-9.3-12.1c-1.8-2.3-3.2-4.9-4.2-7.7
	c-1.1-3.2-1.2-6.4-0.3-9.6c0.6-2.2,1.8-3.9,3.6-5.5c-0.4,2.1-0.8,4-0.7,6s0.5,3.9,1.2,5.8s1.7,3.6,2.9,5.3c-0.1,0.2-0.1,0.4-0.2,0.7
	c-0.3,0.8-0.2,1.6,0.3,2.3c0.8,1.5,1.7,3,2.4,4.5c1.6,3.3,3.1,6.6,4.7,9.9C128.6,108.9,128.6,109.3,128.8,109.7L128.8,109.7z"/>
<path class="st1" d="M205.2,47c-0.3,0.1-0.4,0.2-0.6,0.3c-0.7-0.6-0.9-1.4-1.1-2.3c-0.6,0.8-1.1-0.2-1.6,0c-0.1-0.3-0.1-0.6-0.2-1
	c-0.3,0-0.6-0.1-1-0.2c-0.1-0.1-0.2-0.3-0.2-0.5c-0.2-0.6-0.5-1-1.2-1c-0.4,0-0.8-0.5-1.3-0.8c-0.3-0.1-0.8,0.4-1.2-0.3
	c-0.1-0.4-0.2-0.9-0.3-1.4c-0.5-0.1-1-0.1-1.5-0.2c-0.1-0.5-0.1-0.9-0.2-1.3c-0.4,0-0.8-0.1-1.3-0.1c-0.1-0.3-0.3-0.6-0.5-0.9
	c-0.3-0.1-0.7-0.1-1.1-0.2c-0.2-0.3-0.3-0.6-0.5-0.9c-0.4,0-0.7-0.1-1.1-0.1c-0.1-0.3-0.3-0.5-0.4-0.8c-0.5,0.3-0.9,0.6-1.5,1.1
	c0-0.5-0.1-0.8-0.1-1.1c-0.5,0.2-0.9,0.5-1.4,0.7c-0.6-0.2-0.2-0.7-0.4-1.2c-0.4,0.2-0.8,0.3-1.2,0.5c-0.6-0.5-0.3-1.2-0.3-1.8
	c-0.4,0.2-0.7,0.3-1,0.5c-0.1-0.2-0.1-0.4-0.2-0.5c-0.5,0.2-1,0.4-1.6,0.5c-0.3-0.3-0.5-0.6-0.7-0.9c-0.3,0.1-0.6,0.2-0.8,0.3
	c-0.3-0.1-0.5-0.2-0.8-0.3c0-0.2,0-0.4,0.1-0.6c-0.3,0.1-0.6,0.1-1,0.2c-0.2-0.2-0.3-0.3-0.4-0.4c-0.6,0.2-1.2,0.4-1.8,0.6
	c-0.3-0.3-0.5-0.5-0.6-0.7c-1.7,0.1-3.2,0.3-4.8-0.3c-0.2,0.1-0.4,0.3-0.6,0.5c-0.6,0-1.3,0.1-1.8-0.5c-0.5,0.2-1.1,0.4-1.7,0.7
	c-0.3-0.3-0.5-0.5-0.7-0.7c-0.6,0.3-1.2,0.5-1.9,0.8c-0.4-0.2-0.8-0.4-1.1-0.6c-1.1,0.3-1.9,1.4-3.1,0.5c-0.9,0.7-1.9,1.6-3.2,0.7
	c-0.5,0.5-1,0.9-1.5,1.4c-0.4,0-0.8,0-1.3,0c0-0.1-0.1-0.2-0.2-0.4c2.5-1.5,5.1-2.7,8-3.3c4-0.8,8.1-1.1,12.2-0.8
	c6.4,0.5,12.5,2.2,18.2,5.2c4.7,2.5,8.6,6.1,11.9,10.3c0.2,0.2,0.3,0.4,0.4,0.7C205,46.6,205.1,46.7,205.2,47z"/>
<path class="st1" d="M191.1,59.8c0.1-0.6,0.3-1.2,0.4-1.8c0.1-0.4,0.2-0.8,0.3-1.4c0.1,0.4,0.2,0.6,0.2,0.6c0.3-0.1,0.7-0.3,0.8-0.3
	c0.5,0.5,1,0.1,1.6,0.2c0.4,0.6-0.1,1.3,0,1.9c0.6,0,1.3,0,1.9,0c0.2-0.2,0.5-0.4,0.9-0.7c0.1,0.4,0.2,0.7,0.2,1c0.2,0,0.4,0,0.6,0
	c0.4,1.3,1.9,1.4,2.7,2.5c0.5,0,1.1,0,1.8,0c0.1,0.1,0.2,0.3,0.4,0.5c1.5-0.2,4.6,2,4.8,3.8c0.1-0.1,0.2-0.2,0.3-0.4
	c0.3,0.4,0.6,0.8,0.9,1.2c0.3,0.4,0.4,0.9,0.7,1.3c-0.4,0.2-0.7,0-0.8-0.2c-0.2-0.6-0.7-0.8-1.1-1c-0.3-0.2-0.6-0.4-0.9-0.6
	c-0.1-0.4-0.3-0.8-0.4-1.2c-0.5,0.2-0.9,0.4-1.3,0.6c-0.6-0.3-1.5-0.1-1.8-0.9c-0.5-0.1-0.9-0.2-1.2-0.3c-0.1,0-0.1-0.3-0.2-0.5
	c-0.5,0.1-1,0.1-1.6,0.2c-0.1-0.3-0.2-0.6-0.3-0.9c-0.5,0-1,0-1.7,0c-0.1,0.1-0.2,0.4-0.5,0.7c-0.8-0.4-1.6-0.9-2.4-1.1
	c-0.8-0.3-1.5-0.8-2.1-1.3c-0.1,0-0.1,0.1-0.3,0.2c-0.1-0.3-0.2-0.6-0.3-1c-0.2-0.1-0.5-0.2-0.8-0.3c0-0.4-0.1-0.7-0.1-1.1
	c-0.1,0.4-0.3,0.8-0.5,1.4C191.1,60.4,191.1,60,191.1,59.8L191.1,59.8z"/>
<path class="st1" d="M137,202.4c1.4,3.2,2.6,6.2,4,9.3c1.4,0.3,2.9,0.7,4.5,1c1.3,1.9,2.6,3.9,4,5.9c-5.8-2.6-10.6-6.4-15.1-10.9
	C135.5,206.2,136.2,204.4,137,202.4z"/>
<path class="st1" d="M163.5,57.7c-0.8,0.7-2.2,0.8-3.1,0.3c-0.3-0.2-0.6-0.3-0.9-0.4c0.1-0.4,0.2-0.8,0.3-1.4
	c-0.3,0.3-0.5,0.5-0.7,0.7c-0.3,0-0.7,0-1,0c-0.1-0.3-0.3-0.6-0.4-0.9c-0.3-0.1-0.6-0.1-0.9-0.2c-0.1-0.2-0.3-0.5-0.5-0.9
	c-0.2,0.2-0.4,0.3-0.6,0.5c-0.2-0.2-0.3-0.4-0.6-0.6c0-0.1,0.1-0.4,0.1-0.5c-0.2-0.4-0.4-0.6-0.6-0.9c0.3-0.6,0.5-1.1,0.8-1.7
	c0.2-0.2,0.5-0.5,0.7-0.7c0.2,0.1,0.4,0.2,0.7,0.4c0,0.3,0,0.6,0,0.8c0.3,0.2,0.5,0.4,0.8,0.5c0.1-0.1,0.2-0.2,0.3-0.3
	c1,0.3,1.6,1.3,2.7,1.5c1,0.2,1.9,0.8,3,1.2C163.6,55.8,163.5,56.8,163.5,57.7L163.5,57.7z"/>
<path class="st1" d="M184.7,60.4c-0.2,0.2-0.3,0.4-0.5,0.6c-1.7,0.3-3.1-0.5-4.6-1.2c-0.1-0.3-0.2-0.7-0.4-1
	c-0.8,0.5-1.1-0.1-1.5-0.7c-0.4,0-0.7,0-1.1,0c-0.3-0.2-0.6-0.4-0.9-0.7c0-0.3,0-0.7,0-1.1l0,0c0.2-0.6,0.5-1.3,0.7-2
	c0.4,0.2,0.8,0.5,1.2,0.7c0.1-0.1,0.2-0.1,0.3-0.2c0.4,0.4,0.8,0.9,1.1,1.1c0.9,0.3,1.6,0.5,2.3,0.7c0.3,0.7,0.6,1.4,0.8,2
	c0.1-0.2,0.2-0.5,0.4-0.9c0.1,0.1,0.2,0.2,0.3,0.4c0.1-0.2,0.3-0.4,0.4-0.5c0.5,0.1,0.9,0.2,1.5,0.3
	C184.8,58.8,184.8,59.6,184.7,60.4L184.7,60.4z"/>
<path class="st1" d="M191.1,59.7c-0.2,0.3-0.4,0.6-0.6,1c-0.3-0.2-0.5-0.4-0.9-0.7c-0.1,0.2-0.3,0.5-0.4,0.8c-0.5-0.2-1-0.4-1.5-0.7
	c-0.3,0.4-0.5,0.8-0.8,1.2c-0.4-0.1-0.7-0.2-1-0.3c-0.3,0.1-0.7,0.3-1.1,0.5c0-0.5,0-0.8,0-1.2l0,0c0.2-0.7,0.3-1.3,0.5-2
	c0.2-0.4,0.4-0.9,0.7-1.3c0.5,0.2,0.7-0.4,1.2-0.5c0.4,0,0.9-0.2,1.3-0.3c0.3-0.1,0.6-0.1,0.9-0.1c0.2,0.1,0.4,0.3,0.5,0.3
	c0.6-0.1,1.2-0.3,1.8-0.4C191.3,57.5,191.2,58.6,191.1,59.7L191.1,59.7z"/>
<path class="st1" d="M165.1,57c0.3-0.7,0.5-1.4,0.9-2.2c0.7-0.2,1.4-0.4,2.2-0.6c0.8-0.2,1.6-0.5,2.5-0.3c0.3,0.1,0.7-0.2,1.3-0.4
	c0.1,1.2-0.1,2.1-0.6,3c-0.1,0.1-0.3,0.3-0.4,0.3c-0.9,0.1-1.8,0.6-2.7,0.7c-0.9,0-1.9,0.3-3,0.5C165.1,57.6,165.1,57.3,165.1,57
	L165.1,57z"/>
<path class="st1" d="M153.7,52.4c-0.1,0.1-0.2,0.2-0.3,0.4c-0.2-0.3-0.3-0.7-0.5-1.1c-0.5,0.7-0.9,1.4-1.3,2.1
	c-0.4-0.2-0.8-0.4-1.3-0.6c-0.2,0.2-0.4,0.4-0.7,0.6c-0.1-0.3-0.1-0.4-0.2-0.6c-0.2,0.1-0.3,0.1-0.6,0.2c0-0.2,0-0.4,0-0.6
	c0.4-0.9,0.9-1.7,1.3-2.6c0.2-0.2,0.4-0.4,0.7-0.6c0.6,0.3,0.7-0.6,1.5-0.6c0.2,0.1,0.7,0.4,1.1,0.7c0.1-0.1,0.3-0.2,0.6-0.5
	c0.1,0.7,0.2,1.3,0.2,1.9C154.1,51.6,153.9,52,153.7,52.4z"/>
<path class="st1" d="M171,216.2c5.8-7.9,9.9-16.8,13.8-26c-0.1,1.4-3.5,9.1-5.9,13.8C176.3,209.3,172.4,215,171,216.2z"/>
<path class="st1" d="M175,56.6c-0.2,0.2-0.3,0.4-0.5,0.6c-0.7-0.1-1.3-0.2-1.5-1c-0.3,0.1-0.6,0.1-0.9,0.2c-0.2-0.9-0.1-1.6,0.5-3
	c0.9-0.2,1.9-0.4,2.9,0c0,0.5-0.1,0.9-0.1,1.4C175.2,55.4,175.1,56,175,56.6z"/>
<path class="st1" d="M141.5,47.9c0.3-0.1,0.6-0.2,1-0.4c-0.3,0.9,0.7,1.3,0.3,2.2c0.3-0.3,0.5-0.4,0.7-0.6c0.1,0.4,0.2,0.8,0.3,1.2
	c0.3-0.2,0.7-0.4,1.1-0.6c0.1,0.2,0.1,0.4,0.1,0.6c-0.4,0.7-0.7,1.4-1.1,2.1c-0.1,0.1-0.3,0.1-0.4,0.2c-0.1-0.2-0.3-0.3-0.5-0.5
	c-0.2,0-0.4,0-0.6,0.1c-0.1-0.2-0.1-0.3-0.2-0.4c-0.1,0.1-0.2,0.1-0.4,0.2c0.1-0.3,0.1-0.6,0.2-0.8c-0.2-0.1-0.4-0.2-0.6-0.3
	c-0.2,0.3-0.5,0.6-0.8,0.9c0,0-0.1,0-0.1-0.1c0.3-0.7,0.6-1.4,0.9-2.1c-0.2,0-0.3,0-0.5-0.1C141.2,48.9,141.4,48.4,141.5,47.9
	L141.5,47.9z"/>
<path class="st1" d="M144.1,52.3c0.4-0.7,0.7-1.4,1.1-2.1c0.3-0.4,0.6-0.8,1.1-1.3c0,0.3,0,0.5,0.1,0.6c0.5,0,0.8-0.4,1.2-0.8
	c-0.2,0.5-0.3,0.8-0.3,1c0.1,0.3,0.2,0.6,0.3,0.8c-0.2,0.4-0.4,0.8-0.6,1.2c-0.3,0.5-0.6,1-0.9,1.5c-0.6-0.1-1.1-0.2-1.7-0.3
	C144.2,52.7,144.1,52.5,144.1,52.3z"/>
<path class="st1" d="M146.8,51.8c0.2-0.4,0.4-0.8,0.6-1.2c0.1-0.1,0.3-0.3,0.4-0.5c0.1,0.1,0.1,0.2,0.2,0.4c0.2-0.2,0.3-0.4,0.4-0.6
	c0.1,0.1,0.2,0.1,0.3,0.2c0.4-0.4,0.9-0.5,1.4-0.2c0,0.1,0,0.3,0,0.4c-0.4,0.9-0.9,1.7-1.3,2.6c-0.2,0.1-0.4,0.2-0.5,0.3
	c-0.2-0.1-0.4-0.2-0.6-0.3c0-0.2,0.1-0.3,0.1-0.7c-0.3,0.4-0.5,0.6-0.7,0.8c-0.2-0.1-0.4-0.2-0.6-0.3
	C146.7,52.4,146.8,52.1,146.8,51.8z"/>
<path class="st1" d="M181.1,97.9c0.8,0.1,1.3,0.2,1.9,0.2c0.5,0.7,1.2,0.9,2.1,0.5c0.5,0.2,1,0.5,1.8,0.8c-0.4,0.3-0.6,0.5-0.9,0.8
	c-1.4-0.3-2.9-0.7-4.3-1C181.5,98.8,181.3,98.4,181.1,97.9z"/>
<path class="st1" d="M186.6,100.2c0.3-0.4,0.5-0.7,0.8-1.1c2.1,0.5,4,1.4,6,2.4C191.1,101.1,188.9,100.7,186.6,100.2z"/>
<path class="st1" d="M199.6,144.4c0-0.8,0-1.7,0-2.6c-0.4,0.2-0.7,0.3-1.1,0.4c0.9-1.5,1.8-3,2.7-4.4c0.1,0,0.1,0,0.2,0.1
	c-0.4,1.1-0.8,2.2-1.1,3.3s-0.3,2.2-0.5,3.3C199.7,144.5,199.6,144.5,199.6,144.4z"/>
<path class="st1" d="M177.8,97.2c1-0.1,1.9-0.2,2.9,0.2c0.1,0.5,0.1,1,0.2,1.5c-1.2-0.4-2.2-0.7-3.3-1.1l0,0
	c-0.2-0.1-0.3-0.2-0.5-0.3C177.4,97.4,177.6,97.3,177.8,97.2C177.9,97.2,177.8,97.2,177.8,97.2z"/>
<path class="st1" d="M153.7,52.4c0.2-0.4,0.4-0.8,0.6-1.2c0.4-0.3,0.7-0.6,1.1-0.9c0.5,0.4,0.2,0.9,0.1,1.4
	c-0.3,0.6-0.5,1.1-0.8,1.7c-0.2,0.2-0.4,0.4-0.6,0.6c-0.2-0.2-0.4-0.3-0.5-0.5C153.6,53.1,153.6,52.8,153.7,52.4z"/>
<path class="st1" d="M213.4,123.9c1.1-0.3,2.3-0.6,3.4-0.8c0.4,0.1,0.5,0.3,0.4,0.6c-0.3,0.2-0.6,0.4-0.9,0.5
	c-0.3,0-0.5,0.1-0.8,0.1c-0.6,0.1-1.3,0.2-2,0.3C213.2,124.5,213.2,124.2,213.4,123.9z"/>
<path class="st1" d="M215.5,124.3c0.3,0,0.5-0.1,0.8-0.1c0.3-0.1,0.7-0.1,1-0.2c0.1,0.2,0.2,0.4,0.3,0.7c-0.2,0.1-0.4,0.2-0.6,0.4
	l0,0c-1,0.2-2,0.4-3.2,0.7c-0.1-0.2-0.2-0.4-0.3-0.6C214.3,124.8,214.9,124.6,215.5,124.3z"/>
<path class="st1" d="M193.4,141.7c-0.6,0.3-1.2,0.6-1.8,0.9c-0.1,0-0.3,0-0.5,0c0.1-0.8,0.5-1.3,1.2-1.7c0.3-0.1,0.6-0.3,0.9-0.4
	c0.2,0,0.3-0.1,0.5-0.1C193.9,141,193.6,141.3,193.4,141.7z"/>
<path class="st1" d="M205.9,133c-0.1,0-0.2,0-0.3,0c0-0.6,0.5-0.6,0.8-0.9l0,0c1.2-0.2,2.4-0.4,3.5-0.6c0.2,0,0.5,0,0.8,0
	c-0.3,0.5-0.7,0.5-1,0.6c-0.7,0.2-1.5,0.3-2.2,0.5C207.3,132.6,206.3,133,205.9,133z"/>
<path class="st1" d="M165.1,57c-0.3,0.5-0.6,0.9-0.9,1.3c-0.6,0-0.7-0.3-0.7-0.6l0,0c0.1-0.4,0.3-0.8,0.4-1.2
	c0.2-0.6,0.3-0.7,1.2-0.9C165.1,56.1,165.1,56.5,165.1,57L165.1,57z"/>
<path class="st1" d="M175,56.6c0.1-0.6,0.2-1.1,0.4-1.7c0.2-0.5,0.4-1,0.7-1.6c0.4,0.5,0.2,0.8,0.2,1.2c-0.1,0.6-0.2,1.3-0.4,1.9
	l0,0c-0.2,0.4-0.4,0.8-0.5,1.1c-0.1,0-0.2,0-0.2,0C175,57.1,175,56.9,175,56.6z"/>
<path class="st1" d="M141.6,47.9c-0.4,0.3-0.7,0.6-1,1c-0.3,0.3-0.6,0.7-0.9,1.1c0.1-0.8,1.2-2.8,1.9-3.4c0.2,0.2,0.4,0.4,0.5,0.7
	C141.8,47.5,141.7,47.7,141.6,47.9L141.6,47.9z"/>
<path class="st1" d="M209.4,129.1c-0.5,0.1-1.1,0.1-1.8,0.2c0.4-0.7,0.8-1.3,1.2-2.1c0.2,0.2,0.3,0.4,0.4,0.6
	c-0.2,0.1-0.3,0.2-0.5,0.3c0.5,0,1,0.1,1,0.6C209.6,128.9,209.5,129,209.4,129.1L209.4,129.1z"/>
<path class="st1" d="M193.1,140.6c-0.3,0.1-0.6,0.3-0.9,0.4c-0.1,0-0.2,0-0.3,0c0.3-1.3,0.8-1.7,1.7-1.8
	C194,139.9,193.5,140.2,193.1,140.6z"/>
<path class="st1" d="M207.3,130.5c-0.2-0.5-0.1-0.8,0.4-0.9c0.5-0.2,1.1-0.3,1.7-0.5l0,0c0.3,0.1,0.8-0.1,0.8,0.5
	C209.2,129.9,208.2,130.2,207.3,130.5L207.3,130.5z"/>
<path class="st1" d="M206.4,132.1c-0.4-0.2-0.2-0.4,0-0.6c0.3-0.2,0.6-0.2,0.9-0.3l0,0c0.8-0.1,1.6-0.3,2.3-0.4
	c0.3,0,0.6-0.1,0.9-0.1c0,0.1,0,0.2,0.1,0.3C209.2,131.3,207.8,131.7,206.4,132.1L206.4,132.1z"/>
<path class="st1" d="M164.1,223.7c-0.8,0.7-1.6,0.9-2.6,0.6c-1-0.4-2.1-0.6-3.2-1c0-0.1,0-0.2,0.1-0.2c0.7,0.2,1.3,0.4,2,0.7
	c1.2,0.4,2.3,0.6,3.5-0.1C163.9,223.6,164,223.7,164.1,223.7z"/>
<path class="st1" d="M217.3,121.4c0.5-0.2,1-0.4,1.5-0.6c-0.1,1.3-0.2,1.5-1,1.8C217.6,122.3,217.5,121.9,217.3,121.4z"/>
<path class="st1" d="M207.3,131.2c-0.2,0-0.4,0-0.6,0c0-0.1,0-0.1-0.1-0.2c0.2-0.2,0.5-0.3,0.7-0.5l0,0c1-0.2,2.1-0.3,3.1-0.5
	c0,0.1,0,0.1,0.1,0.2c-0.2,0.1-0.3,0.2-0.5,0.3C209.1,130.7,208.2,131,207.3,131.2L207.3,131.2z"/>
<path class="st1" d="M138,51c0.2-1.2,1-2.7,1.8-3.4C139.4,49,138.6,49.9,138,51z"/>
<path class="st1" d="M179.2,234.8c0.3,0.2,0.6,0.5,0.9,0.7c0,0.2,0,0.3,0,0.5c-0.2-0.1-0.3-0.2-0.5-0.2c-0.1-0.1-0.2-0.2-0.2-0.2
	c-0.1-0.1-0.2-0.1-0.2-0.2C179.2,235.1,179.2,234.9,179.2,234.8z"/>
<path class="st1" d="M184.4,239.1c-0.2-0.1-0.3-0.2-0.5-0.2c-0.1-0.1-0.2-0.2-0.2-0.2l0,0c-0.1-0.1-0.2-0.2-0.3-0.3l0,0
	c0-0.2,0-0.3,0-0.5l0,0C184,238.2,184.4,238.5,184.4,239.1z"/>
<path d="M177.2,233.4c0.2,0.2,0.5,0.3,0.7,0.5c0.1,0.1,0.1,0.2,0.2,0.2l0,0c0,0.2,0,0.3,0,0.5c-0.1,0-0.2,0-0.3,0
	c-0.1-0.1-0.2-0.2-0.2-0.2c-0.1-0.1-0.2-0.2-0.2-0.2c-0.1-0.1-0.2-0.2-0.2-0.2C177.2,233.7,177.2,233.6,177.2,233.4z"/>
<path d="M205.5,89.9c-0.1,0.1-0.2,0.2-0.4,0.3c0.1-0.4,0.1-0.9,0.6-1.1C205.6,89.4,205.5,89.7,205.5,89.9z"/>
<path class="st1" d="M175.2,231.5c0.4,0.2,0.8,0.5,0.8,1l0,0c-0.1,0-0.2,0-0.2,0c-0.1-0.1-0.2-0.2-0.2-0.2c-0.1-0.1-0.2-0.2-0.2-0.2
	C175.3,231.9,175.3,231.7,175.2,231.5z"/>
<path class="st1" d="M180.8,235.9c0.1,0.1,0.3,0.2,0.4,0.2c0.1,0.1,0.2,0.2,0.3,0.2l0,0c0,0.2,0,0.3,0,0.5c-0.2-0.1-0.3-0.2-0.5-0.2
	c-0.1-0.1-0.2-0.2-0.2-0.2C180.8,236.2,180.8,236.1,180.8,235.9z"/>
<path d="M180.8,235.9c0,0.2,0,0.3,0,0.5l0,0c-0.2-0.1-0.3-0.2-0.5-0.2l0,0c-0.1-0.1-0.2-0.2-0.3-0.3l0,0c0-0.2,0-0.3,0-0.5
	c0.2,0.1,0.3,0.1,0.5,0.2C180.6,235.8,180.7,235.9,180.8,235.9L180.8,235.9z"/>
<path class="st1" d="M174.2,230.9c0.3,0.2,0.5,0.3,0.8,0.5c0,0.2-0.1,0.3-0.1,0.5c-0.1,0-0.2,0-0.2,0c-0.1-0.1-0.2-0.2-0.2-0.2
	c-0.1-0.1-0.2-0.2-0.2-0.2C174.2,231.2,174.2,231.1,174.2,230.9z"/>
<path d="M179.2,234.8c0,0.2,0,0.3,0,0.5l0,0c-0.1,0-0.2,0-0.2,0c-0.1-0.1-0.2-0.2-0.2-0.2c-0.1-0.1-0.2-0.2-0.2-0.2
	c0-0.1-0.1-0.3-0.1-0.4c0.1,0,0.2,0,0.3,0c0.1,0.1,0.1,0.2,0.2,0.2l0,0C179.1,234.6,179.1,234.7,179.2,234.8L179.2,234.8z"/>
<path d="M207.5,91.9c0-0.2,0.1-0.3,0.1-0.5c0.1,0,0.2-0.1,0.4-0.1c-0.1,0.2-0.2,0.4-0.2,0.5C207.7,91.9,207.6,91.9,207.5,91.9
	L207.5,91.9z"/>
<path class="st1" d="M177.2,233.4c0,0.2,0,0.3,0,0.5l0,0c-0.1,0-0.2,0-0.2,0c-0.1-0.1-0.2-0.1-0.2-0.2c0-0.2,0-0.3,0-0.5l0,0
	C176.9,233.3,177,233.3,177.2,233.4z"/>
<path d="M174.9,231.8c0-0.2,0.1-0.3,0.1-0.5c0.1,0.1,0.1,0.1,0.2,0.2c0,0.2,0.1,0.3,0.1,0.5l0,0c-0.1,0-0.2,0-0.3,0
	C175,232,174.9,231.9,174.9,231.8L174.9,231.8z"/>
<path class="st1" d="M178.4,234.4c0,0.1,0.1,0.3,0.1,0.4l0,0c-0.1,0-0.2,0-0.2,0c-0.1-0.1-0.2-0.2-0.2-0.2l0,0c0-0.2,0-0.3,0-0.5
	C178.2,234.2,178.3,234.3,178.4,234.4z"/>
<path class="st1" d="M183.4,238.4c-0.1,0-0.2,0-0.3,0c-0.1-0.1-0.2-0.2-0.2-0.2l0,0c0-0.2,0-0.3,0-0.5l0,0c0.1,0,0.2,0,0.3,0
	c0,0.1,0.1,0.2,0.1,0.3l0,0C183.3,238.1,183.3,238.3,183.4,238.4z"/>
<path d="M174.2,230.9c0,0.2,0,0.3,0,0.5l0,0c-0.1,0-0.2,0-0.3,0l0,0c-0.1-0.1-0.2-0.2-0.3-0.3l0,0c0-0.2,0.1-0.3,0.1-0.5l0,0
	C174,230.7,174.1,230.8,174.2,230.9L174.2,230.9z"/>
<path class="st1" d="M181.9,236.6c0.1,0.1,0.1,0.3,0.2,0.4l0,0c-0.1,0-0.2,0-0.3,0C181.9,236.9,182,236.8,181.9,236.6L181.9,236.6z"
	/>
<path class="st1" d="M178.1,234.1c-0.1-0.1-0.1-0.2-0.2-0.2C177.9,234,178,234,178.1,234.1z"/>
<path class="st1" d="M179,234.6c-0.1-0.1-0.1-0.2-0.2-0.2C178.8,234.4,178.9,234.5,179,234.6z"/>
<path class="st1" d="M179.2,234.8c-0.1-0.1-0.2-0.2-0.3-0.3C179.1,234.6,179.1,234.7,179.2,234.8z"/>
<path d="M168.2,109.1c0.1,0.1,0.2,0.1,0.2,0.2c-0.1,0-0.2,0-0.2,0C168.3,109.2,168.3,109.1,168.2,109.1z"/>
<path class="st1" d="M168.2,109.2c0.1,0,0.2,0,0.2,0l0,0c0,0.1,0,0.2,0,0.3c-0.1,0-0.2,0-0.2,0C168.2,109.4,168.2,109.3,168.2,109.2
	z"/>
<path d="M168.2,109.5c0.1,0,0.2,0,0.2,0l0,0c0,0.1,0,0.2,0,0.3l0,0c-0.1,0-0.2,0-0.2,0C168.3,109.6,168.3,109.6,168.2,109.5z"/>
<path class="st1" d="M174.2,230.9c-0.1-0.1-0.2-0.2-0.3-0.3C174,230.7,174.1,230.8,174.2,230.9z"/>
<path class="st1" d="M180.8,235.9c-0.1-0.1-0.2-0.2-0.3-0.2C180.6,235.8,180.7,235.9,180.8,235.9z"/>
<path d="M181.5,236.4c-0.1-0.1-0.2-0.2-0.3-0.2c0.1,0,0.2,0,0.3,0C181.5,236.2,181.5,236.3,181.5,236.4z"/>
<path class="st1" d="M181.5,236.4c0-0.1,0-0.2,0-0.2c0.1,0.1,0.1,0.2,0.2,0.2l0,0C181.6,236.4,181.6,236.4,181.5,236.4L181.5,236.4z
	"/>
<path class="st1" d="M181.7,236.4c0.1,0.1,0.2,0.2,0.2,0.2l0,0C181.9,236.5,181.8,236.4,181.7,236.4L181.7,236.4z"/>
<path class="st1" d="M182.2,237.1c0.1,0.1,0.2,0.2,0.2,0.2l0,0c-0.1,0-0.2,0-0.3,0l0,0C182.2,237.2,182.2,237.1,182.2,237.1
	L182.2,237.1z"/>
<path class="st1" d="M182.4,237.3c0.1,0.1,0.2,0.2,0.2,0.2l0,0c-0.1,0-0.2,0-0.3,0l0,0C182.4,237.5,182.4,237.4,182.4,237.3
	L182.4,237.3z"/>
<path class="st1" d="M182.6,237.5c0.1,0.1,0.2,0.2,0.2,0.2l0,0c-0.1,0-0.2,0-0.2,0l0,0C182.6,237.7,182.6,237.6,182.6,237.5
	L182.6,237.5z"/>
<path d="M183.3,238c0-0.1-0.1-0.2-0.1-0.3l0,0C183.3,237.8,183.3,237.9,183.3,238z"/>
<path class="st1" d="M183.3,238c0-0.1-0.1-0.2-0.1-0.3c0.1,0.1,0.2,0.2,0.3,0.3l0,0C183.5,238,183.4,238,183.3,238L183.3,238z"/>
<path class="st1" d="M176,232.5c0.1,0.1,0.2,0.2,0.2,0.2l0,0c-0.1,0-0.2,0-0.2,0S176,232.6,176,232.5L176,232.5z"/>
<path class="st1" d="M176.2,232.7c0.1,0.1,0.2,0.1,0.2,0.2l0,0C176.4,232.9,176.3,232.8,176.2,232.7L176.2,232.7z"/>
<path class="st1" d="M176.5,233c0.1,0.1,0.2,0.2,0.2,0.2l0,0C176.6,233.1,176.6,233,176.5,233L176.5,233z"/>
<path class="st1" d="M182.2,255.4c-0.7,0.9-1.3,1.8-2,2.8c0-1.3,0-2.5,0-4C180.7,255.1,181.3,255.5,182.2,255.4z"/>
<path class="st1" d="M182.9,252.3c-1.3-0.3-1.3-0.3-2.5,0.5c0.2-0.9,0.5-1.7,0.7-2.7C181.7,250.8,182.2,251.5,182.9,252.3z"/>
<path class="st1" d="M180.8,254.5c0.5-0.9,1.1-1.5,2.1-1.4C182.5,254.2,182,254.5,180.8,254.5z"/>
<path d="M136.5,183.3c-0.1,0.2-0.3,0.5-0.5,0.8c0.1-0.7,0.1-1.2,0.2-1.9c0.1,0.3,0.3,0.5,0.4,0.7c0.8,0.2,1.5,0.1,2.2-0.2
	c1.6-0.8,3.2-1.6,4.8-2.4c0.9-0.4,1.8-0.9,2.7-1.3c0.3-0.1,0.6-0.2,0.9-0.3c1.2-0.3,1.8,0,2.4,1.1c0.2,0.4,0.4,0.8,0.5,1.1
	s0.2,0.7,0.4,1.2c0.4-0.4,0.7-0.7,0.9-1.1c2.2-2.5,2-2.2,4.6-1.1c2.8,1.2,5.1,3,7.4,4.8c1.3,1,2.5,2,3.7,3c1.7,1.3,3.7,2.1,5.9,1.9
	c1-0.1,2-0.5,3.1-0.7c-0.2,0.1-0.3,0.3-0.5,0.4c-2,1-4.1,1.2-6.3,0.8c-1.8-0.3-3.3-1.3-4.8-2.3c-1.3-1-2.7-2-4.1-2.9
	c-1.5-1-3.2-1.8-5.1-2.4c-1.1,0.3-2.2,0.6-3.4,0.9c-1.8,0.6-3.3,0.1-4.5-1.4c-0.1-0.2-0.3-0.4-0.4-0.5c-1.9,0.5-3.6,1-5.3,1.5
	c-0.8,0.2-1.5,0.4-2.3,0.5C138.5,183.8,137.7,183.7,136.5,183.3z"/>
<path d="M169.6,192.4c-1.1-0.1-2.3-0.1-3.4-0.2c-0.9,0-1.8-0.1-2.7-0.1c-6.8-0.1-13.1-2.1-18.6-6.1c-0.9-0.6-1.7-1.4-2.4-2.3
	c0.2,0.1,0.4,0.2,0.6,0.4c1.8,1.1,3.6,2.1,5.4,3.2c0.6,0.4,1.3,0.7,1.9,1c0.3,0.2,0.7,0.2,1.2,0.3c0.1,0.1,0.4,0.3,0.6,0.4
	c0.1,0,0.2,0.1,0.3,0.1c0.7-0.1,1.4,0.1,2.1,0.2c3.2,0.8,6.3,1.6,9.5,2.2c1.9,0.4,3.8,0.5,5.6,0.7
	C169.6,192.3,169.6,192.3,169.6,192.4z"/>
<path d="M179.7,181c0.2-0.4,0.4-0.9,0.6-1.3c1-2.1,1.6-4.4,1.4-6.7c-0.2-2.6-0.8-5.2-1.7-7.6c-0.7-2-1.4-3.9-2.1-5.9
	c-0.8-2.5-1.2-5.1-0.8-7.7c0,0.2,0.1,0.3,0.1,0.5c-0.1,2.9,0.6,5.7,1.5,8.5c1,2.8,1.9,5.6,2.7,8.4c0.7,2.4,0.9,4.9,0.4,7.3
	C181.4,178.1,180.8,179.7,179.7,181z"/>
<path d="M159.9,136.1c0-0.7,0-1.4,0-2.1c0-1.1,0-2.2-0.1-3.3c-0.1-2.6,0.1-5.2,0.7-7.8c0.8-3.5,3.1-11.9,4.4-15
	c-0.1,0.4-0.2,0.7-0.3,1.1c-1.4,4.6-2.7,9.1-3.8,13.8c-0.3,1.2-0.6,2.4-0.7,3.7c-0.1,1-0.1,2,0,2.9c0.1,1.9,0.1,3.8,0.2,5.7
	c0,0.4-0.1,0.7-0.1,1.1C160,136.1,160,136.1,159.9,136.1z"/>
<path d="M203.2,101.7c-1-2.6-3.2-16.6-2.9-18.3C201.3,89.5,202.3,95.6,203.2,101.7z"/>
<path d="M155.7,106.3c0,0.1,0,0.3,0,0.4c-0.3,0.4-0.7,0.7-1,1.1c-0.7,0.9-1.4,1.9-2.1,2.8c-0.3,0.3-0.5,0.7-1,0.5c0-0.1,0-0.2,0-0.3
	l0,0c0.1-0.1,0.2-0.1,0.3-0.2l0,0c0,0,0.1,0,0.1-0.1s0-0.1,0-0.2c0.3-0.6,0.9-1.1,0.9-1.8c0-0.2,0.2-0.5,0.4-0.5
	c0.8-0.3,1.1-1.1,1.6-1.6c0.1,0,0.1,0,0.2,0.1C155.3,106.4,155.5,106.3,155.7,106.3L155.7,106.3L155.7,106.3z"/>
<path d="M200,93.8c0.4,2.3-0.8,4.8-2.7,5.7c-0.1-0.2-0.2-0.5-0.3-0.8c0.3,0,0.5,0,0.9-0.1c0.1-0.1,0.3-0.3,0.5-0.4
	c-0.1-0.2-0.2-0.3-0.3-0.5c0.3,0.1,0.4,0.1,0.7,0.2c0.1-0.2,0.3-0.5,0.5-0.7c-0.1-0.2-0.2-0.4-0.4-0.6c0.2,0.1,0.4,0.1,0.5,0.1
	c0.1-0.2,0.2-0.4,0.3-0.6c-0.3-0.4-0.5-0.9-0.8-1.3c-0.4-0.2-0.7-0.4-1.1-0.6c0-0.1,0.1-0.1,0.1-0.2c0.7,0.3,1.4,0.7,2.2,1
	C199.9,94.6,199.9,94.2,200,93.8z"/>
<path d="M131.4,170c0.1,2.1,0.2,4.1,0.3,6.2c0.1,2.1,0.9,4,1.5,6.2C131.6,179.8,131.1,175.9,131.4,170z"/>
<path d="M150.9,102.9c0,0.5-0.4,0.7-0.7,0.9c-0.5,0.4-0.9,0.8-1.4,1.3c-0.6,0.5-1.2,0.9-2,0.8c0-0.1,0-0.2-0.1-0.3l0,0
	c0.1-0.1,0.2-0.2,0.3-0.2l0,0c0.7,0,1-0.6,1.4-1.1c0.1-0.1,0.1-0.2,0.2-0.2c0.7,0,0.9-0.7,1.4-0.9c0.1,0,0.2,0,0.3,0
	c0.1-0.1,0.2-0.2,0.3-0.2l0,0C150.7,102.8,150.8,102.9,150.9,102.9z"/>
<path d="M152.6,79.5c-0.9-0.4-1.4-1.2-1.9-2.1c-0.4-0.8-0.8-1.7-1.2-2.6c-0.5-1-0.9-1.9-1.4-2.8c-0.1-0.2-0.1-0.3-0.2-0.5
	c0.1,0,0.1-0.1,0.2-0.1c0.3,0.6,0.7,1.1,1,1.7c0.3,0.7,0.6,1.5,0.9,2.2C150.7,76.8,151.4,78.3,152.6,79.5z"/>
<path d="M150.8,192.4c0.2-0.4,0.3-0.6,0.4-0.9c0.4,0,0.8,0.1,1.4,0.2c0,0,0.2-0.2,0.4-0.4c0.1,0.6,0.2,1.1,0.4,1.8
	C152.4,192.9,151.7,192.7,150.8,192.4z"/>
<path d="M164.9,92.7c-0.8-2-0.7-4,0-6C164.7,88.6,164.6,90.6,164.9,92.7z"/>
<path d="M176.2,190.1c2.2,0.9,2.8-0.3,2.9-2.2c0,0.4,0.1,0.9,0.1,1.3c0,0.8-0.2,1.5-1,1.8C177.5,191.2,176.8,190.9,176.2,190.1z"/>
<path d="M177.9,97.2c-0.3,0.1-0.5,0.2-0.7,0.4c0.1,0.1,0.3,0.2,0.5,0.3c-1.1,0.1-2.2,0.2-3.2,0.3c0-0.1,0-0.2,0-0.3
	C175.5,97.6,176.6,97.2,177.9,97.2z"/>
<path d="M160.9,90c0.1-0.4,0.3-0.8,0.4-1.2c0.2-0.9,0.5-1.8,0.2-2.7c-0.1-0.3,0-0.6-0.1-1.1c0.7,1.9,0.6,3.5-0.4,5.1
	C161,90.1,160.9,90.1,160.9,90z"/>
<path d="M191.7,175.9c-1,1-2.1,1.9-3.1,2.9l0,0c1-1,2-2,3-3.1C191.6,175.8,191.7,175.9,191.7,175.9z"/>
<path d="M148.9,171.6c0.2,1.8,0.3,3.5,0.5,5.3C148.7,175.2,148.8,173.4,148.9,171.6z"/>
<path d="M140.2,88.1c1.8,0,3.6,0,5.4,0v0.1C143.8,88.2,142,88.2,140.2,88.1L140.2,88.1z"/>
<path d="M154.8,106.1c0.4-0.9,0.8-1.7,1.7-2.1c0,0.2-0.1,0.3-0.1,0.5l0,0c-0.1,0.1-0.2,0.2-0.3,0.3l0,0c-0.1,0.1-0.2,0.2-0.2,0.2
	l-0.1,0.1V105c0.1,0,0.2,0,0.3,0l0,0c0,0.2,0,0.3,0,0.5l0,0c-0.1,0.1-0.2,0.2-0.3,0.3l0,0c-0.1,0-0.2,0-0.3,0c0-0.1-0.1-0.1-0.1-0.2
	c0,0.1-0.1,0.1-0.1,0.2c-0.1,0.1-0.2,0.2-0.3,0.2l0,0c-0.1,0.1-0.2,0.2-0.3,0.3l0,0C154.9,106.1,154.9,106.1,154.8,106.1z"/>
<path d="M150,103.1c-0.5,0.2-0.7,0.9-1.4,0.9c0.6-0.5,1.2-1.1,1.8-1.6l0.1,0.1C150.3,102.7,150.2,102.9,150,103.1z"/>
<path d="M150.9,102.9c-0.1,0-0.2-0.1-0.3-0.1c0.2-0.2,0.3-0.4,0.5-0.6l0,0c0.1-0.1,0.2-0.2,0.3-0.3l0,0c0.1-0.1,0.2-0.2,0.3-0.3l0,0
	c0.1-0.1,0.2-0.2,0.3-0.3l0,0c0.1-0.1,0.2-0.2,0.3-0.3l0,0c0.2,0,0.3,0,0.5,0C152,101.8,151.5,102.3,150.9,102.9z"/>
<path d="M150.6,102.1c0.6-0.4,1.1-0.9,1.7-1.3c-0.1,0.2-0.2,0.3-0.3,0.5l0,0c-0.1,0.1-0.2,0.2-0.3,0.3l0,0c-0.1,0.1-0.2,0.2-0.3,0.3
	l0,0c-0.1,0.1-0.2,0.2-0.3,0.3l0,0c-0.1,0.1-0.2,0.2-0.3,0.3l0,0c-0.1,0-0.3,0.1-0.4,0.1C150.7,102.2,150.7,102.2,150.6,102.1z"/>
<path d="M148.4,104.3c-0.4,0.5-0.7,1.1-1.4,1.1C147.5,105,147.9,104.6,148.4,104.3z"/>
<path d="M152.7,100.4c0.4-0.4,0.7-0.8,1.1-1.2c0.1,0,0.1,0.1,0.2,0.1c-0.3,0.3-0.6,0.6-0.8,0.9C153,100.3,152.9,100.3,152.7,100.4z"
	/>
<path d="M144.7,107.4c-0.3,0.3-0.6,0.6-0.9,0.9c-0.1-0.1-0.1-0.1-0.2-0.2C144,107.9,144.2,107.5,144.7,107.4L144.7,107.4z"/>
<path d="M145.4,106.7c0.4-0.3,0.7-0.6,1.1-0.9l0.1,0.1C146.2,106.2,145.9,106.5,145.4,106.7C145.5,106.8,145.4,106.7,145.4,106.7z"
	/>
<path class="st1" d="M152.7,100.4c0.1,0,0.3-0.1,0.4-0.1c-0.1,0.2-0.1,0.4-0.2,0.5c-0.1,0.1-0.2,0.2-0.2,0.3l0,0
	c-0.1,0.1-0.2,0.2-0.3,0.3l0,0c-0.2,0-0.3,0-0.5,0c0.1-0.2,0.2-0.3,0.3-0.5l0,0c0.1-0.1,0.2-0.2,0.3-0.3l0,0
	C152.6,100.5,152.7,100.4,152.7,100.4C152.8,100.4,152.7,100.4,152.7,100.4z"/>
<path d="M205.9,94.6c0-0.5,0.3-0.9,0.7-1.1l0,0C206.6,94,206.3,94.4,205.9,94.6L205.9,94.6z"/>
<path d="M207.3,92.4c0.1,0.4-0.1,0.6-0.5,0.7l0,0C207,92.8,207.1,92.6,207.3,92.4L207.3,92.4z"/>
<path d="M150.5,112.5c0.1-0.2,0.3-0.5,0.4-0.7l0,0C150.7,112,150.6,112.2,150.5,112.5L150.5,112.5z"/>
<path d="M168.5,109.5c0-0.1,0-0.2,0-0.3c0.2,0.1,0.4,0.2,0.6,0.3c-0.2,0.1-0.3,0.1-0.4,0.1l0,0C168.6,109.7,168.6,109.6,168.5,109.5
	L168.5,109.5z"/>
<path d="M205.9,94.7c-0.1,0.2-0.2,0.4-0.3,0.6c-0.1,0-0.1-0.1-0.2-0.1C205.6,95,205.7,94.8,205.9,94.7
	C205.9,94.6,205.9,94.7,205.9,94.7z"/>
<path d="M150,112.9C150,113,149.9,113.1,150,112.9C149.9,113.1,150,113,150,112.9L150,112.9z"/>
<path d="M206.6,93.5c0.1-0.2,0.1-0.3,0.2-0.5l0,0C206.7,93.2,206.7,93.4,206.6,93.5L206.6,93.5z"/>
<path class="st1" d="M154.8,106.1c0.1,0,0.2,0,0.2-0.1c0,0.2,0,0.3-0.1,0.5c-0.1,0-0.1,0-0.2-0.1
	C154.8,106.3,154.8,106.2,154.8,106.1z"/>
<path d="M207.5,91.9c-0.1,0.2-0.1,0.3-0.2,0.5l0,0C207.3,92.2,207.4,92.1,207.5,91.9L207.5,91.9z"/>
<path class="st1" d="M156.4,104.5c0-0.2,0.1-0.3,0.1-0.5l0,0C156.5,104.2,156.4,104.3,156.4,104.5z"/>
<path d="M151.6,110.8c0,0.1,0,0.2,0,0.3c-0.1,0.1-0.2,0.1-0.2,0.2l0,0C151.5,111.2,151.5,111,151.6,110.8z"/>
<path d="M152.8,100.4c-0.1,0.1-0.2,0.2-0.3,0.3C152.6,100.5,152.7,100.4,152.8,100.4z"/>
<path d="M152.5,100.6c-0.1,0.1-0.2,0.2-0.3,0.3C152.4,100.8,152.4,100.7,152.5,100.6z"/>
<path d="M152.7,101.1c0.1-0.1,0.2-0.2,0.2-0.3C152.9,100.9,152.8,101,152.7,101.1z"/>
<path d="M152.5,101.3c0.1-0.1,0.2-0.2,0.3-0.3C152.7,101.1,152.6,101.2,152.5,101.3z"/>
<path d="M150.4,102.4c0.1-0.1,0.1-0.2,0.2-0.2l0.1,0.1c-0.1,0.1-0.2,0.1-0.2,0.2C150.5,102.4,150.4,102.4,150.4,102.4z"/>
<path d="M147,105.3c-0.1,0.1-0.2,0.2-0.3,0.2C146.8,105.5,146.9,105.4,147,105.3z"/>
<path d="M146.7,105.6c0,0.1,0,0.2,0.1,0.3c-0.1,0-0.1,0-0.2,0l-0.1-0.1C146.6,105.7,146.7,105.6,146.7,105.6z"/>
<path d="M145.5,106.8c-0.1,0.1-0.2,0.1-0.3,0.2l0,0C145.3,106.9,145.3,106.8,145.5,106.8C145.4,106.7,145.5,106.8,145.5,106.8z"/>
<path d="M145.2,107c-0.1,0.1-0.2,0.2-0.2,0.2l0,0C145.1,107.1,145.1,107.1,145.2,107L145.2,107z"/>
<path d="M144.8,107.5c0.1-0.1,0.2-0.2,0.2-0.2l0,0C144.9,107.3,144.8,107.4,144.8,107.5L144.8,107.5z"/>
<path d="M168.7,109.7c0,0.1-0.1,0.1-0.1,0.2c0-0.1-0.1-0.1-0.1-0.2l0,0C168.6,109.7,168.6,109.7,168.7,109.7L168.7,109.7z"/>
<path d="M151.9,110.4c0,0.1,0,0.1,0,0.2c0,0,0,0-0.1,0.1C151.9,110.6,151.9,110.5,151.9,110.4z"/>
<path d="M151.8,110.7c-0.1,0.1-0.2,0.1-0.3,0.2C151.7,110.8,151.7,110.7,151.8,110.7z"/>
<path d="M151.2,111.6c0.1-0.1,0.2-0.1,0.2-0.2l0,0C151.3,111.4,151.2,111.5,151.2,111.6L151.2,111.6z"/>
<path d="M150.9,111.8c0.1-0.1,0.2-0.2,0.2-0.2l0,0C151.1,111.6,151,111.7,150.9,111.8L150.9,111.8z"/>
<path d="M150.2,112.7c0.1-0.1,0.2-0.2,0.2-0.2l0,0C150.4,112.5,150.3,112.6,150.2,112.7L150.2,112.7z"/>
<path d="M150.2,112.7c-0.1,0.1-0.2,0.2-0.2,0.2l0,0C150.1,112.9,150.2,112.8,150.2,112.7L150.2,112.7z"/>
<path d="M131.1,118.2c-0.2,3-0.4,6-0.6,9.1C130.3,124.2,130.7,121.2,131.1,118.2z"/>
<path d="M129.9,117.7"/>
<path d="M128.6,118.9"/>
<path d="M127.2,117"/>
<path d="M210.7,147.9c-3.4,1.5-3.5,1.5-5.1,1.1C207.4,148.4,209.1,148.2,210.7,147.9z"/>
<path d="M204.6,148.5c2.1-0.5,4.1-1.1,6.2-1.3C208.7,147.7,206.7,148.3,204.6,148.5z"/>
<path class="st1" d="M176.5,236.5c0.2,0.2,0.4,0.4,0.5,0.6c0.1,0.1-0.1,0.3-0.1,0.5c-0.1-0.1-0.1-0.2-0.2-0.2l0,0
	c-0.1-0.1-0.2-0.2-0.3-0.3l0,0l-0.1-0.1l-0.1,0.1c-0.2-0.2-0.5-0.3-0.7-0.5c0-0.1,0-0.3,0-0.4c0.1,0,0.2,0,0.3,0
	c0.1,0.1,0.3,0.3,0.3,0.4c0-0.1,0.1-0.1,0.1-0.2C176.3,236.4,176.4,236.4,176.5,236.5z"/>
<path class="st1" d="M173,232.2c0-0.2,0-0.3,0-0.5c0.1,0.1,0.3,0.2,0.4,0.3c0.1,0.1,0.2,0.2,0.2,0.2c0.1,0.1,0.2,0.2,0.2,0.2
	c0.1,0.1,0.2,0.2,0.2,0.2c0,0.2,0,0.3,0,0.5c-0.2-0.1-0.3-0.2-0.5-0.2c-0.1-0.1-0.2-0.2-0.2-0.2c-0.1-0.1-0.1-0.2-0.2-0.2l0,0
	C173.2,232.4,173.1,232.3,173,232.2z"/>
<path class="st1" d="M178.2,237c-0.3-0.2-0.6-0.4-1-0.6c0-0.2,0-0.3,0-0.5c0.2,0.1,0.3,0.2,0.5,0.2c0.1,0.1,0.2,0.2,0.2,0.2
	c0.1,0.1,0.2,0.2,0.2,0.2C178.1,236.7,178.1,236.9,178.2,237z"/>
<path d="M181,236.6c0.2,0.1,0.3,0.2,0.5,0.2l0,0c0.1,0.1,0.2,0.2,0.3,0.3l0,0c0.1,0.1,0.2,0.2,0.3,0.3l0,0c0,0.2,0,0.3,0,0.5
	c-0.2-0.1-0.3-0.2-0.5-0.2l0,0c-0.1-0.1-0.2-0.2-0.3-0.3l0,0c-0.1-0.1-0.2-0.2-0.3-0.3l0,0C181,236.9,181,236.8,181,236.6L181,236.6
	z"/>
<path class="st1" d="M181.1,238.4c-0.2-0.1-0.3-0.1-0.5-0.2c-0.1-0.1-0.2-0.2-0.3-0.2l0,0c-0.1-0.1-0.2-0.2-0.3-0.3l0,0
	c0-0.2,0-0.3,0-0.5c0.1,0,0.2,0,0.2,0c0.1,0.1,0.2,0.2,0.2,0.2c0.1,0.1,0.2,0.2,0.2,0.2c0.1,0.1,0.2,0.2,0.2,0.2
	C181.1,238.1,181.1,238.3,181.1,238.4z"/>
<path d="M173.3,231.4c0-0.1,0-0.2,0.1-0.3c0.1,0,0.3,0.1,0.4,0.1l0,0c0.1,0.1,0.2,0.2,0.3,0.3l0,0c0,0.2,0,0.3,0,0.5
	c-0.2-0.1-0.3-0.2-0.5-0.3l0,0C173.4,231.5,173.3,231.4,173.3,231.4L173.3,231.4z"/>
<path d="M181.5,237.5c-0.1,0.2-0.2,0.3-0.2,0.5l0,0c-0.1-0.1-0.2-0.2-0.3-0.3l0,0c-0.1-0.1-0.2-0.2-0.3-0.3l0,0c0-0.2,0-0.3,0-0.5
	c0.1,0,0.2,0,0.3,0l0,0c0.1,0.1,0.2,0.2,0.3,0.3l0,0C181.3,237.4,181.4,237.5,181.5,237.5L181.5,237.5z"/>
<path class="st1" d="M182,237.8c0-0.2,0-0.3,0-0.5c0.1,0,0.2,0,0.3,0l0,0c0.1,0.1,0.2,0.2,0.3,0.3l0,0c0.1,0.1,0.2,0.2,0.3,0.3l0,0
	c0,0.2,0,0.3,0,0.5C182.4,238.1,182.2,237.9,182,237.8z"/>
<path d="M177.1,235.9c0,0.2,0,0.3,0,0.5c-0.2-0.2-0.5-0.3-0.7-0.5l0,0c0-0.2,0-0.3,0-0.5c0.2,0.1,0.3,0.2,0.5,0.3l0,0
	C177,235.8,177.1,235.9,177.1,235.9L177.1,235.9z"/>
<path d="M178.2,237c0-0.1-0.1-0.3-0.1-0.4l0,0c0.2,0.2,0.5,0.3,0.7,0.5l0,0c0,0.1,0,0.2-0.1,0.4C178.5,237.3,178.3,237.2,178.2,237z
	"/>
<path d="M176.2,236.4L176.2,236.4c-0.1-0.1-0.1-0.1-0.2-0.2l0,0c0-0.2,0-0.3,0-0.5c0.2,0.1,0.3,0.2,0.5,0.3l0,0
	C176.5,236.1,176.3,236.4,176.2,236.4z"/>
<path d="M173.3,233.6L173.3,233.6c0.1,0,0.1,0,0.2,0c0.1,0.1,0.2,0.6,0.2,0.7C173.7,234.3,173.4,233.9,173.3,233.6z"/>
<path d="M173.5,232c-0.1-0.1-0.3-0.2-0.4-0.3c0.1-0.1,0.1-0.3,0.2-0.4l0,0c0.1,0.1,0.2,0.2,0.3,0.3l0,0
	C173.5,231.7,173.5,231.9,173.5,232L173.5,232z"/>
<path d="M179.2,237.3c-0.2-0.1-0.3-0.2-0.5-0.2l0,0c0-0.2,0-0.3,0-0.5c0.1,0,0.2,0,0.3,0c0.1,0.1,0.2,0.2,0.2,0.2
	C179.2,237,179.2,237.1,179.2,237.3z"/>
<path class="st1" d="M179.2,237.3c0-0.2,0-0.3,0-0.5l0,0c0.1,0,0.2,0,0.2,0c0.1,0.1,0.2,0.2,0.2,0.2c0,0.2,0,0.3,0,0.5
	C179.5,237.5,179.4,237.4,179.2,237.3z"/>
<path d="M179.6,237.5c0-0.2,0-0.3,0-0.5l0,0c0.1,0,0.2,0,0.3,0l0,0c0.1,0.1,0.2,0.2,0.3,0.3l0,0c0,0.2,0,0.3,0,0.5
	C180,237.7,179.8,237.6,179.6,237.5z"/>
<path d="M173.1,233.2c0-0.2,0-0.4,0-0.5c0.1,0,0.2,0.1,0.3,0.1l0,0c0,0.2,0,0.3,0,0.5C173.2,233.2,173.1,233.2,173.1,233.2
	L173.1,233.2z"/>
<path d="M175.5,236.1c0,0.1,0,0.3,0,0.4c-0.1-0.1-0.1-0.3-0.2-0.4l0,0C175.4,236.2,175.5,236.2,175.5,236.1
	C175.6,236.2,175.5,236.1,175.5,236.1z"/>
<path d="M181.1,238.4c0-0.2,0-0.3,0-0.5l0,0c0.1,0,0.2,0,0.3,0l0,0C181.2,238.1,181.1,238.3,181.1,238.4z"/>
<path d="M183.3,238c0.1,0,0.2,0,0.3,0c0,0.2,0,0.3,0,0.5h-0.1h-0.1C183.3,238.3,183.3,238.1,183.3,238z"/>
<path d="M182.6,238.2c0-0.2,0-0.3,0-0.5c0.1,0,0.2,0,0.2,0c0,0.2,0,0.3,0,0.5C182.8,238.2,182.7,238.2,182.6,238.2z"/>
<path d="M174.6,235.5c-0.1-0.1-0.1-0.3-0.2-0.4l0,0c0.1,0,0.2,0,0.3,0C174.6,235.2,174.6,235.3,174.6,235.5L174.6,235.5z"/>
<path d="M173.3,233.6c-0.1-0.1-0.2-0.2-0.2-0.2l0,0c0.1,0,0.2,0,0.3,0C173.3,233.5,173.3,233.6,173.3,233.6
	C173.3,233.7,173.3,233.6,173.3,233.6z"/>
<path d="M174,234.5c-0.1-0.1-0.2-0.2-0.2-0.2l0,0c0.1,0,0.2,0,0.3,0C174,234.4,174,234.5,174,234.5L174,234.5z"/>
<path d="M174.2,234.8c-0.1-0.1-0.2-0.2-0.2-0.2l0,0c0.1,0,0.2,0,0.3,0C174.2,234.6,174.2,234.7,174.2,234.8L174.2,234.8z"/>
<path d="M174.4,235c-0.1-0.1-0.2-0.2-0.2-0.2l0,0c0.1,0,0.2,0,0.3,0C174.4,234.9,174.4,234.9,174.4,235L174.4,235z"/>
<path d="M174.9,235.7c-0.1-0.1-0.2-0.2-0.2-0.2l0,0C174.7,235.6,174.8,235.6,174.9,235.7L174.9,235.7z"/>
<path d="M175.1,235.9c-0.1-0.1-0.2-0.2-0.2-0.2l0,0c0.1,0,0.2,0,0.2,0C175.1,235.8,175.1,235.9,175.1,235.9L175.1,235.9z"/>
<path d="M175.3,236.1c-0.1-0.1-0.2-0.2-0.2-0.2l0,0c0.1,0,0.2,0,0.3,0C175.3,236,175.3,236.1,175.3,236.1L175.3,236.1z"/>
<path d="M173,232.2c0.1,0.1,0.2,0.2,0.2,0.3c-0.1,0-0.2,0.1-0.3,0.1C173,232.5,173,232.4,173,232.2z"/>
<path d="M176.2,237.1l0.1-0.1l0.1,0.1C176.4,237.1,176.3,237.1,176.2,237.1z"/>
<path d="M176.5,237.1c0.1,0.1,0.2,0.2,0.3,0.3C176.6,237.2,176.5,237.1,176.5,237.1z"/>
<path class="st1" d="M173,232.6c0.1,0,0.2-0.1,0.3-0.1l0,0c0,0.1,0,0.2,0,0.3C173.2,232.7,173.1,232.7,173,232.6L173,232.6z"/>
<path d="M176.7,237.3c0.1,0.1,0.1,0.2,0.2,0.2C176.8,237.4,176.8,237.4,176.7,237.3z"/>
<path d="M180.1,237.7c0.1,0.1,0.2,0.2,0.3,0.3C180.3,237.9,180.2,237.8,180.1,237.7z"/>
<path d="M180.3,238c0.1,0.1,0.2,0.2,0.3,0.2C180.5,238.1,180.4,238.1,180.3,238z"/>
<path d="M182.8,238.2c0.1,0.1,0.2,0.2,0.2,0.2S182.9,238.3,182.8,238.2z"/>
<path d="M183.5,238.4c0.1,0.1,0.2,0.2,0.3,0.3C183.7,238.6,183.6,238.5,183.5,238.4z"/>
<path d="M183.8,238.7c0.1,0.1,0.2,0.2,0.2,0.2C183.9,238.8,183.8,238.7,183.8,238.7z"/>
<path d="M173.1,233.4c-0.1,0-0.1-0.1-0.2-0.1c0.1,0,0.1-0.1,0.2-0.1l0,0C173,233.3,173,233.3,173.1,233.4L173.1,233.4z"/>
<path d="M179.7,235.7c0.2,0.1,0.3,0.2,0.5,0.2l0,0c0.1,0.1,0.2,0.2,0.3,0.3l0,0c0,0.2,0,0.3,0,0.5c-0.1,0-0.2,0-0.3,0l0,0
	c-0.1-0.1-0.2-0.2-0.3-0.3l0,0c-0.1-0.1-0.2-0.2-0.3-0.2C179.7,236,179.7,235.9,179.7,235.7L179.7,235.7z"/>
<path d="M179.2,235.3c0.1,0.1,0.2,0.1,0.2,0.2l0,0c-0.1,0-0.2,0-0.2,0C179.2,235.4,179.2,235.3,179.2,235.3L179.2,235.3z"/>
<path d="M179.4,235.5c0.1,0.1,0.2,0.2,0.2,0.2l0,0C179.6,235.6,179.5,235.5,179.4,235.5L179.4,235.5z"/>
<path class="st1" d="M177.1,233.9c0.1,0.1,0.2,0.2,0.2,0.2l0,0c-0.1,0-0.2,0-0.2,0C177.2,234,177.2,233.9,177.1,233.9L177.1,233.9z"
	/>
<path class="st1" d="M177.4,234.1c0.1,0.1,0.2,0.2,0.2,0.2l0,0C177.5,234.2,177.5,234.2,177.4,234.1L177.4,234.1z"/>
<path class="st1" d="M177.6,234.3c0.1,0.1,0.2,0.2,0.2,0.2l0,0C177.8,234.5,177.7,234.4,177.6,234.3L177.6,234.3z"/>
<path class="st1" d="M177.8,234.6c0.1,0,0.2,0,0.3,0l0,0c0,0.1,0,0.2,0,0.3C178,234.7,177.9,234.6,177.8,234.6
	C177.9,234.5,177.8,234.6,177.8,234.6z"/>
<path d="M175.3,232.1c0.1,0.1,0.2,0.2,0.2,0.2l0,0c-0.1,0-0.2,0-0.3,0C175.3,232.2,175.3,232.1,175.3,232.1
	C175.3,232,175.3,232.1,175.3,232.1z"/>
<path d="M175.5,232.3c0.1,0.1,0.2,0.2,0.2,0.2l0,0c-0.1,0-0.2,0-0.3,0C175.6,232.4,175.6,232.4,175.5,232.3L175.5,232.3z"/>
<path d="M176,232.5c0,0.1,0,0.2,0,0.2l0,0c-0.1,0-0.2,0-0.3,0c0-0.1,0-0.2,0-0.2l0,0C175.9,232.5,175.9,232.5,176,232.5z"/>
<path d="M181.7,236.4c0.1,0.1,0.2,0.2,0.2,0.2c0,0.2,0,0.3,0,0.5l0,0c-0.1,0-0.2,0-0.3,0l0,0c-0.1-0.1-0.2-0.2-0.3-0.3l0,0
	c0-0.2,0-0.3,0-0.5C181.6,236.4,181.6,236.4,181.7,236.4z"/>
<path d="M180.8,236.4c0.1,0.1,0.2,0.2,0.2,0.2l0,0C181,236.5,180.9,236.5,180.8,236.4L180.8,236.4z"/>
<path class="st1" d="M180.8,236.4c0.1,0.1,0.2,0.2,0.2,0.2c0,0.2,0,0.3,0,0.5c-0.1,0-0.2,0-0.3,0l0,0c-0.1-0.1-0.2-0.2-0.3-0.3l0,0
	c-0.1-0.1-0.2-0.2-0.3-0.3l0,0c0-0.2,0-0.3,0-0.5C180.5,236.2,180.7,236.3,180.8,236.4z"/>
<path class="st1" d="M180.4,236.2c-0.1-0.1-0.2-0.2-0.3-0.3C180.2,236,180.3,236.1,180.4,236.2z"/>
<path d="M174.2,231.4c0.1,0.1,0.2,0.2,0.2,0.2l0,0C174.3,231.5,174.3,231.4,174.2,231.4L174.2,231.4z"/>
<path d="M174.4,231.6c0.1,0.1,0.2,0.2,0.2,0.2l0,0C174.6,231.7,174.5,231.7,174.4,231.6L174.4,231.6z"/>
<path d="M174.6,231.8c0.1,0,0.2,0,0.2,0l0,0c0,0.1,0,0.2,0,0.3C174.8,232,174.7,231.9,174.6,231.8
	C174.7,231.8,174.6,231.8,174.6,231.8z"/>
<path class="st1" d="M178.5,234.8c0.1,0.1,0.2,0.2,0.2,0.2l0,0c-0.1,0-0.2,0-0.2,0C178.5,234.9,178.5,234.9,178.5,234.8L178.5,234.8
	z"/>
<path class="st1" d="M178.7,235c0.1,0.1,0.2,0.2,0.2,0.2l0,0C178.9,235.2,178.8,235.1,178.7,235L178.7,235z"/>
<path class="st1" d="M179.2,235.2c0,0.1,0,0.2,0,0.2l0,0c-0.1-0.1-0.2-0.2-0.2-0.2l0,0C179.1,235.2,179.1,235.2,179.2,235.2z"/>
<path d="M176.5,233c0.1,0.1,0.2,0.1,0.2,0.2c0,0.2,0,0.3,0,0.5l0,0c-0.1,0-0.2,0-0.3,0c-0.1-0.1-0.2-0.2-0.2-0.2
	c-0.1-0.1-0.2-0.2-0.2-0.2c0-0.2,0-0.3,0-0.5l0,0c0.1,0,0.2,0,0.2,0C176.3,232.8,176.4,232.9,176.5,233z"/>
<path d="M176.7,233.7c0.1,0.1,0.2,0.1,0.2,0.2l0,0c-0.1,0-0.2,0-0.2,0C176.7,233.8,176.7,233.7,176.7,233.7L176.7,233.7z"/>
<path d="M177.2,233.9c0,0.1,0,0.2,0,0.2l0,0c-0.1,0-0.2,0-0.3,0c0-0.1,0-0.2,0-0.2l0,0C177,233.9,177.1,233.9,177.2,233.9z"/>
<path class="st1" d="M174.9,232.1c0-0.1,0-0.2,0-0.3c0.1,0.1,0.2,0.2,0.2,0.3l0,0C175,232,174.9,232,174.9,232.1L174.9,232.1z"/>
<path class="st1" d="M175.3,232c0,0.1,0,0.2,0,0.2l0,0c-0.1,0-0.2,0-0.3,0l0,0c0-0.1,0-0.2,0-0.3l0,0
	C175.2,232.1,175.3,232,175.3,232z"/>
<path d="M178.1,234.8c0-0.1,0-0.2,0-0.3c0.1,0.1,0.2,0.2,0.2,0.2l0,0C178.2,234.8,178.1,234.8,178.1,234.8L178.1,234.8z"/>
<path d="M178.5,234.8c0,0.1,0,0.2,0,0.2l0,0c-0.1-0.1-0.2-0.2-0.2-0.2l0,0C178.4,234.8,178.5,234.8,178.5,234.8z"/>
<path class="st1" d="M174.7,231.8c0.1,0.1,0.2,0.2,0.2,0.3l0,0c0.1,0.1,0.2,0.2,0.3,0.3l0,0c0,0.2,0,0.3,0,0.5
	c-0.2-0.2-0.5-0.3-0.7-0.5l0,0c-0.1-0.1-0.2-0.2-0.3-0.3l0,0c-0.1-0.1-0.2-0.2-0.3-0.3l0,0c0-0.2,0-0.3,0-0.5c0.1,0,0.2,0,0.3,0
	c0.1,0.1,0.2,0.2,0.2,0.2C174.5,231.7,174.6,231.7,174.7,231.8z"/>
<path class="st1" d="M174,231.4c-0.1-0.1-0.2-0.2-0.3-0.3C173.8,231.2,173.9,231.3,174,231.4z"/>
<path d="M182.2,237.3c-0.1,0-0.2,0-0.3,0l0,0c0-0.1,0-0.2,0-0.3l0,0c0.1,0,0.2,0,0.3,0C182.2,237.1,182.2,237.2,182.2,237.3z"/>
<path class="st1" d="M168.7,109.7c-0.1,0-0.2,0-0.3,0c0-0.1,0-0.2,0-0.3C168.6,109.6,168.6,109.7,168.7,109.7z"/>
<path d="M182.4,237.5c-0.1-0.1-0.2-0.2-0.3-0.3c0.1,0,0.2,0,0.3,0C182.4,237.4,182.4,237.5,182.4,237.5z"/>
<path d="M182.6,237.8c-0.1-0.1-0.2-0.2-0.3-0.3c0.1,0,0.2,0,0.3,0C182.6,237.6,182.6,237.7,182.6,237.8z"/>
<path class="st1" d="M152.5,93.1c-0.3,0.1-0.7,0.4-1,0.4c-1.9,0.1-3.7,0.2-5.6,0.3c-0.1,0-0.2,0-0.3-0.1c0.4-0.6,0.8-1.3,1.2-2
	c1.6,0.1,3.3,0.1,4.8,1.1C151.9,92.9,152.3,93,152.5,93.1L152.5,93.1z"/>
<path class="st1" d="M140.4,91.8c0.6,0,1.2-0.1,1.6-0.1c1.3,0.9,1.3,0.9,2.5,0.3c0.4,0.1,0.9,0.2,1.4,0.4c-0.5,1.2-0.9,1.4-2,1.3
	c-0.4,0-0.9-0.1-1.4-0.1C141.4,93.6,140.8,93,140.4,91.8z"/>
<path class="st1" d="M139.7,91.4c0.3,0.7,0.6,1.2,0.9,1.9c-1.6-0.3-3-0.7-4.5-1.5C137.4,91.2,138.6,91.5,139.7,91.4z"/>
<path class="st1" d="M155.7,106.3L155.7,106.3h-0.1c0-0.1,0-0.3-0.1-0.4l0,0c0.1,0,0.2,0,0.3,0l0,0
	C155.7,106,155.7,106.1,155.7,106.3z"/>
<path class="st1" d="M156.2,105.4c0-0.2,0-0.3,0-0.5c0.1,0,0.2,0,0.2,0C156.3,105.1,156.2,105.2,156.2,105.4z"/>
<path class="st1" d="M156.1,104.7c0.1-0.1,0.2-0.2,0.3-0.3c0,0.1,0,0.2,0,0.2C156.3,104.7,156.2,104.7,156.1,104.7z"/>
<path d="M156.1,104.7c0.1,0,0.2,0,0.2,0c0,0.1,0,0.2,0,0.2c-0.1,0-0.2,0-0.2,0l0,0C156.2,104.9,156.2,104.8,156.1,104.7L156.1,104.7
	z"/>
<path class="st1" d="M155.9,105.6c0.1-0.1,0.2-0.2,0.3-0.3C156.1,105.5,156,105.5,155.9,105.6z"/>
<path class="st1" d="M155.7,105.6c0.1,0,0.2,0,0.3,0c-0.1,0.1-0.2,0.2-0.3,0.2l0,0C155.7,105.8,155.7,105.7,155.7,105.6L155.7,105.6
	z"/>
<path d="M155.5,105.8c0,0.1,0,0.3,0.1,0.4c-0.2,0.1-0.4,0.2-0.6,0.3c0-0.2,0-0.3,0.1-0.5l0,0C155.2,105.9,155.3,105.8,155.5,105.8
	L155.5,105.8C155.3,105.8,155.4,105.8,155.5,105.8z"/>
<path class="st1" d="M150.5,102.5c0.1-0.1,0.2-0.1,0.2-0.2c0.1,0,0.3-0.1,0.4-0.1c-0.2,0.2-0.3,0.4-0.5,0.6l0,0
	c-0.1,0.1-0.2,0.2-0.3,0.2s-0.2,0-0.3,0C150.2,102.9,150.3,102.7,150.5,102.5z"/>
<path d="M150.3,103.1c0.1-0.1,0.2-0.2,0.3-0.2C150.6,102.9,150.4,103,150.3,103.1z"/>
<path class="st1" d="M156.2,104.7c0,0.1,0,0.2,0,0.3c-0.1,0-0.2,0-0.3,0l0,0C156,104.8,156.1,104.8,156.2,104.7z"/>
<path class="st1" d="M155.9,104.9L155.9,104.9C155.9,105,155.9,105,155.9,104.9L155.9,104.9z"/>
<path class="st1" d="M155.5,105.6c0-0.1,0.1-0.1,0.1-0.2c0,0.1,0.1,0.1,0.1,0.2l0,0C155.6,105.6,155.5,105.6,155.5,105.6
	L155.5,105.6z"/>
<path class="st1" d="M155.5,105.8c-0.1,0-0.2,0-0.3,0c0.1-0.1,0.2-0.2,0.3-0.2l0,0C155.5,105.7,155.5,105.8,155.5,105.8L155.5,105.8
	z"/>
<path class="st1" d="M155.3,105.8c-0.1,0.1-0.2,0.2-0.3,0.3C155.1,106,155.2,105.9,155.3,105.8z"/>
<path class="st1" d="M151.8,101.5c0.1-0.1,0.2-0.2,0.3-0.3C152,101.4,151.9,101.4,151.8,101.5z"/>
<path class="st1" d="M151.6,101.8c0.1-0.1,0.2-0.2,0.3-0.3C151.8,101.6,151.7,101.7,151.6,101.8z"/>
<path class="st1" d="M151.4,102c0.1-0.1,0.2-0.2,0.3-0.3C151.5,101.8,151.4,101.9,151.4,102z"/>
<path class="st1" d="M151.1,102.2c0.1-0.1,0.2-0.2,0.3-0.3C151.3,102,151.2,102.1,151.1,102.2z"/>
<path d="M175.8,236.1c-0.1,0-0.2,0-0.2,0c0-0.1,0-0.2,0-0.3C175.6,236,175.7,236.1,175.8,236.1L175.8,236.1z"/>
<path d="M176,236.4c-0.1-0.1-0.2-0.2-0.2-0.2l0,0c0.1,0,0.2,0,0.3,0l0,0C176,236.2,176,236.3,176,236.4L176,236.4z"/>
<path d="M176.2,236.4c0,0.1-0.1,0.1-0.1,0.2c0-0.1-0.1-0.1-0.1-0.2l0,0C176.1,236.4,176.2,236.4,176.2,236.4L176.2,236.4z"/>
<path d="M173.7,233c0.2,0.1,0.3,0.2,0.5,0.2l0,0c0.1,0.1,0.2,0.2,0.3,0.3l0,0c0,0.2,0,0.3,0,0.5c-0.1,0-0.2,0-0.3,0
	c-0.1-0.1-0.2-0.2-0.2-0.2c-0.1-0.1-0.2-0.2-0.2-0.2C173.7,233.3,173.7,233.1,173.7,233L173.7,233z"/>
<path d="M174.2,233.2c0-0.2,0-0.3,0-0.5l0,0c0.1,0,0.2,0,0.2,0l0,0c0.1,0.1,0.2,0.2,0.3,0.3l0,0c0.1,0.1,0.2,0.2,0.3,0.3l0,0
	c0,0.2,0,0.3,0,0.5c-0.2-0.1-0.3-0.2-0.5-0.3l0,0C174.3,233.3,174.3,233.3,174.2,233.2L174.2,233.2z"/>
<path d="M173.7,232.3c-0.1-0.1-0.2-0.2-0.2-0.2l0,0C173.6,232.1,173.6,232.2,173.7,232.3L173.7,232.3z"/>
<path d="M174,232.5c-0.1-0.1-0.2-0.2-0.2-0.2l0,0C173.8,232.4,173.9,232.4,174,232.5L174,232.5z"/>
<path d="M173.3,232.7c0-0.1,0-0.2,0-0.3c0.1,0.1,0.1,0.2,0.2,0.2l0,0C173.4,232.7,173.3,232.7,173.3,232.7L173.3,232.7z"/>
<path d="M174.2,232.7c-0.1-0.1-0.2-0.2-0.2-0.2l0,0C174,232.6,174.1,232.7,174.2,232.7L174.2,232.7z"/>
<path d="M173.5,232.7c0.1,0.1,0.2,0.2,0.2,0.2l0,0C173.7,232.9,173.6,232.8,173.5,232.7L173.5,232.7z"/>
<path d="M177.6,236.1c-0.2-0.1-0.3-0.2-0.5-0.2l0,0c-0.1-0.1-0.2-0.2-0.2-0.2c0-0.2,0-0.3,0-0.5C177.1,235.3,177.6,236,177.6,236.1
	L177.6,236.1z"/>
<path d="M177.8,236.4c-0.1-0.1-0.2-0.2-0.2-0.2l0,0C177.7,236.2,177.8,236.3,177.8,236.4L177.8,236.4z"/>
<path d="M178.1,236.6c-0.1-0.1-0.2-0.2-0.2-0.2l0,0C177.9,236.5,178,236.5,178.1,236.6L178.1,236.6z"/>
<path class="st1" d="M181.5,236.8c0.1,0.1,0.2,0.2,0.3,0.3C181.6,237,181.6,236.9,181.5,236.8z"/>
<path class="st1" d="M181.3,237.3c-0.1-0.1-0.2-0.2-0.3-0.3C181.1,237.1,181.2,237.2,181.3,237.3z"/>
<path class="st1" d="M182,237.1c0,0.1,0,0.2,0,0.3c-0.1-0.1-0.2-0.2-0.3-0.3C181.8,237.1,181.9,237.1,182,237.1z"/>
<path class="st1" d="M181.5,237.5c-0.1-0.1-0.2-0.2-0.3-0.3C181.3,237.4,181.4,237.5,181.5,237.5z"/>
<path d="M180.4,237.3c-0.1,0-0.2,0-0.2,0l0,0c-0.1-0.1-0.2-0.2-0.3-0.3l0,0c-0.1-0.1-0.2-0.2-0.3-0.3l0,0c0-0.2,0-0.3,0-0.5
	c0.1,0,0.2,0,0.3,0l0,0c0.1,0.1,0.2,0.2,0.3,0.3l0,0c0.1,0.1,0.2,0.2,0.3,0.2C180.4,237,180.3,237.1,180.4,237.3L180.4,237.3z"/>
<path d="M180.6,237.5c-0.1-0.1-0.2-0.2-0.2-0.2l0,0C180.4,237.4,180.5,237.5,180.6,237.5L180.6,237.5z"/>
<path d="M180.8,237.7c-0.1-0.1-0.2-0.2-0.2-0.2l0,0c0.1,0,0.2,0,0.3,0l0,0C180.8,237.6,180.8,237.7,180.8,237.7
	C180.8,237.8,180.8,237.7,180.8,237.7z"/>
<path d="M181.1,238c-0.1-0.1-0.2-0.2-0.2-0.2l0,0c0.1,0,0.2,0,0.3,0l0,0C181,237.8,181,237.9,181.1,238L181.1,238z"/>
<path class="st1" d="M174.2,232.7c-0.1-0.1-0.2-0.2-0.2-0.2c-0.1-0.1-0.2-0.2-0.2-0.2c-0.1-0.1-0.2-0.2-0.2-0.2c0-0.2,0-0.3,0-0.5
	c0.2,0.1,0.3,0.2,0.5,0.3l0,0c0.1,0.1,0.2,0.2,0.3,0.3l0,0c0.1,0.1,0.2,0.2,0.3,0.3l0,0c0,0.2,0,0.3,0,0.5
	C174.3,232.7,174.3,232.7,174.2,232.7z"/>
<path class="st1" d="M173.5,231.6c-0.1-0.1-0.2-0.2-0.3-0.3C173.3,231.4,173.4,231.5,173.5,231.6z"/>
<path class="st1" d="M180.8,237.5c-0.1,0-0.2,0-0.3,0c-0.1-0.1-0.2-0.2-0.2-0.2c0-0.2,0-0.3,0-0.5l0,0c0.1,0,0.2,0,0.3,0l0,0
	c0.1,0.1,0.2,0.2,0.3,0.3l0,0C180.8,237.2,180.8,237.4,180.8,237.5z"/>
<path class="st1" d="M181,237.8c-0.1,0-0.2,0-0.3,0c0-0.1,0-0.2,0-0.3C180.9,237.6,181,237.7,181,237.8z"/>
<path class="st1" d="M181,238c0-0.1,0-0.2,0-0.3c0.1,0.1,0.2,0.2,0.3,0.3C181.2,238,181.1,238,181,238z"/>
<path class="st1" d="M176,235.7L176,235.7c-0.1-0.1-0.1-0.1-0.2-0.2l0,0c-0.1-0.1-0.2-0.2-0.3-0.2c0-0.2,0-0.3,0-0.5
	c0.2,0.2,0.5,0.3,0.7,0.5l0,0c0.1,0.1,0.2,0.2,0.3,0.3l0,0C176.5,235.6,176.2,235.8,176,235.7z"/>
<path class="st1" d="M176.9,235.2c0,0.2-0.3,0.3-0.5,0.2l0,0c-0.1-0.1-0.2-0.2-0.3-0.3l0,0c0-0.2,0-0.3,0-0.5c0.1,0,0.2,0,0.3,0l0,0
	c0.1,0.1,0.2,0.2,0.3,0.3l0,0C176.8,235.1,176.9,235.2,176.9,235.2L176.9,235.2z"/>
<path class="st1" d="M177.2,235.9"/>
<path class="st1" d="M178.1,236.6c-0.1-0.1-0.2-0.2-0.2-0.2c-0.1-0.1-0.2-0.2-0.2-0.2c0-0.2,0-0.5,0-0.5c0.2,0.1,0.3,0.1,0.5,0.2
	c0.1,0.1,0.2,0.2,0.2,0.2c0.1,0.1,0.2,0.2,0.2,0.2c0.1,0.1,0.2,0.2,0.2,0.2l0,0c0,0.2,0,0.3,0,0.5
	C178.5,236.9,178.3,236.8,178.1,236.6z"/>
<path class="st1" d="M176,236.2c-0.1,0-0.2,0-0.3,0c-0.1-0.1-0.2-0.2-0.2-0.3l0,0c0-0.2,0-0.3,0-0.5c0.1,0,0.2,0,0.3,0l0,0
	c0.1,0.1,0.2,0.2,0.3,0.3l0,0C176,235.8,176,236,176,236.2z"/>
<path class="st1" d="M176,236.4c0-0.1,0-0.2,0-0.3C176.1,236.2,176.1,236.4,176,236.4z"/>
<path class="st1" d="M174,234.3c-0.1,0-0.2,0-0.3,0c0-0.2,0-0.3,0-0.5l0,0c0.1,0,0.2,0,0.3,0l0,0C173.9,234,173.9,234.2,174,234.3
	L174,234.3z"/>
<path class="st1" d="M173.3,233.7c0-0.1,0-0.2,0-0.3l0,0c0.1,0,0.2,0,0.3,0l0,0c0,0.1,0,0.2,0,0.3l0,0
	C173.4,233.6,173.3,233.7,173.3,233.7z"/>
<path class="st1" d="M173.7,233.9c-0.1-0.1-0.2-0.2-0.2-0.2l0,0c0.1,0,0.2,0,0.3,0l0,0C173.7,233.7,173.7,233.8,173.7,233.9
	L173.7,233.9z"/>
<path class="st1" d="M179,236.6c-0.1,0-0.2,0-0.3,0l0,0c0-0.1,0-0.2,0-0.3C178.8,236.5,178.9,236.5,179,236.6L179,236.6z"/>
<path class="st1" d="M179.2,236.8c-0.1-0.1-0.2-0.2-0.2-0.2l0,0c0.1,0,0.2,0,0.3,0l0,0C179.2,236.7,179.2,236.8,179.2,236.8
	L179.2,236.8z"/>
<path d="M179.2,236.9c0-0.1,0-0.2,0-0.3c0.1,0.1,0.2,0.2,0.2,0.3l0,0C179.4,236.8,179.3,236.8,179.2,236.9z"/>
<path d="M179.7,237.1c-0.1-0.1-0.2-0.2-0.2-0.2l0,0c0.1,0,0.2,0,0.2,0l0,0C179.7,236.9,179.7,237,179.7,237.1L179.7,237.1z"/>
<path class="st1" d="M179.7,237.1c0-0.1,0-0.2,0-0.3c0.1,0.1,0.2,0.2,0.3,0.3C179.8,237.1,179.7,237.1,179.7,237.1z"/>
<path class="st1" d="M179.9,237.1c0.1,0.1,0.2,0.2,0.3,0.3C180.1,237.2,180,237.1,179.9,237.1z"/>
<path class="st1" d="M173.5,232.7c0.1,0.1,0.2,0.2,0.2,0.2c0,0.2,0,0.3,0,0.5l0,0c-0.1,0-0.2,0-0.2,0l0,0c-0.1-0.1-0.2-0.2-0.3-0.3
	l0,0c0-0.2,0-0.3,0-0.5C173.3,232.7,173.4,232.7,173.5,232.7z"/>
<path class="st1" d="M173,233.4c0-0.1,0-0.2,0-0.3c0.1,0,0.2,0,0.3,0l0,0c0,0.1,0,0.2,0,0.3l0,0C173.2,233.4,173.1,233.4,173,233.4z
	"/>
<path class="st1" d="M175.6,236.2c-0.1,0-0.2,0-0.3,0c0-0.1,0-0.2,0-0.2l0,0c0.1,0,0.2,0,0.2,0C175.6,235.9,175.6,236.1,175.6,236.2
	z"/>
<path class="st1" d="M175.1,235.7c-0.1,0-0.2,0-0.2,0c-0.1-0.1-0.2-0.2-0.2-0.2c0-0.2,0-0.3,0-0.5l0,0c0.1,0,0.2,0,0.2,0
	c0.1,0.1,0.2,0.2,0.2,0.2C175.1,235.4,175.1,235.6,175.1,235.7L175.1,235.7z"/>
<path class="st1" d="M174.4,235c0-0.1,0-0.2,0-0.3l0,0c0.1,0,0.2,0,0.3,0c0,0.1,0,0.2,0,0.3l0,0C174.6,235,174.5,235,174.4,235z"/>
<path class="st1" d="M174.2,234.5C174.1,234.6,174.1,234.5,174.2,234.5L174.2,234.5z"/>
<path class="st1" d="M174.4,234.8c-0.1,0-0.1-0.2,0-0.2C174.4,234.6,174.4,234.7,174.4,234.8L174.4,234.8z"/>
<path class="st1" d="M175.1,235.9c0-0.1,0-0.2,0-0.2c0.1,0.1,0.2,0.2,0.2,0.2S175.2,235.9,175.1,235.9z"/>
<path class="st1" d="M179.4,235.5c0.1,0.1,0.2,0.2,0.2,0.2c0,0.2,0,0.3,0,0.5l0,0c-0.1,0-0.2,0-0.3,0l0,0c-0.1-0.1-0.2-0.2-0.3-0.2
	c0-0.2,0-0.3,0-0.5l0,0C179.3,235.5,179.4,235.5,179.4,235.5z"/>
<path class="st1" d="M179.9,236.4c-0.1,0-0.2,0-0.3,0l0,0c0-0.1,0-0.2,0-0.3l0,0C179.7,236.2,179.8,236.3,179.9,236.4z"/>
<path class="st1" d="M180.1,236.6c-0.1-0.1-0.2-0.2-0.3-0.3C180,236.5,180.1,236.5,180.1,236.6z"/>
<path class="st1" d="M180.4,236.8c-0.1-0.1-0.2-0.2-0.3-0.2c0.1,0,0.2,0,0.3,0l0,0C180.3,236.7,180.3,236.8,180.4,236.8L180.4,236.8
	z"/>
<path d="M177.9,234.5c0.1,0.1,0.2,0.2,0.2,0.3l0,0c0,0.2,0,0.3,0,0.5c-0.1,0-0.2,0-0.3,0l0,0c-0.1-0.1-0.7-1-0.7-1.2l0,0
	c0.1,0,0.2,0,0.2,0c0.1,0.1,0.2,0.2,0.2,0.2C177.7,234.4,177.8,234.5,177.9,234.5z"/>
<path class="st1" d="M175.6,232.3c0,0.1,0,0.2,0,0.2l0,0c-0.1-0.1-0.2-0.2-0.2-0.2l0,0C175.4,232.3,175.5,232.3,175.6,232.3z"/>
<path class="st1" d="M175.8,232.5c0,0.1,0,0.2,0,0.2l0,0c-0.1-0.1-0.2-0.2-0.2-0.2l0,0C175.6,232.5,175.7,232.5,175.8,232.5z"/>
<path class="st1" d="M176,232.7c0,0.2,0,0.3,0,0.5l0,0c-0.1,0-0.2,0-0.2,0c0-0.2,0-0.3,0-0.5l0,0C175.9,232.7,175.9,232.7,176,232.7
	z"/>
<path d="M180.8,237.1c-0.1-0.1-0.2-0.2-0.3-0.3C180.7,236.9,180.7,237,180.8,237.1z"/>
<path d="M180.3,236.9c0-0.1,0-0.2,0-0.3c0.1,0.1,0.2,0.2,0.3,0.3C180.5,236.9,180.4,236.9,180.3,236.9z"/>
<path d="M179.2,235.5c0,0.2,0,0.3,0,0.5l0,0c-0.1,0-0.2,0-0.3,0l0,0c-0.1-0.1-0.2-0.2-0.3-0.3l0,0c-0.1-0.1-0.2-0.2-0.3-0.2
	c0-0.2,0-0.3,0-0.5l0,0c0.1,0,0.2,0,0.2,0c0.1,0.1,0.2,0.2,0.2,0.2C179.1,235.3,179.1,235.4,179.2,235.5z"/>
<path class="st1" d="M176,233.2c0.1,0.1,0.2,0.2,0.2,0.2l0,0c-0.1,0-0.2,0-0.2,0C176,233.3,176,233.3,176,233.2L176,233.2z"/>
<path class="st1" d="M176.2,233.4c0.1,0.1,0.2,0.2,0.2,0.2l0,0c-0.1,0-0.2,0-0.2,0C176.2,233.6,176.2,233.5,176.2,233.4L176.2,233.4
	z"/>
<path class="st1" d="M176.7,233.6c0,0.1,0,0.2,0,0.2l0,0c-0.1-0.1-0.2-0.2-0.2-0.2l0,0C176.5,233.7,176.6,233.6,176.7,233.6z"/>
<path class="st1" d="M176.9,233.9c0,0.1,0,0.2,0,0.2l0,0c-0.1-0.1-0.2-0.2-0.2-0.2l0,0C176.8,233.9,176.8,233.9,176.9,233.9z"/>
<path class="st1" d="M177.2,234.1c0,0.2,0,0.3,0,0.5l0,0c-0.1,0-0.2,0-0.2,0c0-0.2,0-0.3,0-0.5l0,0
	C177,234.1,177.1,234.1,177.2,234.1z"/>
<path d="M175.1,232.3c-0.1-0.1-0.2-0.2-0.3-0.3c0.1,0,0.2,0,0.3,0C175.1,232.1,175.1,232.2,175.1,232.3z"/>
<path d="M175.8,232.7c0,0.2,0,0.3,0,0.5l0,0c-0.2-0.1-0.3-0.2-0.5-0.2l0,0c-0.1-0.1-0.2-0.2-0.3-0.3l0,0c0-0.2,0-0.3,0-0.5
	c0.1,0,0.2,0,0.3,0c0.1,0.1,0.2,0.2,0.2,0.2C175.6,232.6,175.7,232.6,175.8,232.7z"/>
<path class="st1" d="M178.5,235c0,0.2,0,0.3,0,0.5l0,0c-0.1,0-0.2,0-0.2,0c-0.1-0.1-0.2-0.2-0.2-0.3l0,0c0-0.2,0-0.3,0-0.5
	c0.1,0,0.2,0,0.2,0C178.4,234.9,178.5,234.9,178.5,235z"/>
<path d="M174.4,232.7c0-0.2,0-0.3,0-0.5c0.2,0.2,0.5,0.3,0.7,0.5l0,0c0.1,0.1,0.2,0.2,0.3,0.3l0,0c0,0.2,0,0.3,0,0.5
	c-0.2-0.1-0.3-0.2-0.5-0.3l0,0c-0.1-0.1-0.2-0.2-0.3-0.3l0,0C174.6,232.9,174.5,232.8,174.4,232.7L174.4,232.7z"/>
<path d="M174.2,232.1c-0.1-0.1-0.2-0.2-0.3-0.3C174,231.9,174.1,232,174.2,232.1z"/>
<path d="M174.4,232.3c-0.1-0.1-0.2-0.2-0.3-0.3C174.3,232.1,174.3,232.2,174.4,232.3z"/>
<path d="M155.5,105.9c0-0.1,0-0.2,0-0.3c0.1,0,0.2,0,0.3,0c0,0.1,0,0.2,0,0.3C155.6,105.9,155.5,105.9,155.5,105.9z"/>
<path class="st1" d="M174.4,233.4c0.2,0.1,0.3,0.2,0.5,0.3l0,0c0.1,0.1,0.2,0.2,0.3,0.3l0,0c0.1,0.1,0.2,0.2,0.3,0.3l0,0
	c0,0.2,0,0.3,0,0.5c-0.2-0.1-0.3-0.2-0.5-0.2c-0.1-0.1-0.2-0.2-0.2-0.2c-0.1-0.1-0.2-0.2-0.2-0.2l0,0
	C174.4,233.7,174.4,233.6,174.4,233.4z"/>
<path class="st1" d="M174.2,233.2c0.1,0.1,0.2,0.2,0.3,0.3C174.3,233.3,174.3,233.3,174.2,233.2z"/>
<path class="st1" d="M173.7,233.4c0.1,0.1,0.2,0.2,0.2,0.2l0,0c-0.1,0-0.2,0-0.2,0l0,0C173.7,233.6,173.7,233.5,173.7,233.4
	L173.7,233.4z"/>
<path class="st1" d="M174,233.7c0.1,0.1,0.2,0.2,0.2,0.2l0,0c-0.1,0-0.2,0-0.2,0l0,0C174,233.8,174,233.7,174,233.7L174,233.7z"/>
<path class="st1" d="M174.2,233.9c0.1,0,0.2,0,0.3,0l0,0c0,0.1,0,0.2,0,0.3C174.4,234,174.3,233.9,174.2,233.9L174.2,233.9z"/>
<path class="st1" d="M174.9,233.2c0.2,0.1,0.3,0.2,0.5,0.3l0,0c0.1,0.1,0.2,0.2,0.3,0.3l0,0c0.1,0.1,0.2,0.2,0.3,0.3l0,0
	c0,0.2,0,0.3,0,0.5c-0.2-0.1-0.3-0.2-0.5-0.3l0,0c-0.1-0.1-0.2-0.2-0.3-0.3l0,0c-0.1-0.1-0.2-0.2-0.3-0.3l0,0
	C174.9,233.5,174.9,233.3,174.9,233.2z"/>
<path class="st1" d="M174.4,232.7c0.1,0.1,0.2,0.2,0.3,0.3C174.6,232.9,174.5,232.8,174.4,232.7z"/>
<path class="st1" d="M174.6,232.9c0.1,0.1,0.2,0.2,0.3,0.3C174.8,233.1,174.7,233,174.6,232.9z"/>
<path class="st1" d="M176.9,235.2C176.9,235.2,176.9,235.3,176.9,235.2c-0.1-0.1-0.1-0.1-0.2-0.2l0,0c-0.1-0.1-0.2-0.2-0.3-0.3l0,0
	c0-0.2,0-0.3,0-0.5c0.2,0.1,0.5,0.2,0.5,0.2C177,234.6,177.1,235.3,176.9,235.2z"/>
<path class="st1" d="M179.7,236.9c-0.1,0-0.2,0-0.2,0c-0.1-0.1-0.2-0.2-0.2-0.3l0,0c0-0.2,0-0.3,0-0.5c0.1,0,0.2,0,0.3,0l0,0
	c0.1,0.1,0.2,0.2,0.3,0.3l0,0C179.7,236.5,179.7,236.7,179.7,236.9z"/>
<path d="M175.3,234.1c0.2,0.1,0.3,0.2,0.5,0.3l0,0c0.1,0.1,0.2,0.2,0.3,0.3l0,0c0.1,0.1,0.2,0.2,0.3,0.3l0,0c0,0.2,0,0.3,0,0.5
	c-0.2-0.2-0.5-0.3-0.7-0.5l0,0c-0.1-0.1-0.2-0.2-0.3-0.3l0,0C175.3,234.4,175.3,234.2,175.3,234.1z"/>
<path d="M174.9,234.3c0.2,0.1,0.3,0.2,0.5,0.2l0,0c0.1,0.1,0.2,0.2,0.3,0.3l0,0c0,0.2,0,0.3,0,0.5l0,0c-0.1,0-0.2,0-0.3,0l0,0
	c-0.1-0.1-0.2-0.2-0.3-0.3l0,0c-0.1-0.1-0.2-0.2-0.3-0.3l0,0C174.9,234.6,174.9,234.5,174.9,234.3L174.9,234.3z"/>
<path d="M175.8,235.5c-0.1,0-0.2,0-0.3,0l0,0c0-0.1,0-0.2,0-0.3l0,0C175.6,235.3,175.7,235.4,175.8,235.5z"/>
<path d="M176.2,235.2c0.1,0.1,0.2,0.2,0.3,0.3C176.4,235.4,176.3,235.3,176.2,235.2z"/>
<path d="M176,235.7c-0.1-0.1-0.2-0.2-0.3-0.3C175.9,235.5,175.9,235.6,176,235.7z"/>
<path d="M176.5,234.3c0,0.2,0,0.3,0,0.5c-0.1,0-0.2,0-0.3,0l0,0c-0.1-0.1-0.2-0.2-0.3-0.3l0,0c-0.1-0.1-0.2-0.2-0.3-0.3l0,0
	c0-0.2,0-0.3,0-0.5c0.2,0.1,0.3,0.2,0.5,0.3l0,0C176.3,234.2,176.4,234.3,176.5,234.3L176.5,234.3z"/>
<path d="M176.5,234.8c0.1,0.1,0.2,0.2,0.3,0.3C176.6,234.9,176.5,234.9,176.5,234.8z"/>
<path d="M176.7,235c0.1,0.1,0.2,0.2,0.3,0.3C176.9,235.2,176.8,235.1,176.7,235z"/>
<path d="M177.6,235L177.6,235c0.1,0.1,0.1,0.1,0.2,0.2l0,0c0.1,0.1,0.2,0.2,0.3,0.2l0,0c0,0.2,0,0.3,0,0.5l0,0
	C177.9,235.8,177.5,235,177.6,235z"/>
<path d="M178.3,236.1c-0.1-0.1-0.2-0.2-0.2-0.2l0,0C178.1,236,178.2,236.1,178.3,236.1L178.3,236.1z"/>
<path d="M178.5,236.4c-0.1-0.1-0.2-0.2-0.2-0.2l0,0c0.1,0,0.2,0,0.2,0l0,0C178.5,236.2,178.5,236.3,178.5,236.4L178.5,236.4z"/>
<path d="M178.7,236.4c0,0.1,0,0.2,0,0.3c-0.1-0.1-0.2-0.2-0.2-0.2l0,0C178.6,236.4,178.7,236.4,178.7,236.4L178.7,236.4z"/>
<path d="M175.3,235.9c-0.1-0.1-0.2-0.5-0.2-0.7l0,0c0.1,0,0.2,0,0.3,0l0,0c0.1,0.1,0.2,0.2,0.3,0.3l0,0c0,0.2,0,0.3,0,0.5
	C175.5,235.9,175.4,235.9,175.3,235.9z"/>
<path d="M174.2,233.9c0.1,0.1,0.2,0.2,0.2,0.3l0,0c0,0.2,0,0.3,0,0.5l0,0c-0.1,0-0.5-0.5-0.5-0.7C174,233.9,174.1,233.9,174.2,233.9
	z"/>
<path d="M174,233.6c0,0.1,0,0.2,0,0.2c-0.1,0-0.2,0-0.3,0c0-0.1,0-0.2,0-0.3C173.8,233.6,173.9,233.6,174,233.6z"/>
<path d="M173.7,233.4c0,0.1,0,0.2,0,0.2c-0.1,0-0.2,0-0.3,0c0-0.1,0-0.2,0-0.3C173.6,233.4,173.7,233.4,173.7,233.4z"/>
<path d="M173.3,233.4c0-0.1,0-0.2,0-0.3c0.1,0.1,0.2,0.2,0.3,0.3C173.4,233.4,173.3,233.4,173.3,233.4z"/>
<path d="M179.2,236.1c0,0.2,0,0.3,0,0.5c-0.1,0-0.2,0-0.3,0c-0.1-0.1-0.2-0.2-0.2-0.3l0,0c-0.1-0.1-0.2-0.2-0.3-0.3l0,0
	c0-0.2,0-0.3,0-0.5l0,0c0.1,0,0.2,0,0.3,0l0,0c0.1,0.1,0.2,0.2,0.3,0.3l0,0C179.1,236,179.1,236.1,179.2,236.1L179.2,236.1z"/>
<path d="M174.6,235c0-0.1,0-0.2,0-0.3l0,0c0.1,0,0.2,0,0.2,0l0,0c0,0.1,0,0.2,0,0.3l0,0C174.8,235,174.7,235,174.6,235z"/>
<path d="M175.1,235.2c-0.1-0.1-0.2-0.2-0.2-0.2l0,0c0.1,0,0.2,0,0.3,0l0,0C175.1,235.1,175.1,235.2,175.1,235.2L175.1,235.2z"/>
<path d="M174.4,234.8c0-0.1,0-0.2,0-0.3l0,0c0.1,0.1,0.2,0.2,0.2,0.2l0,0C174.6,234.8,174.5,234.8,174.4,234.8z"/>
<path d="M179.5,236.2c-0.1,0-0.2,0-0.3,0l0,0c0-0.1,0-0.2,0-0.3l0,0C179.3,236,179.4,236.1,179.5,236.2z"/>
<path d="M179.7,236.4c-0.1-0.1-0.2-0.2-0.3-0.3c0.1,0,0.2,0,0.3,0C179.7,236.2,179.7,236.3,179.7,236.4z"/>
<path class="st1" d="M177.4,234.8L177.4,234.8c-0.1,0-0.2,0-0.2,0C177.2,234.7,177.3,234.7,177.4,234.8z"/>
<path class="st1" d="M177.4,235L177.4,235c0-0.1,0-0.1,0-0.2l0,0C177.5,234.9,177.5,235,177.4,235z"/>
<path class="st1" d="M178.1,235.5c-0.1-0.1-0.1-0.2,0-0.2l0,0C178.1,235.3,178.1,235.4,178.1,235.5z"/>
<path d="M176,233.2c0,0.1,0,0.2,0,0.2l0,0c-0.1-0.1-0.2-0.2-0.2-0.2l0,0C175.9,233.2,175.9,233.2,176,233.2z"/>
<path class="st1" d="M178.8,235.7c-0.1,0-0.2,0-0.2,0c0-0.1,0-0.2,0-0.2l0,0C178.6,235.6,178.7,235.6,178.8,235.7z"/>
<path class="st1" d="M179,235.9c-0.1-0.1-0.2-0.2-0.3-0.3C178.8,235.8,178.9,235.9,179,235.9z"/>
<path d="M176.3,233.4c0,0.1,0,0.2,0,0.2l0,0c-0.1-0.1-0.2-0.1-0.2-0.2l0,0C176.1,233.4,176.2,233.4,176.3,233.4z"/>
<path d="M176.5,234.3L176.5,234.3c-0.1-0.1-0.1-0.1-0.2-0.2l0,0c0-0.2,0-0.3,0-0.5l0,0c0.1,0,0.2,0,0.2,0c0.1,0.1,0.2,0.2,0.2,0.2
	C176.8,233.9,176.6,234.4,176.5,234.3z"/>
<path d="M177.2,234.5"/>
<path class="st1" d="M176.3,233.6c0,0.2,0,0.3,0,0.5c-0.2-0.1-0.3-0.2-0.5-0.3l0,0c-0.1-0.1-0.2-0.2-0.3-0.3l0,0
	c-0.1-0.1-0.2-0.2-0.3-0.3l0,0c0-0.2,0-0.3,0-0.5c0.2,0.1,0.3,0.2,0.5,0.2c0.1,0.1,0.2,0.2,0.2,0.2
	C176.1,233.5,176.2,233.6,176.3,233.6z"/>
<path class="st1" d="M175.3,233c-0.1-0.1-0.2-0.2-0.3-0.3C175.2,232.8,175.3,232.9,175.3,233z"/>
<path d="M178.1,235.5c0-0.1,0-0.2,0-0.3c0.1,0.1,0.2,0.2,0.2,0.2l0,0C178.2,235.5,178.1,235.5,178.1,235.5L178.1,235.5z"/>
<path d="M178.5,235.5c0,0.1,0,0.2,0,0.2l0,0c-0.1-0.1-0.2-0.2-0.2-0.2l0,0C178.4,235.5,178.5,235.5,178.5,235.5z"/>
<path d="M174.9,233.6c0.1,0.1,0.2,0.2,0.3,0.3C175,233.8,174.9,233.7,174.9,233.6z"/>
<path d="M174.4,234.1c0-0.1,0-0.2,0-0.3c0.1,0.1,0.2,0.2,0.2,0.2l0,0C174.6,234.1,174.5,234.1,174.4,234.1L174.4,234.1z"/>
<path d="M175.1,233.9c0.1,0.1,0.2,0.2,0.3,0.3C175.3,234,175.2,233.9,175.1,233.9z"/>
<path d="M174.6,234.1c0.1,0.1,0.2,0.2,0.2,0.2l0,0C174.8,234.2,174.7,234.2,174.6,234.1C174.7,234.1,174.6,234.1,174.6,234.1z"/>
<path d="M175.3,233.4c0.1,0.1,0.2,0.2,0.3,0.3C175.5,233.6,175.4,233.5,175.3,233.4z"/>
<path d="M175.5,233.6c0.1,0.1,0.2,0.2,0.3,0.3C175.7,233.8,175.6,233.7,175.5,233.6z"/>
<path d="M177.4,234.8"/>
<path class="st1" d="M175.8,234.3c0.1,0.1,0.2,0.2,0.3,0.3C175.9,234.5,175.9,234.4,175.8,234.3z"/>
<path class="st1" d="M175.6,234.8c-0.1-0.1-0.2-0.2-0.3-0.3C175.4,234.6,175.5,234.7,175.6,234.8z"/>
<path class="st1" d="M176,234.5"/>
<path class="st1" d="M175.1,235c-0.1,0-0.2,0-0.3,0c0-0.1,0-0.2,0-0.3C174.9,234.9,175,234.9,175.1,235z"/>
<path class="st1" d="M176.2,234.1"/>
<path class="st1" d="M178.3,235.5c0.1,0.1,0.2,0.2,0.2,0.2c0,0.2,0,0.3,0,0.5c-0.1,0-0.2,0-0.2,0c-0.1-0.1-0.2-0.2-0.2-0.2
	c0-0.2,0-0.3,0-0.5C178.1,235.5,178.2,235.5,178.3,235.5z"/>
<path class="st1" d="M178.5,236.1c0.1,0.1,0.2,0.2,0.3,0.3c-0.1,0-0.2,0-0.3,0C178.5,236.3,178.5,236.2,178.5,236.1z"/>
<g>
	<g>
		<g>
			<g>
				<g class="st2">
					<g>
						<path class="st3" d="M156.6,152.4c-0.1,0.1-0.1,0.3,0.1,0.1C156.8,152.6,156.7,152.5,156.6,152.4z"/>
						<path class="st3" d="M156.4,152.9L156.4,152.9L156.4,152.9L156.4,152.9z"/>
						<path class="st3" d="M156.3,153.4c0.1-0.1,0.1-0.1,0.1-0.2C156.3,153.2,156.3,153.2,156.3,153.4z"/>
						<path class="st3" d="M156.5,153.1c-0.1,0.1-0.2-0.1-0.2-0.1C156.2,153.3,156.5,153.1,156.5,153.1z"/>
						<path class="st3" d="M156.5,153.1c0.1,0,0.1,0,0.2,0C156.7,153,156.6,153,156.5,153.1z"/>
						<path class="st3" d="M158.1,153.8c-0.3-0.1-0.7,1.6,0,1.4C158.5,154.1,157.5,151.7,158.1,153.8z"/>
						<path class="st3" d="M158,150.9c0,0.3-0.6,0.1-0.5,0.7c0.3,0.2,0.2-0.1,0-0.1C157.9,151.5,158.5,151,158,150.9z"/>
						<path class="st3" d="M158.3,151l-0.1,0.1C158.3,151.1,158.3,151,158.3,151z"/>
						<path class="st3" d="M156.4,154.4c-0.1,0.9-1.1,2.3-0.3,2.3c-0.2,0-0.5,0.1-0.4,0.3c-0.1-0.8-1.1,2.8-0.2,1.2
							c-0.2,0.3-0.1,0.4-0.7,0.8c0.6-2.4-1.2,3.3-1.5,5c-0.4,3-5.5,12.5-0.1,12.2c5.4-4.8,4.3-18.4,3.9-20.5c-0.1,0.9,0.3-0.7,0-0.9
							c-0.2,0.3-0.3,0.8-0.6,0.6C156.2,154.7,157.9,154.2,156.4,154.4z"/>
						<path class="st3" d="M155.7,156.7c0-0.3-0.2,0.3-0.2,0.3C155.7,157,155.7,156.8,155.7,156.7z"/>
					</g>
				</g>
			</g>
		</g>
	</g>
</g>
<g>
	<g>
		<g>
			<g>
				<g class="st2">
					<g>
						<path class="st3" d="M139.9,110.1l0.3,0.1C140.1,110.1,140.1,109.6,139.9,110.1z"/>
						<path class="st3" d="M140.5,110.2L140.5,110.2h0.1C140.5,110.2,140.5,110.2,140.5,110.2z"/>
						<path class="st3" d="M141,110.1c-0.1,0-0.2,0-0.3,0C140.8,110.1,140.9,110.1,141,110.1z"/>
						<path class="st3" d="M140.6,109.9c0,0.1,0,0.2,0,0.3C140.8,110.2,140.8,109.9,140.6,109.9z"/>
						<path class="st3" d="M140.6,109.9c0-0.1-0.1-0.2-0.1-0.3C140.6,109.7,140.6,109.8,140.6,109.9z"/>
						<path class="st3" d="M141,107.3c1.6,1,3.1-1.7-1.1,0.5C140.4,108.6,140.4,107.9,141,107.3z"/>
						<path class="st3" d="M137.8,109.3c0.2-0.3,1,0.7,0.9-0.4C138.5,109.6,137.8,107.9,137.8,109.3z"/>
						<path class="st3" d="M137.6,108.8c0.1,0,0.2,0,0.2-0.1C137.8,108.7,137.7,108.8,137.6,108.8L137.6,108.8z"/>
						<path class="st3" d="M142.2,109.5c1.3,0.2,2.8-0.2,2.7-0.4c0.7,0.3,0.2-0.1,0.1,0.4c1.1-0.1,3,0.2,1.9-1.1
							c-0.3,0.8-0.2-0.5,0.5,0.5c0.7-0.3,0.5,0.9,0,0.1c2.8,3.5,23.1-13.2,10.4-14.8c-4.4,0.6-0.1,2.1-3.6,3.6
							c-2.2,4.4-8.6,6.8-8.3,9.3c-0.6-1-0.9,0.3-1.6,0.6c-1.2-1.1-0.3,1.2-0.9,0.6c1-0.5-0.6-0.4-1.1,0.6c0.6,0,0.8,0.3,0.9,0.5
							C142.5,110,141.4,108,142.2,109.5z"/>
						<path class="st3" d="M144.9,109.4c-0.3,0.2,0.4,0.1,0.4,0.1C145.2,109.1,145.1,109.3,144.9,109.4z"/>
					</g>
				</g>
			</g>
		</g>
	</g>
</g>
<g>
	<g>
		<g>
			<g>
				<g class="st2">
					<g>
						<path class="st3" d="M185.5,109.2c-0.2-0.1-0.2-0.1-0.2,0.2C185.4,109.5,185.4,109.3,185.5,109.2z"/>
						<path class="st3" d="M185.2,109L185.2,109L185.2,109C185.1,109,185.1,109,185.2,109z"/>
						<path class="st3" d="M184.7,109c0,0.1,0.1,0.1,0.2,0.1C184.9,109,184.9,108.9,184.7,109z"/>
						<path class="st3" d="M185,109.3c0-0.1,0.1-0.2,0.1-0.3C184.9,109,185,109.2,185,109.3z"/>
						<path class="st3" d="M185,109.3c0,0.1,0,0.2,0,0.3C184.9,109.4,184.9,109.4,185,109.3z"/>
						<path class="st3" d="M183.8,111.6c0.3-0.9-0.2-0.2-0.6-0.2c0.3-1.3-1.2,0.1-0.9,0.3C183.8,112.4,186,110.3,183.8,111.6z"/>
						<path class="st3" d="M186.8,110.2c-0.9-0.4-0.6,0.6-0.5-0.1C186.3,111,186.9,110.7,186.8,110.2z"/>
						<path class="st3" d="M186.9,110.7c-0.1,0-0.1,0-0.1,0.1C186.8,110.7,186.8,110.7,186.9,110.7z"/>
						<path class="st3" d="M183.7,109.3c-1-0.2-2-1.7-1.9-0.4c-20.5-24.2-20.7,0.6-1.6,2.2c-2.5-0.4,0-0.4,1.2-0.6
							c0.4,1.5,0.9-0.8,1,0c-1.1-0.1,1.7,0.8,0.6-1c-0.1,0.6-0.3,0.4-0.1,0C183.6,109.1,183.5,110.9,183.7,109.3z"/>
						<path class="st3" d="M181.9,108.3h0.1C181.6,107.7,181.5,108.5,181.9,108.3z"/>
					</g>
				</g>
			</g>
		</g>
	</g>
</g>
<g>
	<g>
		<g>
			<g>
				<g class="st2">
					<g>
						<path class="st3" d="M199.1,135.7l-0.3,0.1C199,135.8,199.2,136.2,199.1,135.7z"/>
						<path class="st3" d="M198.5,135.9L198.5,135.9L198.5,135.9L198.5,135.9z"/>
						<path class="st3" d="M198.2,136.3c0.1,0,0.2-0.1,0.2-0.2C198.3,136.1,198.2,136.2,198.2,136.3z"/>
						<path class="st3" d="M198.6,136.2c-0.1-0.1-0.1-0.3-0.1-0.3C198.4,136.1,198.4,136.2,198.6,136.2z"/>
						<path class="st3" d="M198.6,136.2c0.1,0.1,0.2,0.1,0.2,0.2C198.7,136.4,198.7,136.3,198.6,136.2z"/>
						<path class="st3" d="M199.7,138.5c-1.8,0-1.6,3.2,0.8-1C199.6,137.1,199.9,137.9,199.7,138.5z"/>
						<path class="st3" d="M201.2,135.1c0.1,0.5-0.6-0.2-0.7,0.5C200.3,135.7,202.1,135.9,201.2,135.1z"/>
						<path class="st3" d="M201.7,135.5c-0.1,0-0.1,0.1-0.1,0.2C201.6,135.6,201.6,135.5,201.7,135.5z"/>
						<path class="st3" d="M197.5,137.4c-1.2,0.6-2.3,1.5-2,1.6c-0.5,0-0.2,0.1-0.2-0.3c-1,0.2-2.5,2.5-0.8,1.7
							c-3.2-4-13.7,22.4-1.3,18.1c3-3.3-1.1-9.5,2.9-13.7c0.1-3.4,1.5-2.3,0-3.7c1,0.4,0.6-0.7,0.9-1.4c1.1,0.2,0.4-0.6,0.1-0.9
							c0.3,1.5,1.4-2,0.3-0.7C196.3,137,199.1,137.9,197.5,137.4z"/>
						<path class="st3" d="M195.3,139c0.3-0.3-0.3,0.2-0.4,0.2C195.2,139.4,195.2,139.2,195.3,139z"/>
					</g>
				</g>
			</g>
		</g>
	</g>
</g>
<g>
	<path d="M143.9,93.6c0,0,0.1,0,0.1,0c0.3,0,0.6,0,0.8,0c-0.2,0-0.4,0-0.5,0C144.2,93.6,144,93.6,143.9,93.6z"/>
	<path d="M178,141.6c-0.2-1.4-0.5-2.8-1.2-4c-1.1-2-2.2-3.9-3.3-5.9c-0.2-0.3-0.3-0.5-0.5-0.7c0.1,0.5,0.3,1,0.5,1.4
		c1.2,2.5,2.2,5,2.9,7.7c0.3,1.3,0.5,2.7,0.4,4c-0.2,1.3-0.9,2.2-2,2.5c-1.1,0.3-2.2,0.1-3.1-0.7c-0.5-0.5-1-1-1.5-1.5
		c-1.2-1.3-2.7-2.2-4.3-2.9c-0.8-0.4-1.6-0.5-2.5-0.1c-1.5,0.6-3.1,1.2-4.6,1.9c-1.2,0.5-2.2,1.3-2.7,2.7c-0.3-0.3-0.6-0.6-0.8-0.9
		c-0.4,0-0.8,0.1-1.1,0.1c-0.2-0.2-0.4-0.4-0.4-0.4c0-0.5,0-0.9,0-1.2c-0.8-0.6-1.6-0.7-2.6-0.8c0,0.3,0,0.5,0,0.7
		c0,0.3,0,0.5,0,0.8c-0.9,0.2-1.5-0.1-1.8-0.9c-0.1-0.4-0.2-0.8-0.4-1.2c-0.4-1-0.8-2.1-1.3-3.1c-0.2-0.4-0.6-0.7-1-1.2
		c-0.8,1.2-0.4,2.3-0.2,3.6c-0.7-0.7-1.3-1.3-1.8-1.9c-1-1.2-1.6-2.6-1.3-4.2c0.4-2.4,1-4.8,2.4-6.9c0-0.2,0.1-0.3,0.2-0.4
		c-0.1-0.4-0.1-0.7-0.2-1.1c1-3.1,2.3-6,3.8-8.9c2.2-4.3,4.7-8.3,7.2-12.4c0.9-1.5,1.8-3.1,2.2-4.8c0.7-2.9,1.3-5.9,0.5-9
		c0-0.1,0-0.1,0-0.1c0.5-0.7,0.8-1.2,1.2-1.8l-0.1-0.1c-0.3,0.4-0.7,0.8-1.1,1.3c-0.2-0.6-0.4-1-0.6-1.4c-0.5,0-1,0.1-1.4,0.1
		c-7.2-8.5-14.1-17.3-21.1-25.9c4.8,8.9,9.8,17.6,15.7,25.9c-1.3-0.2-2.5-0.5-3.7-0.7c0,0-0.1,0-0.1-0.1c0.3,0,0.5-0.1,0.7-0.1
		c-0.5-0.2-1.1-0.3-1.7-0.3c-1.1,0-2.1-0.1-3.2-0.1c-1.1-0.1-2.3-0.1-3.4-0.1c-1.2,0.1-2.4,0.3-3.6,0c-0.3-0.1-0.7,0-1.1,0
		c-0.7,0.1-1.3,0.2-2,0.3c0-0.5-0.6-0.1-0.7-0.4c1-0.3,1.3-1-0.6-0.8c0-0.2-0.1-0.4-0.2-0.6c0,0,0.1,0,0.1-0.1
		c1.8-0.6,2-0.8,0.2-0.4c-0.1,0-0.3-0.1-0.5-0.1c1.2-0.7,1.2-0.8-0.1-0.7c0.6-0.6,0.6-0.8-0.1-0.7c1.6-0.8,1.7-0.7,0.1-0.6
		c0-0.4,0-0.6,0-0.9c0.8-0.1,1.4-0.4,1-0.4c-0.4,0.1-0.7,0.4-1.3,0c1.1-0.6,1.3-0.7,0.3-0.6c0.1-0.5,0.2-1,0.3-1.5
		c0.3,0,0.6,0,0.9-0.1c-0.3,0-0.6-0.1-0.6-0.1c-0.2-1.3,0.3-2.3,0.6-3.4c0.3-1.2,0.7-2.3,1.1-3.4c0.4-1.1,0.8-2.3,1.2-3.4
		c-0.4,0.3-0.6,0.6-0.7,0.9c-0.5,1.5-1.1,2.9-1.6,4.4c-0.8,2.4-1.5,4.7-1.8,7.2c-0.1,1.2-0.1,2.3,0.2,3.4c0.3,0.8,0.6,1.8,1.4,2.3
		c0,0,0,0,0,0.1c-0.6,0.5-1.1,1-1.4,1.7c0.5-0.5,1.1-0.9,1.7-1.5c0.1,0.3,0.1,0.4,0.1,0.5c0.3,0,0.6-0.1,0.8-0.1
		c-0.6,1.2-1.2,2.4-1.9,3.8c1-0.6,1.7-1,2.4-1.5c0.6,0.2,1.1,0.3,1.6,0.5c2.4,0.9,4.8,1.3,7.4,1.3c-0.5,0-0.9-0.1-1.3-0.1
		c-1.1,0.1-1.8-0.5-2.2-1.7c0.6,0,1.1-0.1,1.7-0.2c1.3,0.9,1.3,0.9,2.5,0.3c0.5,0.1,0.9,0.3,1.4,0.4c-0.3,0.8-0.6,1.2-1.2,1.3
		c2.5-0.1,4.9-0.2,7.5-0.3c0.3-0.1,0.5-0.2,1-0.3c-0.4-0.2-0.6-0.3-0.8-0.4c-0.3,0.1-0.7,0.4-1,0.4c-1.9,0.2-3.7,0.2-5.6,0.3
		c-0.1,0-0.2-0.1-0.3-0.1c0.4-0.6,0.7-1.3,1.2-2c1.6,0.1,3.3,0.1,4.8,1.1c0.2,0.1,0.5,0.2,0.8,0.3c0-0.2-0.1-0.3-0.2-0.6
		c1.7,0.8,3.4,1.5,5,2.2c0.2-0.2,0.6-0.4,0.9-0.6c0.6,0.6,1.1,1.1,1.1,1.9c0.1,2.6-0.6,5.1-2.1,7.3c-0.2,0.2-0.5,0.4-0.8,0.6
		c0,0.2-0.1,0.3-0.1,0.5c0,0,0,0.1,0,0.2c0,0,0,0.1,0,0.2c0,0.2-0.1,0.3-0.2,0.5c-0.1,0.1-0.2,0.2-0.3,0.3c-0.1,0-0.2,0.1-0.3,0.2
		c0,0.2,0,0.3,0,0.5c0,0.1,0,0.3,0,0.4c-0.2,0.4-0.4,0.7-0.6,1.1c-1.4,2.4-2.8,4.7-4.1,7c-0.9,1.7-1.8,3.4-2.7,5.1
		c-0.6,1.2-2.9,7.3-3.2,8.3c-0.5,1.7-1.1,3.5-1.6,5.2s-0.8,3.4-0.1,5c-6.2,7.2-9.6,21.5-9.3,27.2c0.1-1.3,0.2-2.4,0.4-3.5
		c0.6-4.1,1.6-8.2,3-12.2c1.3-3.4,2.8-6.8,5-9.8c0.2-0.2,0.4-0.4,0.6-0.7c0,0.3,0,0.4,0,0.5c-0.3,3,2.3,5.6,5.4,5.5c0.5,0,1,0,1.5,0
		c0.1,0.1,0.1,0.2,0.1,0.2c0.1,0.2,0.2,0.3,0.3,0.5c0.7,1.6,1.9,2.7,3.8,2.7c0.2,0,0.4,0.1,0.5,0.1c1.1,0.2,2.2,0.5,3.2,1.1
		c0.4,0.2,0.7,0.7,1.1,0.9c2,1,4.1,1.5,6.3,0.6c1.8-0.7,3.5-1.2,5.4-1.4c1.4-0.1,2.8-0.4,4.1-0.6c0.7-0.2,1.3-0.5,1.8-1.1
		C177.7,146,178.4,144,178,141.6z M140.5,93.3c-1.5-0.3-3-0.7-4.5-1.5c1.3-0.5,2.5-0.2,3.7-0.4C140,92,140.3,92.6,140.5,93.3z"/>
</g>
<path d="M176.2,239.8c-3.8-1.9-6.6,3-10.9,3c-5.7,0.7-11.7,0-16.8-2.5c7.9,1.5,17.4,3.1,24.6-1.5c-2-0.8-3.8-1.6-5.7-2.4
	c-1,1.2-1.9,2.3-2.8,3.5c-9.7-6.9-40.5-15.2-38.9-28.6c-23.2,23.4-47,5.6-51.2,45.4c-0.5-26.9,10.9-27.7,32.8-35.4
	c6.2-2.4,11.5-6,16.1-10.7c6-0.8,10.4-4.7,11.8-11c-14.4-22.1-13.4-37.1-6.9-62.1c-13.9-1.2-8.9-21.4-7.1-30.7
	c-5.1-12.6-20.4-27.1-0.4-37.2c-2.7,6.3-3.7,13.7,0.8,19.6c8.2-91.6,110.2-73.4,92.8,16.4c0.1,0,0.1,0,0.1,0
	c10.1-5.1,16.3-8.9,18.5-20.9c8.7,22.8-11.1,21.8-14,40.3c-1.3,6.4,3.4,13.6-1.1,19.2c-4,5.3-10.6,8.4-17.3,7
	c-0.6,9.1-1.4,19.3-6.6,27c-7.2,6.9-8.9,17-13.6,25.5c-2.7,8-11.9,13.3-10,22.1c12,8.4,24,16.8,30.4,30.3
	c-6.7-8.6-9.4-13.5-20.8-15.2l0,0c3.4,0.7,6.7,1.7,10.4,2.1c-2.2-3-5.7-3.4-7.9-5.8c-1-0.2-1.1-1.6-2.2-1.6
	c-0.6-0.4-1.2-0.6-1.7-1.1c-0.1-0.1-0.2-0.2-0.3-0.3c-0.3-0.3-0.5-0.1-0.9-0.5c-0.4-0.5-1.2-0.7-1.6-1.1c-0.6-0.9-1.1-1.6-2.2-2.1
	c-0.1-0.1-0.2-0.2-0.3-0.3c-0.5-1.2-1.5-1.6-2.6-2.5c-0.6,2.9-1.5,5.6-3.4,7.9C170,237.1,173.8,237.9,176.2,239.8z M168.2,109.5
	c0,0.1,0,0.1,0,0.2c-0.3,0-0.6,0-0.9-0.1c0.2,3.2,0.6,6.5,1.2,9.7c-1.9-7.7-2.5-16.9,1.7-23.9c0.1-1.1-0.4-0.9-1.4-1.3
	c2.3-0.2,3.8-1.6,5.4-3c8.7-5.6,21.3-4.5,28.8-12.2c0.1,0.2,0.2,0.3,0.3,0.5c0.6-1.7,1.1-3.3,1.2-5.1c-2-0.4-3.9-0.8-5.9-1.2
	c0.6,0.7,2.1,1.1,2.1,1.8c-12.6-7.9-26.2,10-39.3,4.9c-8.6-4.2-11.7-15.3-21-18.2c8.1,1,11.1,10.5,17.2,14.9
	c11.1,10.3,24.8-4.3,37.2-4c-18.3-4.3-37.4-5.8-55.2-12.4c-2.6-1.3-4.8-0.7-4.9,2.4c-1.3,2.4-2.2,5.4-2.6,8.1
	c-1.5,4-1.2,8.5-2.4,12.5c-3,1.9-5,6.7-6.8,10c3.5,6.5,6.7,12.9,10.1,19.3c-0.6-0.5-1-0.8-1.5-1.3c0.4,2.2,1.6,3.8,2.3,5.6
	c-0.1-0.5-0.1-0.9-0.2-1.6c0.3,0.9,1,1.2,0.7,2.1c0.1,0,0.2-0.1,0.3-0.1c0.7,2.4,0.8,5.4,0.2,6.5c0-0.3-0.1-0.6-0.2-1
	c-0.2,0.8-0.3,1.4-0.4,2.1h-0.1c0-1.2,0-2.4,0-3.6c-0.1,0-0.1,0-0.2,0c0,0.7,0,1.4,0,2.1c-0.3,0-0.1-0.3-0.4-0.6
	c-0.9,8.9-3.7,21.7-5.5,28.1c0.1,1.2,0.2,2.3,0.3,3.5h-0.1c-0.1-0.5-0.2-1-0.4-1.5c0,2.6,0.6,5,1.3,7.4c-0.9-1.8-1.3-3.8-1.6-5.9
	c-0.5,1-0.4,2-0.1,3c-0.2-0.2-0.3-0.3-0.4-0.5c-0.3,2-0.5,3.7,0.4,5.6c-0.5-0.1-0.5-1-0.9-1.7c-3,19.9,7.1,27.9,13.8,45.1
	c0.4-3.3-2.4-8.6,1-10.9c-2.8,4.2-0.1,10.5,1,15.1c10.7,3.7,16.7,2.5,19-9.5c1.1,4.6-3.8,8.6-6.2,12.2c13.9-12.2,30.7-23.8,40.2-40
	c3.1-10.2-1.7-21.1-2.5-30.9c0.4-0.3,0.5-1.4-0.3-1c1.9-1.7-1.1-1.9-1.2,0.4c0.1,0,0.2,0,0.3,0c-0.7,0.3-1.1,0.8-1.2,1.7
	c0.2,0,0.3,0,0.5,0c-3.7,4.5-3.3,11.7-4.4,17.4c-3.8-37.1,32.7-30.8,18.6-51.9c2.7,3.1,4.5,7,3.9,11.3c1.6-1.7,4.1-4.1,3.6-6.4
	c0.2-2.9-0.1-10.3-2.5-10.3c0.5-0.1,0.8-0.1,1.3-0.2c-0.3-0.3-0.5-0.6-0.7-0.8c0.8-0.7-0.4-0.8-0.8-1.1c0.3,0,0.5-0.1,1-0.1
	c-0.3-0.3-0.5-0.6-0.7-0.8c0,0,0.2-0.1,0.1-0.1c-1.2-2.3-0.9-6.4-3.1-7.6c0.1-0.1,0.1-0.3,0.2-0.5c-0.2,0.1-0.3,0.1-0.4,0.1
	c0-0.5,0-1,0-1.5c-0.2,0.1-0.4,0.2-0.7,0.4c0.1-0.6,0.1-1.2,0.2-1.7c-0.1,0-0.1,0-0.2-0.1c-0.5,0.5-0.7,1.5-1.5,1.3
	c0.8-2.5,0.7-4.1-0.9-6.4c-0.4,1-0.9,1.6-1.5,2.6c-0.1-0.2-0.2-0.4-0.2-0.6c-0.3,0.8,0.5,1.7-0.2,2.4c-0.1-0.2-0.1-0.4-0.2-0.6
	c-0.2,0.7-0.4,1.4-0.7,2.4c-0.5-2.8-0.9-5.4-1.4-8.1c-6.8,4.7-15,8.2-21.5,12.5c5.9,0.2,11.5,3.6,17,4.2c0.3,0.3,0.7,0.5,0.7,0.7
	c-0.5,2.2,2.3,3.1,2.6,5.5c-6.5-4-15-2.9-21.7-6.7c1.1,0.3,2.2,0.7,3.3,1.1c0.1-2.1-1.5-1.9-3.1-1.7c-1.5-1.1-6.2-0.7-7.3,1.4
	c-0.1-0.6,0.2-1.4-0.4-2c0.5-0.6,0.9-0.7,0.6-1.6c-4.1,4.4-0.6,10.4-2.8,9.9c0.6,0.6,1,1.1,1.5,1.6l-0.1,0.1
	c-0.6-0.5-1.1-0.9-1.7-1.4c0.1,1.1,1.8,1.3,1,2.3c-0.3-0.1-0.6-0.1-1-0.2c0.2,0.7,0.5,1.2,0.5,1.8
	C168.2,109.3,168.2,109.4,168.2,109.5z M207.3,131.2c3.7-0.8,4.1-1.5,0-0.7c1-0.3,1.9-0.6,2.9-0.8c-0.1-0.6-0.5-0.5-0.8-0.5
	c0.8-0.4,0.2-1.2-0.6-1c0.2-0.1,0.4-0.2,0.5-0.3c-0.1-0.2-0.3-0.4-0.4-0.6c-0.4,0.7-0.8,1.4-1.2,2.1c0.7-0.1,1.2-0.1,1.8-0.2
	c-0.7,0.4-2.6,0.2-2.1,1.4c-0.1,0.2-0.9,0.4-0.6,0.7C206.9,131.2,207.1,131.2,207.3,131.2c-0.4,0.2-1.6,0.3-0.9,0.9
	c-0.3,0.3-0.9,0.3-0.8,0.9c0.1,0,0.2,0,0.3,0c-3.2,2.6-8.2,16.2-2.5,17c0,0.1,0,0.2,0,0.4c2.5-0.6,6.1-0.6,7.9-2.1
	c3.3-1.6,7-4.5,7.2-8.4c-2.9,5.1-5.8,7.2-11.8,7.5c0.9-0.6,2-0.4,3-1.1c-1.3-0.3-2.4,0.4-3.8,0.3c1-0.5,1.6-0.1,2.3-0.9
	c-0.5,0-0.9-0.1-1.3-0.1c0.2-0.2,0.3-0.4,0.4-0.6c1.5,0.3,4.9-0.5,5.9-1.4c-1.3,0.1-2.4,0.6-3.6,0.5c1.6-0.7,3.7-0.2,4.6-1.7
	c-2.2,0.5-4.4,0.9-6.6,1.4c2.3-1.3,6-0.5,7.6-2.6c-0.4,0-0.7,0.1-1,0.1c1.3-0.3,1.8-0.9,2.4-2c-0.2-0.1-0.3-0.1-0.6-0.2
	c4.6-2.6,0.5-9.8,1.5-14.2c-0.3,0-0.4,0-0.6,0c0.2-0.1,0.4-0.2,0.6-0.4c-0.1-0.2-0.2-0.4-0.3-0.7c-0.4,0.1-0.7,0.1-1,0.2
	c0.3-0.2,0.6-0.4,0.9-0.5c0-0.4-0.1-0.6-0.4-0.6c0-0.2,0.1-0.5,0.1-0.8c-1.2,0.3-2.3,0.5-3.3,0.8c0-0.1,0-0.1,0-0.2
	c1-0.3,2-0.6,3.1-0.9c-0.1-0.4-0.3-0.8-0.4-1.2c-0.3,0-0.6,0-0.9-0.1c0.3-0.2,0.5-0.3,0.8-0.4c-0.1-0.2-0.2-0.4-0.3-0.6
	c0.7-0.3,1.5-0.2,2.1-0.9c-0.9,0.2-1.8,0.4-2.7,0.6c0.9-0.9,2.7-0.2,3.1-1.5c-0.7,0.1-1.3,0.2-1.9,0.3c0.7-0.5,1.6-0.5,2.4-1
	c-4.1-1-8.7,3.8-5.2,6.8c-0.7,1.4,1.5,0.5,2.1,0.5c-0.6,0.2-1.2,0.5-1.9,0.8c0.1,0.2,0.2,0.4,0.3,0.6c1.1-0.2,2.1-0.5,3.2-0.7
	c-1,0.3-2,0.7-3.1,1c0.5,0.8,0.2,2.6,1.2,2.7c-0.1,0.1-0.3,0.3-0.4,0.4c0.2,0.1,0.3,0.2,0.5,0.3c-0.5,0.5,0,0.5,0.2,0.7
	c-0.5,1-0.5,4-0.3,5.2c-0.4,0-1.3,2.2-0.9,2.4c-0.2,0.2-0.9,0.5-0.7,0.9c0.5-0.1-0.4,0.2-0.8,1.2c0.7-0.1-0.3,0.4-0.6,1
	c0.8-0.1,1.6-0.3,2.4-0.4c-1.2,0.8-2.5,0.3-3.4,1.4c0.8-0.1,1.5-0.2,2.3-0.3c-1.6,0.3-3.8,1.8-5.3,1c0.5-0.1,3-3.6,3.7-5
	c-3.6,0.5-10.2,1.1-5.9,5.9c-4.5-2.2-2.9-6.5,1.6-7.1c-1.1-0.5,0.8-0.6,1.2-0.9c-0.3-0.2-0.4-0.3-0.6-0.4c0.6-0.1,1.2-0.2,1.4-1
	c-0.6,0.2-1,0.1-1.7,0.1c2-0.6,2-0.6,2.2-1c-0.9,0.1,0.4,0.3,0.4-1.1c-1.2,0.2-0.7,0.5,0.3-0.7c-1.5,0-2.9,0.4-4.3,0.6
	c1.4-0.4,2.8-0.8,4.3-1.1C210.4,130,208,131.4,207.3,131.2z M147.5,50.6c-0.4-0.6-0.2-1,0-1.8c-0.5,0.5-1.2,1.3-1.3,0.2
	c-0.4,0.5-0.7,0.9-1.1,1.3c0-0.2-0.1-0.3-0.1-0.6c-0.4,0.2-0.8,0.4-1.1,0.6c-0.1-0.4-0.2-0.8-0.3-1.2c-0.2,0.2-0.4,0.3-0.7,0.6
	c0.4-1-0.6-1.4-0.3-2.2c-0.4,0.2-0.7,0.3-1,0.4c0.5-0.5,0.5-0.9,0-1.4c-0.7,0.7-1.8,2.6-1.9,3.4c0.6-0.8,1.2-1.4,1.9-2.1
	c-0.2,0.5-0.3,1-0.5,1.5c1.3,0-0.7,1.9-0.3,2.3c0.4-0.9,1.8-1.2,1.2,0.2c0.2-0.1,0.3-0.1,0.4-0.2c1.2,0.7,3.4,2.7,4.4,0
	c-0.3,1.2,0.5,1.7,1.2,0.5c-0.4,0.9,0.5,1.2,1,0.7c0,0.2,0,0.4,0,0.6c0.5-0.3,0.6-0.2,0.8,0.4c1.5-1,2.4,0.5,3.3-2.1
	c0.2,0.4,0.3,0.7,0.5,1.1c0.1-0.2,0.2-0.3,0.3-0.4c-0.4,0.8,0.1,2,0.9,0.9c0.7,0.6,0.6,2.8,1.7,1.5c0.9,1.1,2.4,3,3.5,1.3
	c-1.1,2.2,2.3,2.6,3.7,1.5c0.1,1.5,1.3-0.1,1.6-0.7c0.5,2.3,8.2,0.2,6.8-3.4c-2.6,0.9-6.3,0-6.9,3.5c0-0.5,0-1,0-1.4
	c-1.3,0.2-1.3,1.2-1.6,2.1c1.4-3.9-3.3-3.5-5.5-5.4c-1.2,1.1-1.1-2.8-2.5-0.7c0.4-1.4-0.2-1.5-1.2-0.5c-0.1-0.6-0.1-1.2-0.2-1.9
	c-1.4,0.6-2.5-0.6-3.9,1c0.1-1.3-1.3,0-1.7-0.4c-0.1,0.2-0.3,0.4-0.4,0.6c-0.1-0.1-0.1-0.2-0.2-0.4
	C147.7,50.3,147.6,50.4,147.5,50.6z M175,56.6c-0.1,1.4,0.6,0.4,0.8-0.3c-0.4,1.7,2.4,2.5,3.5,2.5c0.5,1.8,4.2,3.1,5.5,1.6
	c0,0.3,0,0.7,0,1.2c1.9-1.1,3.7-0.5,4.8-1.5c0.3,0.3,0.6,0.4,0.9,0.7c0.2-0.4,0.4-0.7,0.6-1c0,0.3,0,0.6,0.1,1.2
	c0.2-0.6,0.4-1,0.5-1.4c-0.2,1.2,1.1,1.3,1.2,2.4c2.4,0.9,4.3,2.4,7,1.5c1,0.9,4.3,2.9,6.4,1.8c0.9,2.6,5.1,4.5,1.6,0.5
	c-0.1,0.2-0.2,0.3-0.3,0.4c-1.7-5-9.2-3.4-10.5-7.8c-4.1,2.9-1.3-2.7-5.2-1.1c0-0.1-0.1-0.3-0.2-0.6c-0.2,1.2-0.5,2-0.7,3.2
	c0.1-1.1,0.3-2.2,0.4-3.5c-3.2,0.3-6.8,0.1-6.9,4.3c0.8-2.7-0.5-2.6-2-2.7c-0.2,0.4-0.3,0.7-0.4,0.9c-0.6-2.8-3.8-2.9-5.7-4.3
	c-0.3,0.7-0.5,1.3-0.7,2c0-1.1,0.9-2.1,0.2-3.1c-0.3,0.6-0.5,1.1-0.7,1.6c0.5-4.9-6.3,1.6-2.4,1.4C173.2,57.9,174.6,57.5,175,56.6z
	 M130.4,130c6.3-20.7-16.3-36.2-12.7-56c-12.1,11.9,4.4,26.2,10.8,35.9c-1.6-1.5-3.1-2.9-4.7-4.3c-0.1,0.1-0.1,0.2-0.2,0.2
	c-1.3,8.3-7.5,28.9,5.6,29.1 M123.8,121.2c-0.2-0.9-0.3-1.8-0.5-2.8c0.3,0.5,0.4,1.1,0.5,1.6 M220.7,105.1c-1,2.2-0.5,4.5-0.5,6.8
	c-0.1,0-0.1,0-0.2,0c-0.2-1.4-0.3-2.7-0.5-4.1h-0.1c0.1,1.4,0.1,2.8,0.2,4.3c-0.6-1.8-0.4-3.4-0.4-5.3c-0.5,2-0.4,3.8-0.2,5.5
	c-0.1,0-0.2,0-0.3,0c-0.1-1.4-0.2-2.7-0.3-4.1h-0.1c0,1.4,0,2.8,0,4.2c-1.5-0.4-0.4-2.7-0.7-3.9c-0.1,0-0.1,0-0.2,0
	c0,1.3,0,2.6,0,3.9c-0.6-1.4-0.4-2.8-0.3-4.3c-0.6,2-0.5,4.1-0.3,6.2c-0.6-1.9-0.6-3.8-0.3-5.8c-0.7,2-0.5,4.1-0.3,6.2
	c-0.1-0.4-0.3-0.8-0.5-1.4c0,1.4-0.7,1.8-0.3,3.1c8.7-5.6,21.7-11.5,17.9-23.9c-1.5,10.3-13.7,8.3-11.6,18.4
	c-0.5-1.8-0.5-3.6-0.4-5.4c-0.5,1.9-0.4,3.7-0.3,5.6C220.6,109.1,220.4,107.1,220.7,105.1z M205.2,47c-10.3-15.8-34.5-21.9-51-12.7
	c0.8,1.3,2.3-0.2,3-1c1.3,0.9,2.3,0,3.2-0.7c1.2,0.9,2.1-0.2,3.1-0.5c1.2,1.5,2.8-1.2,3.7,0.5c0.6-0.2,1.1-0.4,1.7-0.7
	c0.7,0.7,1.9,0.7,2.4,0c1.8,1.1,4.1-0.6,5.4,1c1.1-0.7,2-0.2,3.2-0.4c0,0.2,0,0.4-0.1,0.6c0.6,0.3,1,0.3,1.6,0
	c0.2,0.3,0.4,0.5,0.7,0.9c0.5-0.2,1.1-0.4,1.6-0.5c0.1,0.2,0.1,0.3,0.2,0.5c0.4-0.2,0.7-0.3,1-0.5c-0.3,1.3,0.2,2.2,1.5,1.3
	c0,1.6,0.7,1.1,1.8,0.5c0,0.3,0.1,0.7,0.1,1.1c0.6-0.4,1.1-0.7,1.5-1.1c0.1,0.3,0.3,0.5,0.4,0.8c1.9,0,2.6,2.5,4.5,2.2
	c-0.2,2,2.2,0.9,2,2.9c0.4,0.6,0.9,0.2,1.2,0.3c1.1,1,2.5,0.7,2.7,2.3c1,0,1.1,0.4,1.2,1.2c0.6-0.1,1,0.8,1.6,0
	C203.6,45.9,204.1,47.9,205.2,47z M137,202.4c-0.8,2-1.5,3.8-2.7,5.3c4.5,4.5,9.3,8.3,15.1,10.9C145.5,211.6,138.4,211.3,137,202.4z
	 M171,216.2c3.4-2.6,13.1-21.8,13.9-26.1C180.9,199.3,176.8,208.2,171,216.2z M181.1,97.9c0.4,2,4.5,2.8,5.7,1.5
	C185,98.6,183.1,98.3,181.1,97.9z M186.6,100.2c2.4,0.4,4.6,0.9,6.8,1.3C191.4,101,187.9,97.8,186.6,100.2z M199.6,144.4
	c0.1,0,0.1,0,0.2,0c0.2-2.3,0.7-4.5,1.6-6.6c-0.1,0-0.1,0-0.2-0.1c-0.9,1.4-1.8,2.9-2.7,4.4c0.4-0.2,0.7-0.3,1.1-0.4
	C199.6,142.8,199.6,143.6,199.6,144.4z M164.1,223.7c-0.1,0-0.2-0.1-0.2-0.1c-1.7,1.1-3.7,0-5.5-0.6c0,0.1,0,0.2-0.1,0.2
	C160.2,223.4,162.4,225.5,164.1,223.7z M217.3,121.4c0.2,0.5,0.4,0.9,0.5,1.2c0.8-0.3,0.9-0.5,1-1.8
	C218.2,121,217.7,121.2,217.3,121.4z M138,51c0.5-1.1,1.4-2,1.8-3.4C139,48.3,138.2,49.8,138,51z"/>
</svg>
