<?xml version="1.0" encoding="utf-8"?>
<!-- Generator: Adobe Illustrator 26.2.1, SVG Export Plug-In . SVG Version: 6.00 Build 0)  -->
<svg version="1.1" id="Layer_1" xmlns="http://www.w3.org/2000/svg" xmlns:xlink="http://www.w3.org/1999/xlink" x="0px" y="0px"
	 viewBox="0 0 591.7 298.5" style="enable-background:new 0 0 591.7 298.5;" xml:space="preserve">
<g>
	<path d="M562.1,66.2c0,0.1,0.1,0.2,0.1,0.3C562.1,66.3,562.1,66.2,562.1,66.2z"/>
	<path d="M474.3,30.2l1.4-0.1C474.8,30.2,474.5,30.2,474.3,30.2z"/>
	<path d="M561.7,138c-0.1,0.3,0,2.6-0.1,4.9C561.7,142.9,561.7,138,561.7,138z"/>
	<path d="M218.7,29.3l1.6,0C219.6,29.3,219.1,29.2,218.7,29.3z"/>
	<path d="M370.2,29.9c-0.5,0.1-1.3,0.1-2,0.1C369.1,30,369.9,30,370.2,29.9z"/>
	<path d="M558.9,176l0.2-2C559,174,558.9,174.7,558.9,176z"/>
	<path d="M559.7,248.8c0-0.1,0-0.1,0-0.2C559.7,248.5,559.7,248.6,559.7,248.8z"/>
	<path d="M560.4,220.3c0-0.6-0.1-1.3-0.1-2C560.3,219.2,560.3,220.3,560.4,220.3z"/>
	<path d="M560.3,217.3c0,0.3,0,0.6,0,1C560.3,217.8,560.3,217.3,560.3,217.3z"/>
	<path d="M549.1,274c2.1,0,3.9-0.1,5.8-0.3L549.1,274z"/>
	<path d="M35.8,84.6l-0.1-0.5C35.7,84.5,35.8,84.6,35.8,84.6z"/>
	<path d="M551.7,272.4l1.5,0C552.7,272.4,552.2,272.4,551.7,272.4z"/>
	<path d="M558.4,137.4c-0.2-2.1,0-6.4-0.1-6.4C558.3,133.2,558.1,136.4,558.4,137.4z"/>
	<path d="M42.8,133.5l0,1.4C42.8,134.2,42.8,133.8,42.8,133.5z"/>
	<path d="M551.7,272.4l-1.7,0C550.5,272.5,551.1,272.4,551.7,272.4z"/>
	<path d="M93.1,275.2c-0.2,0-0.4,0-0.6,0C92.6,275.2,93.1,275.2,93.1,275.2z"/>
	<path d="M105.9,275.5c-0.9,0-1.8,0-2.7,0.1C104.6,275.6,105.4,275.5,105.9,275.5z"/>
	<path d="M554.9,273.8l3.3-0.1C557,273.7,555.9,273.7,554.9,273.8z"/>
	<path d="M243.7,275.2c-0.4,0-0.9,0-1.3,0C243,275.2,243.4,275.2,243.7,275.2z"/>
	<path d="M379.9,30c0.3,0,0.7,0,1.1,0C381.2,30,381.1,30,379.9,30z"/>
	<path d="M284.7,35L284.7,35C284.7,35,284.7,35,284.7,35z"/>
	<path d="M289.8,34.7c-1.6,0-3.9,0.1-5.1,0.2C286.3,35,287.8,34.9,289.8,34.7z"/>
	<path d="M273.8,34.9c0.2,0,0.4,0,0.6,0C274.2,34.9,274,34.9,273.8,34.9z"/>
	<path d="M376.1,35.3C376.1,35.2,376,35.2,376.1,35.3C376,35.2,376.1,35.3,376.1,35.3z"/>
	<path d="M355.8,35.3c-0.4,0-0.9-0.1-1.4-0.1C354.8,35.2,355.2,35.3,355.8,35.3z"/>
	<path d="M223.4,35.4C223.4,35.4,223.4,35.4,223.4,35.4C223.3,35.4,223.2,35.4,223.4,35.4z"/>
	<path d="M43.4,39.4c1.3-6.5,17.7-1.1,24.3-2.9c33.5-0.5,49.8-0.1,75.4,0.3c50-2.1,95.3-0.6,127.9-2.3c62.4,0.8,153.6,1,250.5-0.4
		c6.6,2.8,41.8-5.6,37,5.3c1.4,16.2-0.9,42.9,0.3,58.6c0.2,10.7,1.6,22.5-0.1,28.8c-0.3-9.2-0.8-8.8-0.3-0.2c-0.4-0.3-0.5,1.2-0.6,6
		c-0.1-7.5,1.3-3,0.8,2.3c2.2,12.2-1.2,23.1,0,30.5c1.8,23-1.1,76.2,0.4,88.6c-0.3,10.7-0.9,3.4-0.4,11.7c-0.2-4,0.2-7.4,0.5-5.6
		c-0.6,19.2,1.1,2.8,0.3-10.1c1.6-37.8,2.4-93.8,2.1-159.5c1.2-23.1,0-41.7,0.8-59.6c-14.4,0.5-24.1-0.2-51.8,0.1
		c-123.1-1.2-217.4-1.5-348.1-1.5C28.3,37.2,32.9-5.8,35.8,98.3c0.3,21.9-0.2,23.3,0.3,45.5c8.4,152.6-42.9,131.1,98.5,131.3
		c111.2-1.4,289.8,5.1,422.4-2.6c5.1-0.2,2.1,0.2-0.4-0.2c-10.4,0.9-15.5,0.8-21.7,0c3.2,0.2,8.4-0.2,5.6-0.2
		c-35.9-0.5-56.9-1.7-104.1-2.5c-104.1-2.7-257.4-1.2-385.6-1.7c-14,2.8-6-11.1-7.7-23.3c-1.1-10,0.5-60.1-0.2-53
		c-0.2,3.1-0.5,0.1-0.3-4.1C43.8,115.3,41.9,98.2,43.4,39.4z"/>
	<path d="M378.7,35.3c-1.6-0.1-2.1-0.1-4,0.2C374.7,35.5,378.7,35.3,378.7,35.3z"/>
	<path d="M254.4,35.1c-0.3,0-0.7,0-0.9,0.1C254.1,35.2,254.3,35.1,254.4,35.1z"/>
	<path d="M224.2,35.6c2.2-0.1,0.2-0.1-0.8-0.2C223.3,35.5,223.4,35.5,224.2,35.6z"/>
	<path d="M449.1,34.5c-0.5,0-0.7,0.1-0.7,0.1C449.1,34.6,449.2,34.6,449.1,34.5z"/>
	<path d="M558.4,115.9c0-0.2,0-0.5,0-0.8C558.4,115.2,558.4,115.5,558.4,115.9z"/>
	<path d="M558.8,105.1c0-0.5,0-1.2,0-2.2C558.8,103.8,558.8,104.5,558.8,105.1z"/>
	<path d="M401.9,34.6c-0.7,0-1.4,0-2,0.1C401,34.7,401.6,34.7,401.9,34.6z"/>
	<path d="M558.7,100.6c0,0,0.1-2.8,0-2.8C558.7,97.9,558.7,100.6,558.7,100.6z"/>
	<path d="M558.3,119.3c0-1.1,0-2.5,0-3.4C558.3,117.2,558.3,118.3,558.3,119.3z"/>
	<path d="M520.6,34.2c-0.1,0-0.2,0-0.3,0C518.2,34.3,519.5,34.2,520.6,34.2z"/>
	<path d="M558.2,88.8c0-0.2,0-0.9-0.1-1.2C558.2,87.6,558.2,88.8,558.2,88.8z"/>
	<path d="M558.2,131c0-0.5,0-1-0.1-1.4C558.2,129.9,558,131.3,558.2,131z"/>
	<path d="M558.5,35c0.1,0.3,0.2,0.5,0.2,0.4C558.8,34.9,558.7,34.7,558.5,35z"/>
</g>
<g>
</g>
<g>
</g>
<g>
</g>
<g>
</g>
<g>
</g>
<g>
</g>
</svg>
