<?xml version="1.0" encoding="utf-8"?>
<!-- Generator: Adobe Illustrator 26.2.1, SVG Export Plug-In . SVG Version: 6.00 Build 0)  -->
<svg version="1.1" id="Layer_1" xmlns="http://www.w3.org/2000/svg" xmlns:xlink="http://www.w3.org/1999/xlink" x="0px" y="0px"
	 viewBox="0 0 300 300" style="enable-background:new 0 0 300 300;" xml:space="preserve">
<style type="text/css">
	.st0{fill:#D2D2D2;}
	.st1{fill:#FFFFFF;}
	.st2{fill:#B3B3B3;}
	.st3{fill:#F3F3F3;}
</style>
<path class="st0" d="M264.3,206.7c-0.3-2.1-0.2-4.1-0.3-6.2c0-0.7,0-1.4,0-2.1c0-0.3,0.1-0.7,0-0.9c-0.4-0.6-0.2-1.3-0.3-2
	c-0.1-0.7-1.8-6.1-1.8-6.8c-0.1-1.2,0.2-2.4-0.3-3.5c0.2-1.7-0.6-3.3-0.7-5c-0.6-0.7-0.3-1.6-0.5-2.4c-0.4-1.4-0.8-2.7-1.1-4.1
	c-0.4-2-1-4-1.6-6c-0.9-3.2-1.9-6.4-3.1-9.5c-0.9-2.4-1.8-4.8-2.8-7.2c-0.5-1.3-1.2-2.6-1.7-4c-0.1-0.2-0.2-0.4-0.1-0.6
	c0.2-1-0.3-1.7-0.7-2.5c-0.2-0.5-0.4-1-0.7-1.5c-0.3-0.7-0.7-1.5-1-2.2c-0.3-0.7-0.7-1.5-1.1-2.2c-0.4-0.8-1.1-1.4-1.4-2.2
	c-0.4-1.2-1-2.2-1.9-3c0-0.4,0-0.7,0-1c-0.8-1-1.7-2-2.5-3c-0.1-0.1-0.2-0.2-0.2-0.3c0.1-0.7-0.4-1-0.8-1.4c-0.6-0.7-1.3-1.3-1.9-2
	c0.1-0.1,0.2-0.2,0.3-0.3c-0.6-1.3-1.2-2.5-2.5-3.1c-0.2-0.1-0.3-0.4-0.4-0.7c-0.3-1.4-1.1-2.2-2.3-2.8c-0.5-0.3-0.9-0.6-1-1.2
	c0.1-0.1,0.2-0.2,0.2-0.2c-0.4-0.4-0.7-1-1.1-1.2c-0.6-0.3-0.9-0.7-1.3-1.5c0.3-0.1,0.6-0.3,0.9-0.4c-0.5-0.6-0.9-0.9-1.6-1
	c-0.7-0.1-1.4-0.5-1.9-1c-0.8-0.7-1.5-1.5-2.4-2.4c1.5,0.1,2.1,1.4,3.2,2.2c-0.6-1.6-1.9-2.7-3.1-2.9c-1.1-0.1-1.6-1-2.3-1.6
	c0.1-0.6,0.3-1,0.4-1.5c-1.1-0.7-2-1.2-3-1.5c-0.7-0.2-1.6-0.4-1.9-1.3c-0.1-0.5-0.3-1-0.4-1.4c-2.2-0.1-3.7-1.3-5-2.7
	c0.5-0.3,1-0.5,1.6-0.8c-1.4-1.4-3-1.5-4.5-1.9c-0.2-1.4-0.5-1.5-3.1-1.7c0.1-0.3,0.2-0.6,0.3-0.9c-1.2-1-2.7-1.3-4.2-1.1
	c0-0.9-0.5-1.1-1.2-1.1c-0.6,0-1.2-0.3-1.8-0.5c0-0.3-0.1-0.6-0.1-0.7c-0.9-1.1-1.9,0.1-2.9-0.3c-0.2-0.8-0.4-1.6-0.6-2.4
	c-0.8,0-1.4,0.4-2,1c-0.4,0.4-0.7,0.6-1.2,0.2c0.3-0.5,0.6-1,1-1.6c-1.6-0.5-3.2-0.3-5,0c0.5-0.7,0.7-1,1-1.4
	c-0.8-0.6-1.5-1-2.3-0.3c-0.2,0.1-0.5,0-0.8,0c-0.1,0-0.1-0.1-0.1-0.1c0.1-0.5,0.1-0.9,0.2-1.5c-1,0.2-1.7,0.5-2.5,0.4
	c-0.8-0.1-1.3,1-2.3,0.6c0.2-0.3,0.4-0.5,0.5-0.8c0.1-0.2,0.2-0.4,0.4-0.7c-1.4-0.4-2.5,0-3.4,1c-1.2-0.3-0.2-1.8-1.2-2.1
	c-0.6,0.4-1.2,0.8-1.8,1.2c-1.2,0.8-1.5,0.8-2.2-0.5c-0.6,0-1.1,0.3-1.7,0c-0.3-0.1-0.8,0.1-1.2,0.3c-0.5,0.4-1,0.4-1.6,0.2
	c-0.2-0.6-0.5-1.3-0.8-1.9c-0.2-0.1-0.5-0.2-0.8-0.4c-0.5,0.7-1,1.4-1.5,2c-0.9,0-1.6,0-2.3,0c0-1.1-0.2-1.9-0.9-2.8
	c-0.7,1-1.3,2-1.9,3c-0.7-0.2-1.3-0.4-1.8-0.5c-0.2-1.3-0.2-1.3-1.7-1.3c-0.2,0.3-0.5,0.7-0.7,1.1c-0.3,0.6-0.7,0.8-1.4,0.5
	c0-0.9,0-1.8,0-2.8c-1,0.5-1.8,1-2.3,2c-0.3,0.6-0.7,1.2-1.6,0.9c0-0.7,0-1.5,0-2.1c-0.2-0.2-0.4-0.4-0.6-0.6
	c-0.5,0.7-1.2,1.2-1.6,2.1c-0.2,0.5-0.7,1.1-1.5,0.6c-0.1-1.3-0.1-1.3-0.6-2c-0.5,0.4-0.9,0.7-1.4,1.1c-0.6,0.6-1.3,1-2.1,0.9
	c-1.7,0-3.4,0-5.2,0c-0.3,0-0.6,0.1-0.8,0c-1.4-0.5-3-0.5-4.4-1.1c-1.1-0.4-2.4-0.4-3.2-1.6c0-0.9,0.2-1.8-0.1-2.6
	c-0.3-0.9-0.2-1.7-0.3-2.5c-0.1-0.8,2-1.7,2-2.5c-0.1-1.5-0.1-3-0.4-4.4c-0.2-0.8-0.3-1.5-0.3-2.3c0-0.8-0.4-1.5-0.4-2.3
	c-0.1-1.1-0.4-2.1-0.8-3.1c-0.3-0.8-3.2-1.5-3.7-2.2c-0.3-0.3-0.7-0.5-1-0.8c-1-0.9-2-1.4-3.3-1.3c-0.6,0-1,0.3-1.5,0.4
	c-2.2,0.2-4.1,1.2-5.9,2.4c-1.7,1.1-3.4,2.5-5,3.8c-1.9,1.5-3.5,3.3-5.1,5.2c-1.6,1.9-3,4-4.5,6.1c-0.9,1.2-1.9,2.3-2.7,3.6
	c-0.4,0.6-1,1-1,1.8c-0.8,0.7-1.5,1.5-2.3,2.2c-0.5,0.5-1.1,0.8-1.8,1c-0.7,0.1-1.4,0.4-2.1,0.6c-2,0.6-4,1.4-5.9,2.2
	c-2.3,0.9-4.3,2.2-5.9,4.2c-0.2,0-0.4-0.1-0.5,0c-0.9,0.9-1.7,1.7-2.7,2.5c-0.8,0.7-1.4,1.7-1.9,2.7C73.6,96,72.7,97,72,98.2
	c-1.4,2.2-2.6,4.5-4.5,6.3c-0.5,0.5-0.9,1.2-1.2,1.9c-0.4,0.8-0.8,1.6-0.4,2.7c0.6,0.7,1.4,1.4,2.1,2.2c-0.3,0.3-0.6,0.6-0.9,0.9
	c-0.2,2.1,0.4,3.9,1.5,5.6c1,1.5,2,2.9,3.1,4.2c1.1,1.4,1.9,3,2,4.9c0,1.4,0,2.9,0,4.6c0.8-0.4,1.3-0.7,1.8-1
	c1.2,1.4,0.9,3.2,1.2,4.8c0.2,1.2,0.4,2.2,0.9,3.3c0.7,0,1.1-0.1,1.2-0.9c0-0.3,0.3-0.6,0.5-1c0.7,1.1,0.5,2.4,1.1,3.4
	c0.6,0.9,0.7,2.2,1.9,2.7c0.2-0.6,0.4-1.2,0.6-1.7c0.4,0.4,0.8,0.8,1,0.9c0.8,2.1,1.7,3.6,3.4,4.5c0.1-0.1,0.2-0.2,0.2-0.3
	c0.1,0,0.2,0,0.4-0.1c1.2,1.2,2.1,3,3.9,3.5c0.3-0.2,0.7-0.4,1.1-0.6c-0.5-0.6-1.2-0.9-1-2c0.4,0.5,0.7,0.8,1,1.1
	c0.1,0.2,0.1,0.4,0.3,0.6c1,1.1,2.1,2.3,3.8,2.3c0.1,0,0.1-0.1,0.1-0.1c-0.1-0.5-0.1-0.9-0.2-1.5c0.4,0.2,0.6,0.3,0.7,0.4
	c0.6,0.6,1.1,1.3,1.8,1.8c0.7,0.6,1.4,1.3,2.5,1c-0.1-0.5-0.2-0.9-0.4-1.3c0.9,0.4,1.7,0.7,2.3,1.4c0.4,0.5,0.9,1,1.5,1.2
	c0.9,0.4,1.8,1.1,2.9,0.7c-0.2-0.6-0.5-1-0.8-1.8c0.8,0.5,1.5,0.7,2,1.2c1.2,1,2.6,1.4,4,2.1c0.5,0.2,0.9,0,1.1-0.4
	c-0.2-0.4-0.4-0.7-0.6-1.1c1.4,0.7,2.7,1.5,3.9,2.3c0.8,0.5,1.8,0.9,2.8,0.5c-0.2-1.1-1.2-1.1-1.7-1.8c0.7-0.5,1.4,0,1.9,0.3
	c0.8,0.5,1.5,1.3,2.3,2c0.5-0.2,1.2,0.2,1.8-0.2c-0.3-0.7-0.5-1.2-0.7-1.8c0.1-0.1,0.1-0.2,0.2-0.3c1.5,0.7,2.8,1.7,4.3,2.3
	c0.5-0.9-0.5-1.4-0.4-2.1c1.3-0.2,2.5,0.2,3.3,1.3c0.3,0.4,0.7,0.5,1.2,0.3c0-0.4,0.1-0.9,0.1-1.3c0.6,0,1.2,0,1.8,0
	c0.6,0.6,1.1,1.4,2.1,1.4c0.1,0,0.3-0.1,0.3-0.1c-0.1-0.5-0.9-0.6-0.4-1.4c0.4,0.2,0.7,0.4,1.1,0.6c0.2,0.1,0.4,0.2,0.6,0.2
	c0.9-0.5,1.7-0.4,2.6,0c0.6,0.2,1.4,0.2,2,0.4c0.6,0.2,1.2,0.5,1.9,0.8c-0.8,0.9-1.7,1.5-2,2.7c-0.1,0.1-0.2,0.2-0.3,0.4
	c-0.2,0.1-0.5,0.1-0.7,0.3c-0.5,0.4-0.8,1-1.3,1.3c-2.3,1.7-4.1,4-6,6.1c-0.5,0.6-0.9,1.4-1.6,1.8c-0.7,0.4-1.2,1.1-1.9,1.6
	c-1.3,1-2.7,1.6-4,2.6c-1,0.8-2.2,1.2-3.2,1.8c-0.5,0.3-0.8,0.2-1.3,0c-2.9-0.9-5.7-2.1-8.6-3.1c-1.2-0.4-2.4-1.1-3.6-1.5
	c-1.7-0.6-3.4-1.3-5.1-2c-6.1-2.7-11.8-5.3-12-5.3c0,0,0,0,0,0c-0.4-0.2-0.7-0.2-1.3-0.1c-1.5,0.2-3,0.4-4.5,0.8
	c-0.6,0.2-1.6,0.2-1.5,1.2c-1.9,0.4-3.6,1.4-5.2,2.3c0,0,0,0,0,0c-2.4,1-4.7,2.1-6.8,3.1c-1.3,0.4-2.5,0.9-3.8,1.3
	c-0.6,0.2-0.8,0.6-1,1c0.1,0,0.3,0,0.4-0.1c-1.2,0.6-2,1.1-2.2,1.3c-0.2,0.2,12.9,11.2,14,11c0,0,0,0,0,0c-0.3,0.3-0.6,0.7-0.7,1.4
	c1.2-1.3,2.5-1.8,3.7-2.5c0.3-0.2,0.8-0.2,1-0.4c0,0,0,0,0.1,0c1.6-0.7,3.5-1.4,5.1-2c0.6-0.1,1.1-0.3,1.6-0.6
	c0.5-0.2,0.8-0.3,1.2-0.4c0.3,0,0.6,0,0.9,0.1c0.3,0.2,3.8,1.1,8,2.3c1.7,0.6,3.5,1.2,5.2,1.9c3.2,1.2,6.4,2.2,9.7,3.4
	c1.5,0.5,3,1.1,4.5,1.5c0.8,0.2,1.2,0.5,1.5,1.3c0.4,1,0.9,2,2,2.4c0.3,0.1,0.6,0.3,0.9,0.5c0.9-0.1,2,0.3,3.1-0.3
	c0.2-0.1,0.6,0,0.9,0.1c1,0.5,2.1,0.9,3.1,1.5c1.9,1,3.7,2.1,5.6,3.1c0.7,0.4,1.2,0.9,1.3,1.7c0,0.2,0.1,0.5,0.2,0.6
	c0.9,1.2,2.1,2.1,3.5,2.5c1.6,0.4,3.2,0.5,4.8,1c1.6,0.5,3.2,1,4.6,1.7c1.8,1,3.7,1.8,5.6,2.7c0.7,0.3,1.4,0.6,2.2,0.8
	c2,0.7,3.9,1.3,5.9,1.8c0.8,0.2,1.6,0.3,2.4,0.7c0.8,0.4,1.7,0.3,2.4,0.7c0.7,0.3,1.4,0.2,2,0.4c1.2,0.4,2.4,0.8,3.6,0.9
	c1.2,0.1,2.3,0.7,3.5,0.9c-0.4,0.9-0.5,1.7-0.7,2.5c-0.5,2.1-1.2,4.2-1.1,6.4c0.1,1.4,0,2.8,0,4.2c0,0.3-0.1,0.8,0.1,1
	c0.4,0.5,0.2,1,0.3,1.5c0.1,0.5,0.2,1.1,0.3,1.6c0.3,1.3,0.6,2.6,0.9,3.8c0.2,0.9,0.5,1.8,0.8,2.6c0.2,0.9,1.1,1.7,1,2.7
	c1,1.5,1.4,3.3,2.5,4.7c1,1.4,2.1,2.8,3,4.3c1.3,2.1,3.1,3.8,4.9,5.4c1.7,1.5,3.4,3,5.4,4c1.7,0.9,3.1,2.2,4.9,2.7
	c2,0.6,3.9,1.4,6,1.2c2.1-0.2,4.1,0.3,6.2-0.3c0.5-0.1,1,0,1.5,0c0.5-0.1,1-0.3,1.5-0.3c0.7,0,1.1-0.6,1.7-0.7
	c2.3-0.7,4.5-1.6,6.6-2.7c3.5-1.8,7.1-3.3,10.1-6c2.3-1.9,4.7-3.8,6.8-5.9c1.6-1.6,3.1-3.2,4.6-4.8c1.2-1.3,2.1-2.8,3.1-4.3
	c1.7-2.5,2.9-5.1,4.3-7.8c2.3-4.4,5.9-4,7.4-8.7c0.6-2,1-4.1,1.4-6.2c0.2-1.2-0.3-2.4,0.4-3.5C263.8,211.6,264.7,209.1,264.3,206.7z
	"/>
<path class="st1" d="M86.9,101.3c1.1-0.3,1.4-1.4,2-2.2c0.2,0.1,0.3,0.2,0.4,0.3c0.1-0.2,0.2-0.4,0.2-0.6c0.1,0,0.2,0.1,0.3,0.1
	c-0.1,0.7-0.2,1.4-0.3,2.1c0.5-0.2,1-0.5,1.4-0.7c0.3-0.7,0.6-1.3,0.7-1.9c0.2-0.6,0.2-1.3,0.3-2.1c-0.4-0.2-0.2-1.1-1.1-1.1
	c-0.1,0.1-0.3,0.3-0.4,0.4c0.9,1.3,0.8,2.5,0,3.7c0-1,0-1.9,0-2.6c-0.7-0.4-1.1-0.7-1.6-0.9c-0.5-0.2-0.3-1.2-1.2-1
	c0.1,0.5,0.1,1,0.2,1.5c-0.1,0-0.2,0.1-0.3,0.1c-0.2-0.5-0.4-0.9-0.8-1.6c-0.2,0.6-0.3,1-0.4,1.3c-0.1-0.1-0.3-0.2-0.4-0.4
	c-0.2-1.2-1-2-1.8-2.8c-1.8-1.9-4.8-2-6.8-1.5c-2,0.5-3.5,1.7-4.8,3.3c-0.9,1-1.3,2.3-1.6,3.6c-0.3,1.7,0.4,3.2,1.1,4.7
	c0.6,1.3,1.7,2.2,2.8,3.1c0.6,0.5,1.4,1,2.4,0.8c0.6-0.1,1.3,0,1.9,0c0.9,0,1.7-0.3,2.4-0.8c0.9-0.7,2-1.2,3-1.8
	c0.4-0.2,0.7-0.6,0.9-1c0.5-0.9,0.8-1.9,1.2-2.9c0,0.2,0,0.4,0.1,0.5C86.9,101.1,86.9,101.2,86.9,101.3z"/>
<path class="st2" d="M151.1,188.6c0.6,0.1,1.3,0.1,1.9,0.4c1.1,0.6,2.3,0.6,3.5,0.9c1.9,0.5,3.9,0.8,5.7,1.5
	c0.8,0.3,1.6,0.1,2.4,0.4c0.9,0.4,2,0.3,3.1,0.4c0.7,0.1,1.3,0.2,2,0.3c0.7,0.1,1.4-0.2,2,0.3c0,0,0.1,0,0.2,0
	c1.5-0.3,2.9,0.2,4.4,0.4c1.7,0.1,3.4,0.1,5,1.1c-0.3,1-1.4,1.1-2,1.9c-0.6,0.8-1.4,1.5-2.2,2.2c-0.7,0.7-1.4,1.4-2.1,2.1
	c-0.6,0.7-1.2,1.4-1.9,2.2c-0.9,0-1.8,0-2.7,0c0,0.1,0,0.1,0,0.2c0.7,0,1.4,0,2.2,0c0.1,0.3,0.1,0.4,0.1,0.5c-1.1,0.6-2.1-0.3-3.6,0
	c0.7,0.2,1.2,0.4,1.6,0.5c0.5,0.1,1-0.2,1.2,0.5c-0.8,0.6-1.6-0.6-2.5-0.1c0.4,0.2,0.8,0.4,1.1,0.5c0.3,0.1,1-0.3,0.7,0.7
	c-1.2-0.2-2.5,0.3-3.7-0.4c-0.1-0.1-0.3,0-0.5,0c-1.4,0.1-2.8-0.4-4.1-0.6c-1.7-0.2-3.3-0.6-4.9-1.1c-1.8-0.6-3.7-1.1-5.4-1.9
	c-1.1-0.5-2.3-0.9-3.5-1.3c-0.4-0.2-0.8-0.4-1.2-0.5c-0.6-0.2-1.1-0.4-1.8-0.6c-0.1-0.7-0.8-1-1.4-1.1c-0.7-0.1-1.1-0.7-1.8-0.7
	c-0.1,0-0.1-0.3-0.2-0.6c1.3,0.5,2.4,0.9,3.8,1.4c-0.3-0.4-0.4-0.5-0.5-0.6c0.1-0.1,0.1-0.2,0.2-0.2c0.9,0.2,1.8,0.4,2.6,0.7
	c3.1,1.2,6.3,2.2,9.5,3.3c0.6,0.2,1.1,0.1,1.6,0c-1.7-0.3-14.4-4.9-15.3-5.6c0.2-0.1,0.3-0.3,0.5-0.4c1.5,0.5,3.1,1.1,4.6,1.7
	c1.5,0.6,3,1.3,4.6,1.5c-2.7-1.2-5.4-2.3-8.3-3.6c0.8-0.5,1.1-1.3,1.9-1.6c0.5-0.2,0.9-0.3,1.5-0.1c0.7,0.3,1.4,0.6,2.1,0.8
	c1.3,0.2,2.6,0.8,4.3,0.7c-2.4-0.8-4.6-1.5-6.7-2.2c0-0.1,0-0.2,0.1-0.3c0.3,0,0.7,0,0.9,0.2c1.5,0.8,3.1,1,4.6,1.4
	c0.7,0.2,1.4,0.3,2.1,0.3c-2.3-0.9-4.9-1.4-7-2.8c2.2,0.8,4.4,1.4,6.7,1.8c-1.3-0.4-2.5-1-3.8-1.3c-0.9-0.2-2-0.5-2.8-1.6
	c0.4,0.1,0.8,0.1,1.1,0.2c1.1,0.3,2.2,0.7,3.4,0.9c0.8,0.1,1.6,0.3,2.4,0.1c-1.9-0.3-3.6-1.2-5.5-1.5
	C151,189.8,150.9,189.3,151.1,188.6z M173.2,196.1c0.6,0.7,1.6,0.5,2.4,0.9c0.4,0.2,1.2,0.2,1.7-0.1c1-0.6,2.2-1.1,2.6-2.4
	c-1.2-0.2-2.2-0.9-3.4-0.8c-0.8-0.8-1.4,0-2.2,0.2c1.1,0.5,2,0.9,3.2,1.4c-1.6,0.3-2.8-0.7-4.1-0.1c1.2,0.4,2.5,0.3,3.5,1.2
	C175.7,196.4,174.5,196.2,173.2,196.1z M159.5,191.7c3.4,1.2,6.8,2,10.3,2.1c-1.6-0.7-3.4-0.9-5.1-1.2
	C163,192.3,161.3,191.7,159.5,191.7z"/>
<path class="st2" d="M130.9,192c-1-0.5-2.2-0.8-3.1-1.4c-1.7-1.2-3.6-2.1-5.5-2.9c-0.3-0.1-0.6-0.3-0.9-0.5c0.7-0.5,1.3,0.1,1.9,0.3
	c0.5,0.2,1,0.8,1.7,0.4c-0.9-0.5-1.8-1-2.6-1.5c0.9-1.4,1.8-2.6,2.6-3.9c0.1-0.2,0.3-0.5,0.4-0.6c1-0.9,1.9-2,2.5-3.3
	c0.5,0.1,0.9-0.1,1.5,0.3c0.5,0.4,1.2,0.4,1.8,0.6c1.9,0.6,3.6,1.4,5.4,2.1c-0.2,0.7-0.4,1.3-0.6,1.9c-0.4,1-0.8,2.1-1.3,3
	c-0.5,0.9-1,1.8-1.8,2.5C132,189.8,131.7,191,130.9,192z M124.2,184.7c-0.4,0.6-0.7,1-1,1.5c0.9,0.4,1.8,0.7,2.5,1.2
	c1.1,0.8,2.3,0.5,3.8,0.6c-1.4-0.7-2.5-1.3-3.6-1.8c0.7-0.4,1.1,0.2,1.6,0.3c0.2,0.1,0.4,0.1,0.6,0.1
	C127,185.6,125.7,185.1,124.2,184.7z"/>
<path class="st2" d="M112.6,183.8c-1-0.5-2.2-0.8-3.1-1.4c-1.7-1.2-22.6-6.1-23.5-6.6c0.9-1.4-11.1,3.8-12.6,4.1
	c-1,0.2-13.9-10.1-13.7-10.2c1-0.9,18.7-9.1,25.3-10.1c0.5,0.1,25.4,10.7,26,11.1c0.5,0.4,1.2,0.4,1.8,0.6c1.9,0.6,3.6,1.4,5.4,2.1
	c-0.2,0.7-0.4,1.3-0.6,1.9c-0.4,1-0.8,2.1-1.3,3c-0.5,0.9-1,1.8-1.8,2.5C113.7,181.5,113.4,182.7,112.6,183.8z"/>
<g>
	<path class="st3" d="M182.2,221.9c0,0,0,0-0.1-0.1C182.1,221.8,182.1,221.8,182.2,221.9C182.1,221.9,182.1,221.9,182.2,221.9
		C182.1,221.9,182.1,221.9,182.2,221.9z"/>
	<path class="st3" d="M182.2,221.9C182.2,221.9,182.2,221.9,182.2,221.9L182.2,221.9z"/>
	<path class="st3" d="M249.9,202.1c2.8-15.1,0.5-32.1-7.2-50.2c-0.9-2.1-2.7-5.3-4.9-8.4c0.2-0.1,0.3-0.1,0.4-0.2
		c-0.2-0.1-0.4-0.2-0.6-0.2c0,0-0.1,0-0.1,0c-0.1-0.2-0.2-0.3-0.3-0.5c0.2-0.1,0.5-0.2,0.7-0.3c-0.4-0.6-0.9-0.7-1.4-0.6
		c-0.7-0.9-1.5-1.9-2.2-2.7c0.6-0.2,1.2-0.5,1.8-0.7c-2-3.3-4-6.5-6-9.7c-0.2-1.1-0.5-1.7-1.1-2.2c-0.6-0.5-1.1-1.2-1.6-1.9
		l-0.1-0.1c-0.5-0.7-1-1.4-1.6-2.1c0,0,0-0.1,0-0.1c0,0,0,0-0.1,0c-0.2-0.2-0.4-0.5-0.5-0.7c0-0.1,0-0.2,0-0.3c-0.1,0-0.1,0-0.2,0
		c-0.2-0.3-0.4-0.5-0.6-0.8c0.1,0,0.1-0.1,0.1-0.1c-0.2-0.2-0.3-0.3-0.5-0.5c0,0,0,0-0.1,0c-0.4-0.5-0.7-0.9-1.1-1.3
		c0.1,0,0.1-0.1,0.2-0.1c-2.5-3.3-5.3-6.3-8.3-9.1c-0.5-0.5-0.9-1-1.4-1.4c-0.1-0.1-0.2-0.3-0.3-0.3c-0.8-0.8-1.6-1.5-2.4-2.3
		c0,0,0,0,0.1-0.1c-0.2-0.1-0.4-0.3-0.6-0.4c-3.5-3.1-7-5.8-10.7-8.1c-0.3-0.2-0.7-0.5-1-0.7c0,0,0,0.1-0.1,0.1
		c-0.8-0.5-1.6-1-2.4-1.4c0,0,0,0,0,0c-0.1-0.1-0.2-0.2-0.4-0.2c-0.3-0.2-0.7-0.4-1-0.6c-0.1-0.1-0.2-0.2-0.3-0.3
		c-0.1,0-0.1,0.1-0.2,0.1c-0.1-0.1-0.3-0.1-0.4-0.2c0,0,0-0.1,0.1-0.1c-0.9-0.4-1.7-0.7-2.6-1.1c-1-0.4-1.9-0.8-2.9-1.2
		c-0.1,0-0.2-0.1-0.3-0.1c0,0,0,0,0,0c-0.2-0.1-0.3-0.1-0.5-0.2c0,0,0,0,0,0c-0.2-0.2-0.4-0.2-0.6-0.2c-0.8-0.3-1.6-0.6-2.5-0.8
		c-0.4-0.2-0.8-0.4-1.3-0.5c-0.5,0-0.9-0.4-1.3-0.6c0,0.1,0,0.2-0.1,0.3c-0.1,0-0.2,0-0.2-0.1c-0.1,0-0.2-0.1-0.3-0.1
		c0.1-0.1,0.1-0.2,0.2-0.3c-0.8-0.2-1.5-0.5-2.4-0.8c-0.1,0.1-0.2,0.2-0.3,0.4c-0.2-0.1-0.4-0.1-0.6-0.2c0.1-0.1,0.2-0.3,0.3-0.4
		c-0.7,0-1.1-0.1-1.7-0.1c-0.2-0.1-0.4-0.2-0.6-0.2c0-0.1,0.1-0.2,0.1-0.4c-0.4,0-0.6,0-0.9,0c0,0,0,0,0,0c-0.3-0.1-0.5-0.2-0.8-0.3
		c0,0,0,0,0-0.1c0,0-0.1,0-0.1,0c-1-0.4-1.9-0.8-2.7-1.1c-1.1-0.5-2.3-0.4-3.4-0.2c-1-0.1-2-0.2-2.9-0.4c-0.6-0.1-1.2-0.3-1.8-0.3
		c-0.6-0.1-1.3,0.1-1.9,0c-2.4-0.6-4.8,0-7.2-0.4c-3.1-0.5-6.1-0.1-9.1-0.3c-0.2,0-0.3,0-0.5,0c-0.2,1.2-0.4,2.4-0.5,3.5
		c-0.2-1-0.4-2.1,0-3.2c-0.3,0-0.7,0-1.1,0c0,0.1-0.1,0.2-0.1,0.3c0,1.1,0.1,2.2-0.6,3.3c0-1.3,0-2.5,0-3.6c-0.1,0-0.1,0-0.2,0
		c-0.2,1.1-0.4,2.1-0.5,3.2c-0.4-1-0.2-2.1-0.3-3.1c-1.1-0.6-2.2-0.6-3.3-0.2c-0.3,0.1-0.6,0.1-0.9,0.1c-1.8,0-3.6,0-5.4,0
		c-0.7,0-1.4-0.2-2.1-0.3c-0.7-0.1-1.4,0.1-2.2-0.3c-0.4-0.2-1,0-1.6,0c0.4,2.6,0.4,5.2-0.1,7.7c-0.3,0.2-0.6,0.3-1,0.5
		c0-1.8,0-3.7,0-5.5c-0.5,1-0.3,2.1-0.6,3.1c-0.3,1-0.1,2.1-0.1,3.3c-0.2,0-0.4,0-0.5,0c0.1-0.9,0.2-1.8,0.2-2.7c0-1.5,0-2.9,0-4.4
		c0-0.2,0-0.5-0.3-0.7c0,1.2,0,2.3,0,3.5c0,1.5,0.2,3.1-0.6,4.4c0.1,0.7-0.1,1.4,0.2,2.2c0.2,0.6,0.1,1.4,0.1,2.1
		c0,1.1-0.2,2.1-0.3,3.1c-0.1,1.1-0.4,2.1-0.6,3.2c-0.2,1-0.7,1.9-0.8,2.9c0,0.3-0.1,0.6-0.1,1c0.7-1.5,1.3-2.9,1.6-4.5
		c0.3-1.7,0.6-3.4,0.6-5.1c0-0.7,0.2-1.4,0.5-2c0,1,0.4,2.1-0.2,3.1c-0.1,0.2-0.1,0.5,0,0.8c0.2,1.1-0.3,2.2-0.4,3.3
		c0,1-0.5,2-0.7,3c-0.2,0.9-0.8,1.7-1.3,2.6c-1.4,2.4-3,4.7-4.9,6.7c-1.6,1.6-3.5,2.7-5.5,3.7c-0.3,0.1-0.5,0.2-0.8,0.4
		c0-0.5,0.3-0.6,0.6-0.7c2.9-1.3,5-3.6,7.2-5.8c0.2-0.2,0.4-0.6,0.5-0.9c0.4-1.3,1-2.5,1.6-3.7c0.7-1.6,1.1-3.2,1.7-4.8
		c0.1-0.3,0-0.6-0.1-0.9c-1.8,5.1-2.8,7.4-3.8,8.3c1.6-3.3,2.8-6.7,3.6-10.2c-0.7-0.7-1.4-1.4-2.2-2.2c0.9-0.2,1.3,0.2,1.6,0.6
		c0.2,0.3,0.5,0.4,0.8,0.8c0.2-0.8,0.3-1.5,0.4-2.3c-0.6-0.5-1.4-1-2.3-1.7c1.1-0.2,1.5,0.8,2.3,1c0-0.3,0.1-0.6,0.1-0.8
		c0-2.7,0-5.3,0-8c0-0.8-0.2-1.5-0.3-2.3c-0.1-0.8,0.2-1.6-0.3-2.3c0,0,0-0.1,0-0.2c0-0.7,0-1.3,0-2c-0.1-0.6-0.3-1.2-0.3-1.8
		c-0.1-0.8,0-1.5,0-2.3c-0.1-0.7-0.3-1.3-0.4-2c-0.1,0.1-0.2,0.2-0.5,0.4c0-0.5-0.1-0.9-0.1-1.2c0.3-0.1,0.4-0.2,0.7-0.3
		c-0.1-0.8-0.3-1.6-0.4-2.4c-0.1-0.8,0.3-1.7-0.3-2.5c-0.2-0.2,0-0.6,0-1c0.1-1.8-0.5-3.4-1.1-5.1c-0.4-1.1-1.2-1.9-2.1-2.7
		c-0.3-0.2-0.6-0.5-0.9-0.5c-1.2,0-2.5,0-3.7,0.2c-2.5,0.3-4.4,2-6.5,3.2c-1.4,0.9-2.9,1.8-4.2,2.9c-1.2,1.1-2.5,2.1-3.4,3.6
		c-0.4,0.8-1.1,1.4-1.7,2.1c-1.2,1.3-2.2,2.8-3.2,4.2c-0.4,0.5-0.8,1-1.2,1.4c-0.9,0.9-1.4,2.2-2.6,2.9c0,0.2,0.1,0.4,0,0.5
		c-0.6,0.8-1.3,1.5-1.9,2.3c0.3,0.1,0.6,0.3,1,0.3c0.3,0,0.5-0.1,0.8-0.2c1.1-0.1,2.1,0.5,3.1,0.8c1.6,0.4,3.1,1.2,4.6,2
		c-0.1,0.1-0.2,0.2-0.3,0.3c2.2,1.2,4.7,1.7,7.4,2.3c-1.6,0.3-2.9,0-4.1-0.3c-2.1-0.5-4-1.3-5.9-2.3c-0.5-0.3-1.1-0.4-1.7-0.7
		c-0.6-0.3-1.1-0.6-1.8-0.5c-0.4-0.7-1.1-0.3-1.7-0.6c-0.6-0.3-1.6-0.1-2.4-0.1c-0.7,0.1-1.5-0.3-2.1,0.3c-1.6-0.1-2.9,0.8-4.4,1.2
		c-1.5,0.4-2.7,1.2-4.1,1.9c-1.2,0.6-2.5,1.2-3.5,2.1c-0.1,0.1-0.3,0-0.5,0c-0.6,0.7-1.2,1.4-1.8,2c-1.4,1.4-2.6,3-3.7,4.6
		c-1.3,1.7-2.5,3.5-3.6,5.3c-0.5,0.7-1.1,1.4-1.7,2c-1.1,1-1.6,2.3-1.8,3.7c0.7,0.9,1.6,1.4,2.6,2c0.9,0.5,1.8,1.2,2.7,1.7
		c1.4,0.7,2.8,1.2,4.3,1.8c1.8,0.6,3.7,0.9,5.5,1.6c0.3,0.1,0.6,0,1,0c1.4,0,2.7,0,4.1,0c1.5,0.1,3.1,0,4.6,0.4
		c1.2,0.3,2.6,0.3,3.7,1.2c0.2,0.1,0.5,0.1,0.8,0.1c0.1,0.5,0.1,1.2,0.9,1.3c2,1.4,4.2,2.1,6.4,2.9c0.1,0,0.2,0.1,0.4,0.3
		c-0.4,0-0.7,0.1-0.9,0c-2.1-0.9-4.2-1.5-6.3-2.6c-0.9-0.4-1.9-0.8-2.8-1.2c-0.9-0.4-1.9-0.2-2.8-0.8c-0.1,0-0.2,0-0.3,0
		c-1.3-0.1-2.5-0.3-3.8-0.3c-1.2-0.1-2.5,0-3.8,0c0,0.4,0,0.8,0,1.3c-0.2-0.1-0.3-0.1-0.3-0.2c-0.2-0.9-0.9-1.3-1.7-1.4
		c-1-0.2-1.9-0.7-3-0.7c-0.5,0-1.1-0.3-1.6-0.5c-2.1-0.7-4-1.9-6-2.8c-0.7-0.3-1.5-0.7-2.3-1.1c-0.4,1.2-0.2,2.3,0.2,3.2
		c0.3,0.7,0.7,1.4,1.3,2.1c1,1.1,1.9,2.3,2.8,3.5c0.2,0.2,0.4,0.5,0.5,0.8c0.5,0.8,1.1,1.4,1.2,2.5c0,0.7,0.6,1.5,0.9,2.2
		c0.5,1.3,1.2,2.6,2,3.7c0.8,1.1,1.5,2.3,2.3,3.5c0.9,1.4,2.1,2.4,3.3,3.4c0.3,0.3,0.6,0.5,0.9,0.8c-0.1,0.2-0.2,0.3-0.3,0.4
		c2,2.2,4.4,3.7,6.9,5.1c0.7,0.4,1.5,0.9,2.2,1.3c2.5,1.2,5,2.3,7.6,3.2c1,0.3,2,0.9,3.1,1.1c1.1,0.2,2.2,0.6,3.1,1.1
		c0.6,0.4,1.3,0,2,0.4c0.7,0.4,1.7,0.3,2.6,0.4c0.7,0.1,1.4,0.3,2.1,0.4c0.6,0.1,1.2,0.2,1.8,0.2c0.6,0,1.2,0,1.8,0.3
		c0.5,0.2,1.2-0.2,1.7,0.3c0,0.1,0.2,0,0.3,0c2.7-0.1,5.3,0.6,8,0.3c0.6-0.1,1.1-0.3,1.7-0.3c0.6-0.1,1.2-0.1,1.8,0
		c2,0.4,4.1,0.1,6,0.4c1.4,0.2,2.9,0.3,4.3,0.9c0.4,0.2,1-0.1,1.6-0.2c0.7,0.3,1.5,0.6,2.6,1c-0.5-1-1.5-0.7-2.1-1.3
		c0.7-0.6,1.2,0.5,2,0c-0.5-0.2-0.9-0.4-1.3-0.6c0.5-0.2,0.7-0.1,1.4,0.2c0.2-0.3,0.5-0.6,0.7-0.9c0-0.1-0.2-0.2-0.3-0.3
		c0.3-0.4,0.5-0.9,0.8-1.3c0.1-0.1,0.2-0.3,0.3-0.3c1.2,0.2,1.3-1.1,1.9-1.6c0.4-0.4,0.5-1.1,0.6-1.7c0.1-0.4,0-0.8,0-1.2
		c-0.7-0.3-1.2-1.2-2.3-1.1c0,0.8,0.7,1,1.1,1.6c-1.9-0.4-3.3-1.7-5-2.3c0-0.1,0.1-0.2,0.1-0.3c0.6,0.2,1.2,0.4,1.8,0.6
		c0-0.2,0-0.5,0-0.8c-1.1-0.1-2-1-3.1-1.2c-0.2,0-0.5-0.2-0.7-0.2c-1,0.1-1.8-0.3-2.7-0.7c-0.8-0.3-1.7-0.7-2.5-1
		c-0.5-0.2-1.3-0.3-1.3-1.3c0.6,0.2,0.9,1,1.7,0.5c-2-1.5-4.5-2.3-6.3-4.1c0.1-0.1,0.1-0.2,0.2-0.3c0.9,0.5,1.9,1,2.8,1.6
		c0.9,0.5,1.8,1.1,2.9,1.6c-0.1-0.2-0.1-0.3-0.2-0.5c1.1,0.2,2.3,0.9,2.9,1.6c0.2,0.3,0.5,0.5,0.8,0.6c1.8,0.7,3.6,1.5,5.4,2.2
		c1.2,0.5,2.5,0.9,3.6,1.6c1.3,0.9,2,2.2,1.3,3.9c-0.4,1.1-0.8,2.2-1.2,3.3c-0.3,0.7-0.6,1.4-1.2,1.9c-0.5,0.5-1,1.1-1.4,1.7
		c-0.9,1.5-2.3,2.5-3.5,3.8c-0.1,0.1-0.4,0.1-0.6,0.1c-0.1,0.1-0.2,0.2-0.3,0.3c-1.3,1.5-2.6,2.9-4.2,4.1c-0.6,0.5-1.2,1.2-1.7,1.9
		c-1.1,1.4-2.4,2.6-3.8,3.8c-1.1,0.9-2.4,1.7-3.7,2.3c-0.1,0.1-0.3,0.2-0.4,0.3c-0.8,0.9-1.8,1.5-3,1.7c-0.1,0-0.2,0.2-0.3,0.2
		c0.3,0.3,0.6,0.6,0.8,0.8c0,1.3,0,2.3,0,3.2c0,0.8-0.3,1.5-0.6,2.2c-0.5,1.2-1,2.4-1.4,3.7c-0.2,0.8-0.3,1.6-0.4,2.4
		c0,0.2,0.1,0.5,0,0.6c-0.9,1.2,0.2,2.1,0.8,2.8c0.7,0.8,1.8,1.3,2.9,1.1c1-0.2,1.9-0.7,2.7-1.3c1.2-1.1,2.3-2.3,2.9-3.8
		c0.3-0.8,0.7-1.5,1.4-2c0.1-0.1,0.1-0.3,0.2-0.6c-1.2,0.9-1.8-0.2-2.7-0.4c0,0,0-0.3,0-0.4c0.5,0.2,1,0.4,1.5,0.6
		c-0.7-1-2.1-1.2-2.6-2.7c0.7,0.5,1.3,0.7,1.7,1.2c0.5,0.6,1.3,0.4,1.7,0.9c0.3-0.4,0.4-0.7-0.1-0.7c-0.7-0.1-1.3-0.4-1.7-0.9
		c-0.5-0.6-1.3-0.7-1.4-1.6c0.4,0,0.7,0,1.1,0c0.2,0.2,0.4,0.4,0.6,0.6c0.5,0,0.9,0,1.4,0c0-0.1,0-0.2-0.1-0.3
		c-0.3-0.4-0.9-0.6-0.9-1.4c0.9,0.7,1.7,1.4,2.6,2c0.7,0.2,0.9-0.5,1.4-0.9c-0.5-0.2-1-0.4-1.7-0.6c-0.2-0.2-0.6-0.6-1.1-1.2
		c0.4,0.1,0.6,0.1,0.8,0.2c0.6,0.3,1.1,0.7,1.6,1c1.2-0.1,1.8-0.9,2.5-1.5c1.2-1.2,2.5-2.3,3.8-3.4c0.1-0.1,0.4-0.1,0.6-0.1
		c0.6-0.7,1.5-1.1,2.2-1.9c0.6-0.7,1.6-1,2.1-1.8c1.2-0.5,1.8-1.8,2.9-2.4c1-0.5,1.8-1.1,2.4-2.1c0.4-0.8,1.1-1.4,1.7-2.1
		c2.5-2.9,4.9-5.8,6.7-9.3c0.3-0.5,0.7-0.9,1-1.4c0.2-0.5,0.4-1,0.6-1.7c-0.6-0.4-1.3-1-2-1.2c-0.8-0.2-1.6-0.6-2.8-0.8
		c1.4-0.4,2.3,0.2,3.2,0.6c1,0.4,1,0.5,1.9,0.5c0.8-1.9,0.8-1.9,0.8-6.5c-0.2-0.4-0.3-0.6-0.3-0.8c-0.4-1.1-1.2-2.1-2-2.9
		c-0.5-0.5-1-1-1.4-1.7c-0.4-0.6-1.1-0.9-1.7-1.4c-0.8-0.6-1.5-1.3-2.3-2c-0.9-0.9-1.9-1.4-3.2-1.3c-0.1,0-0.2,0-0.3,0
		c0,0-0.1-0.1-0.1-0.1c0.2-0.1,0.5-0.3,0.9-0.5c-1.5-0.8-2.6-1.8-4.2-2c-0.9-0.1-1.7-0.8-2.7-1c-0.9-0.2-1.6-0.7-2.6-1.1
		c0.4-0.1,0.7-0.1,1.4-0.3c-2.5-0.7-4.4-2-6.6-2.4c-0.7-0.6-1.5-0.3-2.3-0.3c-0.5,0-0.8-0.1-1.1-0.5c1.1-0.5,2,0.2,3,0.2
		c0.9,0.1,1.8,0.4,2.8,0.6c-0.8-0.4-1.5-1.1-1.9-1.8c-0.6-1.1-1.5-1.5-2.6-1.7c-0.6-0.1-1.1-0.8-1.9-0.1c-0.4,0.4-1.3,0.2-1.9,0.4
		c-1.8,0.7-3.8,2.4-4.4,3.9c-0.2,0.5-0.5,0.8-0.9,1.2c0.1-1,0.6-1.8,1-2.6c0.4-0.6,0.9-1.2,1.4-1.6c0.9-0.7,1.8-1.4,2.9-1.7
		c0.6-0.2,2.6-0.7,3-0.6c1.1,0.4,2.3,0.7,3.2,1.7c1,1.1,2.1,2,3.5,2.6c2.7,1.2,5.3,2.4,7.9,3.6c2.2,1,4.1,2.4,6.1,3.6
		c0.5,0.3,0.9,0.9,1.4,1.4c0.1,0.1,0.3,0.1,0.6,0.1c-0.6-0.8-1.4-1.4-1.2-2.6c1.7,1.3,3.3,2.7,4.5,4.7c0,0.1,0,0.4,0,0.6
		c0.5,0.4,1,0.8,1.4,1.2c0.3,0.3,0.5,0.7,0.7,1c0.7,1.2,1.4,2.4,1.9,3.6c0.3,0.7,0.8,1.4,0.4,2.4c-0.9-1.5-0.8-3.4-2.4-4.7
		c-0.2,1.4,1.3,2,1.2,3.3c-0.2-0.1-0.3-0.2-0.6-0.4c0.1,0.6,0.2,1,0.4,1.4c0.6,1.3,0.4,2.6-0.1,3.8c-0.8,1.9-1.4,3.9-2.5,5.6
		c-0.7,1.2-1.3,2.4-2.1,3.5c-0.6,0.9-1.2,1.7-1.6,2.8c-0.2,0.6-0.8,1-1.3,1.5c0.9,1.1,2.3,1.6,3.3,2.8c0.9-0.9,1.8-1.8,2.8-2.8
		c-0.2,0.4-0.2,0.6-0.3,0.8c-0.6,0.8-1.6,1.3-2,2.4c2.3,2.1,4.6,4.2,7,6.3c0.2-0.1,0.5-0.2,0.8-0.3c1-0.6,2-1.1,3-1.7
		c1.5-0.9,2.9-1.9,4.4-2.7c1.1-0.6,2.2-1.2,3.3-1.8c0.5-0.3,1-0.7,1.5-1.1c0.7-0.6,1.5-1,2.4-1.2c0.9-0.2,1.9,0,2.6-0.4
		c0.9-0.4,1.7-0.2,2.5-0.2c1.1-0.1,2.1,0.3,3.2,0.6c1,0.4,2.1,0.6,3.2,0.9c1.6,0.5,3,1.4,4.4,2.2c2.1,1.3,4.1,2.6,6.3,3.7
		c1.5,0.8,2.9,1.7,4.4,2.4c2.8,1.3,5.6,2.5,8.5,3.5c1.7,0.6,3.4,1.2,5.1,1.7c0.3,0.1,0.7,0.2,1.1,0.4c-0.5,0.2-0.9,0.2-1.4,0
		c-2.6-1-5.4-1.7-8-2.8c-0.2-0.1-0.5,0-1.1,0c3,1.6,5.9,2.4,8.7,3.6c-0.7-0.1-1.5-0.2-2.2-0.4c-4.3-1.4-8.5-3.1-12.4-5.3
		c-2.5-1.4-5-2.8-7.4-4.4c-2.3-1.5-4.7-2.9-7.3-4c-0.9-0.4-1.9-0.6-2.9-0.8c-1.5-0.3-2.9-0.4-4.4-0.3c-2.3,0-4.3,0.9-6.1,2.3
		c-0.5,0.4-1,0.8-1.5,1.1c-0.1,0.1-0.2,0.2-0.3,0.1c-1.5-0.1-2.4,1-3.5,1.7c-1.6,1-3.3,2-4.9,3c-1.4,0.9-2.8,1.9-4.3,2.6
		c-1.9,1-3.8,2.1-5.8,2.8c-1.5,0.5-2.9,1.2-4.4,1.7c-1.6,0.5-3.1,1.3-4.6,1.9c-1.2,0.5-2.3,1.4-3.3,2.2c-0.3,0.2-0.6,0.3-1.1,0.5
		c-0.3,0.9-0.7,2-0.9,3.1c-0.6,3-1.9,5.5-4,7.6c-0.5,0.5-0.9,1.2-1.1,1.8c-0.2,0.6-0.1,1.4-0.2,2c0.6,0.6,1.2,1.4,2.1,1.5
		c0.6,0.1,1.1,0.1,1.7,0.3c0.6,0.2,1.2,0.2,1.8,0.4c2.7,1.4,6.1,0,8-1.6c0.5-0.4,1-0.7,1.5-1.2c0.7-0.8,1.4-1.6,2-2.4
		c0.2-0.3,0.4-0.6,0.6-0.9c0.8-1,1-2.2,1.3-3.3c0-0.1-0.1-0.2-0.3-0.3c1.2-0.3,1.4-1.7,2.3-2.4c0.9-0.7,1.7-1.5,2.6-2.3
		c-0.2-0.2-0.3-0.4-0.5-0.7c0.4,0.1,0.7,0.2,1.2,0.3c1.7-0.9,3.6-1.9,5.5-2.8c1.4-0.6,2.8-1.2,4.2-1.7c0.7-0.3,1.5-0.6,2.3-0.8
		c0.8-0.3,1.5-0.5,2.3-0.7c0.1,0,0.2-0.1,0.3-0.1c1-0.1,2.1-0.3,3.1-0.3c1-0.1,2.1-0.1,3.1,0c0.8,0.1,1.6,0.3,2.3,0.7
		c0.5,0.2,0.9,0.4,1.6,0.2c-0.7-0.4-1.4-0.7-2-1c0-0.1,0-0.1,0-0.2c0.3,0,0.7,0,0.9,0.1c2.7,1.6,5.4,2.8,8.2,4.2
		c1.8,0.9,3.6,1.8,5.4,2.8c1.1,0.6,2.3,1.1,3.3,1.7c1,0.6,2.3,0.9,3.2,1.8c2.1,0.7,3.8,2.1,5.9,2.7c0.4,0.1,0.8,0.2,1.2,0.2
		c1,0,2,0,3.1,0c0,0.2,0.1,0.3,0.1,0.6c-1.4,0-2.8,0-4.3,0c2.1,1.9,4.1,3.7,6.8,4.4c-0.7,0.2-0.7,0.2-3.1-0.5
		c0.7,0.7,1.3,1.2,1.8,1.8c0.5,0.5,1.2,0.8,1.4,2.1c-2-2.1-3.8-3.9-6.2-4.9c0-0.2,0-0.5,0-0.7c-0.5-0.3-1.1-0.5-1.7-0.8
		c-0.7,0.5-1,1.3-0.9,2.2c0.9,0.5,1.8,1,2.6,1.6c1.8,1.4,3.7,2.9,5.3,4.6c1.2,1.3,2,2.7,2.6,4.3c0.2,0.5,0.5,0.9,0.6,1.4
		c0.3,1.3,0.7,2.5,0.7,3.8c0,1.3,0,2.6,0,3.9c1.2,1,3,0.8,4,2.5c-1.4-0.5-2.4-1.1-3.5-1.7c-0.7,0.9-0.7,1,0.3,1.6
		c1.1,0.7,2.4,1.2,3.3,2.2c0.1,0.1,0.2,0.3,0.2,0.6c-1.3-0.9-2.5-1.9-4.2-2.3c0,0.5,0,0.9-0.1,1.4c1.5-0.1,2.4,0.6,3,1.8
		c-0.4,0.1-0.7-0.2-1,0.2c-0.6-0.4-1.1-0.7-1.7-1.1c-0.7,0.6-1.9,3.2-2.6,5.6c0.3,0.4,0.7,0.9,1.1,1.4c-0.1,0.1-0.1,0.1-0.2,0.2
		c-0.4-0.3-0.7-0.6-1.1-1c-0.8,0.1-0.7,0.9-1.1,1.3c0.2,0.8,1.8,0.6,1.2,1.9c-0.6-0.3-1.1-0.6-1.7-0.9c-0.1,0-0.2,0-0.4,0
		c-0.1,0.2-0.1,0.4-0.2,0.5c-2.1,2.3-4.4,4.3-7.5,5.2c-0.8,0.2-1.7,0.4-2.6,0.5c-1.2,0.1-2.4,0.1-3.6,0c-1.4-0.1-2.8-0.3-4.1-0.7
		c-1.3-0.3-2.5-0.8-3.7-1.4c-2.4-1.3-4.5-3.1-5.6-5.7c-0.2-0.5-0.5-0.9-0.9-1.6c-0.1,0.8-0.1,1.3-0.1,1.9c-0.1,0-0.1,0-0.2,0
		c-0.2-0.6-0.4-1.3-0.6-2.2c-0.9-0.4-0.8-1.5-1.4-2.1c-0.1-0.1,0-0.3-0.1-0.5c0.8,0.3,0.7,1,1.1,1.6c0.2-0.2,0.4-0.4,0.5-0.6
		c0.1-0.2,0.2-0.5,0.3-0.7c-0.6-1.5-0.4-2.9,0.2-4.3c0.8-1.9,2.2-3.4,3.9-4.5c0.6-0.4,1.2-0.8,1.9-1c2-0.6,4.2-0.6,6.2,0.6
		c0.3,0.2,0.6,0.3,1,0.4c0,0,0.1-0.1,0,0c-0.3-0.3-0.6-0.6-1-1c0.9-0.6,1.3,0,1.8,0.2c0.5,0.2,0.9,0.6,1.2,1.1
		c-0.2-0.1-0.5-0.2-0.9-0.3c0.1,0.2,0.1,0.4,0.1,0.6c0.5,0.8,0.9,1.7,1.5,2.5c0.6,0.8,0.5,1.8,0.9,2.7c0.2,0.5-0.1,1.4-0.4,1.9
		c-0.4,0.7-0.6,1.4-1.2,2c-0.6,0.5-1.2,0.9-2,0.8c-0.7-0.1-1.3,0-2-0.2c-1.3-0.3-2-1.1-2.9-2c0.1-0.9,0.3-1.9,0.4-2.8
		c0.4-0.4,0.8-0.8,1.3-1.3c0.3,0.1,0.7,0.3,1.2,0.5c-0.7,0.5-1.2,0.9-1.8,1.3c0,0.5,0,1,0,1.5c0.5,0.5,1,1,1.6,1.6
		c0.6,0.1,1.4,0.3,2.1,0.3c1,0.1,1.6-0.5,2.1-1.3c0.8-1.3,0.9-2.6,0.1-4.1c-0.9-1.7-2-3-3.6-3.7c-1.8-0.8-2.4-0.7-4.5-0.4
		c-2.2,0.3-3.4,1.8-4.6,3.3c-0.6,0.8-1.1,1.7-1.4,2.8c-0.3,1.1-0.3,2.2-0.2,3.3c0.1,0.6,0.3,1.4,0.6,2c0.7,1.6,1.6,2.9,3.1,4.2
		c0.5-1.2-0.2-2.5,0.7-3.4c0.5,1.4-0.4,2.9,0.6,4.3c0.6-1.1-0.3-2.4,0.8-3.4c0,1.4,0,2.6,0,3.9c0.2,0.1,0.3,0.1,0.6,0.2
		c0-0.3,0.1-0.6,0.1-0.9c-0.1-0.8-0.1-1.2,0.3-2.1c0,1,0,1.9,0,2.9c0,0.5,0,0.5,0.8,1.1c0.2-0.9,0.3-1.6-0.3-2.5
		c0.2-0.1,0.5-0.2,0.6-0.3c0.1,0.8,0.3,1.8,0.5,3c0.2,0.2,0.5,0.4,0.8,0.7c0,0,0.1-0.1,0.1-0.1c-0.1-0.5,0.2-1-0.2-1.5
		c-0.2-0.3-0.1-0.9-0.1-1.5c0.6,0.8,0.6,0.8,0.7,1.6c0,0.5,0.1,1,0.3,1.5c0.2,0.5,0.7,0.7,1.3,0.4c-0.1-1-0.3-2-0.4-3.2
		c0.5,0.5,0.7,0.9,0.7,1.5c0,0.6,0.2,1.1,0.4,1.7c0.4,0,0.8,0,1.2,0c-0.3-0.9-0.8-1.7-0.5-2.8c0.6,0.8,0.5,0.8,0.6,1.3
		c0.1,0.5,0.2,1,0.3,1.4c0.3,0,0.6,0,0.9,0c-0.3-1.1-0.5-2.1-0.7-3.1c0.5,0.4,1,1.7,1.1,2.2c0.1,0.8,0.5,1.3,1.3,0.9
		c0.9-0.5,1.9,0.1,2.7-0.6c1.6,0.1,2.8-0.7,4.1-1.4c2-1.1,3.7-2.7,4.9-4.6c0.9-1.4,1.8-2.9,2.5-4.5c0.7-1.3,1.2-2.8,0.5-4.3
		c0-0.1-0.1-0.2,0-0.3c0.6-0.7,0.3-1.4,0.3-2.2c0.1-1.8,0.1-3.6-0.9-5.2c-0.1,0.5-0.1,1.1-0.2,1.7c-0.5-1.2-0.5-2.3-0.8-3.4
		c-0.4-1.3-1.1-2.5-1.9-3.6c-1.6-2.1-3.2-4.1-5.2-5.8c-2-1.7-4.2-3-6.7-4c-1.2-0.5-2.5-0.7-3.7-1.2c-0.5-0.2-1.3-0.3-1.8,0.4
		c-0.5,0.6-0.9,0.1-1.5-0.1c-0.1,0.2-0.3,0.5-0.4,0.8c-1,0-1.9,0-2.9,0c-0.2,0-0.5,0.3-0.7,0.4c1,0.3,2.1,0.2,3.2,1.1
		c-1.1-0.1-1.9-0.3-2.6-0.3c-0.8,0-1.6,0.2-2.7,0.3c0.4-0.4,0.6-0.6,0.8-0.8c-0.1-0.1-0.2-0.2-0.2-0.1c-1.2,0.7-2.6,1.3-3.6,2.3
		c-0.7,0.6-1.3,1.3-2,1.9c-0.3,0.3-0.6,0.6-1,0.7c-1.6,0.5-2.5,2-3.6,3c-0.2,0.2-0.4,0.6-0.6,0.9c-1.4,1.5-2.6,3.1-3.8,4.8
		c-0.3,0.4-0.4,0.8-0.5,1.2c-0.2,0.7-0.1,1.5-0.4,2.1c-0.3,0.5-0.2,1-0.3,1.5c-0.1,0.5-0.2,1-0.3,1.5c-0.1,0.6-0.3,1.1-0.3,1.7
		c-0.1,0.5,0.1,1.1,0,1.6c-0.5,1.3-0.2,2.6-0.3,3.9c-0.1,1.6,0.3,3.2,0.8,4.7c0.4,1.2,0.6,2.4,0.9,3.5c0.8,2.3,1.9,4.4,3,6.6
		c0.3,0.5,0.6,1.1,0.9,1.7c0.2-0.3,0.4-0.4,0.6-0.6c-0.3-1-1-1.9-1-3.1c0-1.1,0-2.2,0.6-3.3c0.2,0.8,0.1,1.5,0.1,2.3
		c0,0.8,0,1.5,0,2.7c0.3-0.6,0.6-0.8,0.6-1.1c0.2-0.5,0.2-1.1,0.4-1.6c0.1-0.2,0.3-0.3,0.7-0.7c-0.3,1.3-0.7,2.3-0.7,3.4
		c0,1-0.3,2.1-0.4,2.9c0.9,1.2,1.6,2.3,2.4,3.3c0.6,0.8,1.3,1.6,2.1,2.2c0.6,0.4,1,0.9,1.6,1.3c1.5,1.2,2.8,2.6,4.4,3.6
		c1.8,1.2,3.7,2.4,5.9,3c0.8,0.3,1.7,0.4,2.5,0.6c2,0.4,4,0.3,6.1,0.3c0.8,0,1.6,0.2,2.5-0.3c0.6-0.3,1.5-0.1,2.3-0.3
		c1-0.3,2-0.5,3-0.7c1.2-0.2,2.3-0.7,3.5-1.1c1.1-0.3,2.1-0.8,3.2-1.3c0.5-0.2,1-0.5,1.5-0.8c-0.1-0.2-0.2-0.4-0.4-0.8
		c0.3,0,0.5,0,0.6,0.1c0.6,0.4,1,0.3,1.6-0.1c0.9-0.6,1.8-1.1,2.7-1.6c2-1.2,3.9-2.5,5.7-3.9c1.6-1.3,3.2-2.6,4.6-4.1
		c-0.2-0.1-0.4-0.2-0.5-0.3c0.4-0.4,0.8-0.8,1.2-1.1c0,0,0.1,0,0.1,0c0,0-0.1,0-0.1-0.1c0.4-0.4,0.8-0.9,1.3-1.3
		c0.2,0.2,0.5,0.4,0.7,0.5c1.5-1.8,2.8-3.5,4.3-5.3c-0.2-0.2-0.3-0.4-0.5-0.6c0.1-0.2,0.3-0.4,0.4-0.5c0.1,0.1,0.2,0.2,0.3,0.3
		c0.1-0.1,0.1-0.3,0.3-0.5c-0.1-0.1-0.1-0.2-0.2-0.3c0.1-0.2,0.3-0.4,0.4-0.6c0.1,0.1,0.2,0.2,0.4,0.3c0.2-0.6,0.4-1,0.5-1.3
		c0,0-0.1-0.1-0.1-0.1c1.9-2.7,3.5-5.6,4.9-8.6c0-0.1,0.1-0.1,0.1-0.2c0,0,0,0,0,0c0.3-0.7,0.6-1.3,0.9-2c0.1,0.1,0.2,0.1,0.3,0.2
		c-0.1-0.1-0.1-0.3-0.2-0.4c0.1-0.3,0.3-0.7,0.4-1c0.9-0.5,0.9-1.5,1.4-2.3c-0.1-0.2-0.3-0.3-0.4-0.4c0.2-0.7,0.4-1.4,0.6-2
		c0.1,0,0.2,0.1,0.3,0.1c0.6-1.6,0.7-3.3,1-5c0,0-0.1,0-0.1,0c0.1-0.3,0.1-0.6,0.2-0.8C249.9,202.7,249.9,202.4,249.9,202.1z"/>
</g>
<g>
	<path d="M91.9,95.8c-0.1-0.3-0.3-0.8-1.1-0.8l-0.1,0l-0.6,0.7l0.1,0.2c0.2,0.3,0.3,0.6,0.4,0.8l-0.1-0.1c-0.2-0.1-0.4-0.2-0.6-0.4
		c-0.4-0.2-0.7-0.4-1.1-0.6c-0.1,0-0.2-0.2-0.3-0.4c-0.1-0.3-0.4-0.8-1.1-0.6l-0.2,0.1l0.2,1.1l-0.7-1.6l-0.5,1.6
		c-0.2-1.2-1-2-1.7-2.8l-0.2-0.2c-0.5-0.5-1-0.8-1.5-1.1c0.3,0.1,0.6,0.2,0.9,0.4c0.1,0,0.2,0.1,0.3,0.1c0.1,0,0.2,0,0.4-0.1
		c0.1,0,0.3-0.1,0.6-0.1l1.1-0.1l-3.8-1.3l1.8,0.2l0-0.6l-0.1,0c0.4,0.1,0.8,0.2,1.2,0.4c0.6,0.3,1.3,0.6,2.2,0.5l1-0.1l-0.9-0.4
		c-0.4-0.2-0.7-0.3-1-0.5c-0.9-0.4-1.7-0.8-2.7-0.8c-0.2-0.2-0.5-0.3-0.7-0.3c0,0,0,0,0,0c-0.4,0-0.8,0.3-1,0.6
		c-0.1,0.1-0.3,0.1-0.4,0.1c-0.5-0.5-1-0.3-1.3-0.1c-0.1,0-0.2,0.1-0.3,0.1c-0.2,0.1-0.5,0.1-0.7,0.2c-0.9,0.3-1.7,0.6-2.6,0.4
		l-0.3-0.1l0.1,0.9h0.2c0.1,0,0.3,0,0.4,0c0.1,0,0.2,0,0.3,0c-0.1,0-0.2,0-0.3,0.1c-1.8,0.4-3.3,1.5-5,3.3c-0.8,0.9-1.3,2.1-1.6,3.7
		c-0.3,1.7,0.4,3.3,1.1,4.8l0,0.1c0.6,1.3,1.7,2.3,2.8,3.1c0.8,0.6,1.5,0.9,2.3,0.9c0.1,0,0.2,0,0.3,0c0.4-0.1,0.9,0,1.4,0
		c0.2,0,0.4,0,0.6,0c0.9,0,1.8-0.3,2.6-0.8c0.5-0.4,1.1-0.7,1.6-1c0.5-0.3,0.9-0.5,1.4-0.8c0.4-0.3,0.8-0.7,1-1.1
		c0.3-0.6,0.6-1.3,0.9-2c0,0,0,0,0,0l0.1,0.3l0.3-0.1c0.9-0.2,1.3-0.9,1.7-1.5c0.1-0.2,0.2-0.4,0.4-0.5l0.5,0.3l0,0l-0.3,1.6
		l1.9-0.9l0-0.1c0.1-0.2,0.2-0.4,0.3-0.6c0.2-0.4,0.4-0.9,0.5-1.3c0.1-0.5,0.2-0.9,0.2-1.4c0-0.2,0.1-0.4,0.1-0.7l0-0.2l-0.2-0.1
		C92,96.1,92,95.9,91.9,95.8z M84.7,102.2c0,0-0.1,0-0.1,0.1c-0.1,0.1-0.2,0.1-0.3,0.2c-1.1,1.7-2.6,2.5-4.8,2.6
		c-1.7,0.1-3-0.3-4.2-1c-1.5-0.9-2.4-2-2.7-3.3c-0.3-1.3-0.3-2.6,0.2-3.7c0.6-1.3,1.3-2.4,2.3-3.3c1.2-1.1,2.4-1.6,3.8-1.6
		c0,0,0.1,0,0.1,0c0.2,0,0.3,0,0.5,0c0.6,0,1.1,0,1.7,0.2c1.6,0.7,2.6,1.6,3.2,2.7l0.1,0.1c0.1,0.2,0.3,0.5,0.4,0.7
		c0.8,1.1,0.9,2.3,0.7,3.9c0,0.3-0.2,0.6-0.4,1c-0.1,0.2-0.2,0.4-0.3,0.5l-0.1,0.1l0.4,0.5l-0.2,0.4L85,102L84.7,102.2z M90.7,98.4
		v-1.7C90.9,97.3,90.9,97.8,90.7,98.4z"/>
	<path d="M101.3,134c-0.3-0.1-0.5-0.2-0.8-0.3c-0.4-0.1-0.9-0.3-1.3-0.4c-1-0.3-2-0.7-3.1-0.8c-0.7-0.1-1.4-0.3-2.1-0.5
		c-0.8-0.2-1.7-0.5-2.5-0.6c-1.2-0.2-2.5-0.6-3.7-1c-1.4-0.5-2.8-1.2-4.2-1.8c-0.6-0.3-1.2-0.6-1.8-0.9c-0.2-0.1-0.4-0.2-0.6-0.2
		c-0.2-0.1-0.3-0.1-0.5-0.2l-0.5-0.2c-1.1-0.5-2.1-0.9-3-1.6c0.9,0.4,1.8,0.7,2.7,1c0.5,0.2,0.9,0.4,1.4,0.6
		c0.4,0.2,0.9,0.4,1.4,0.6c0.3,0.1,0.7,0.2,1,0.3c0.5,0.1,0.9,0.2,1.3,0.4c0.5,0.3,1,0.4,1.5,0.6c0.3,0.1,0.7,0.2,1,0.3
		c0.6,0.3,1.2,0.4,1.9,0.4c0.6,0,1.3-0.1,2-0.4l1.5-0.5h-3.2c-0.1-0.7-0.7-0.8-1-0.9c-0.1,0-0.2,0-0.2-0.1c-0.9-0.3-1.8-0.6-2.7-0.8
		c-0.8-0.2-1.7-0.5-2.5-0.8l-0.8-0.3c-2.3-0.8-4.8-1.5-7-2.7c-0.2-0.1-0.4-0.1-0.7-0.1c-0.1,0-0.3,0-0.5,0h-1l0.8,0.5
		c1.1,0.6,2.1,1.1,3.1,1.5l-0.4,0.3c-0.2-0.1-0.4-0.2-0.6-0.3c-0.7-0.4-1.5-0.8-2.3-0.9l-0.1,0l0.1-0.1l-0.2-0.2
		c-0.3-0.2-0.5-0.4-0.8-0.6c-0.6-0.5-1.2-1-1.9-1.4c-0.8-0.6-1.8-1.2-2.9-1.6l-1-0.4l0.8,0.8c1.5,1.5,3.2,3,5.3,3.9l0.2,0.1l0.2-0.2
		l0.2,0.1c0.4,0.3,0.8,0.6,1.2,0.8l0.2,0.1c0.3,0.2,0.7,0.4,1,0.5c0.8,0.4,1.6,0.8,2.2,1.4c0.9,0.8,2,1.5,3,2.1
		c0.5,0.3,1,0.6,1.4,0.9c0.4,0.2,0.7,0.5,1.1,0.7c0.6,0.4,1.3,0.8,1.9,1.3l0.1,0h1.5l1.1,1l0.6-1.2l-0.2-0.1
		c-1.3-0.6-2.5-1.3-3.2-1.9c0.2,0.1,0.4,0.1,0.6,0.2c1.3,0.5,2.7,1,4,1.5c1.1,0.4,2.5,0.8,3.8,1.1c1,0.2,2,0.5,3,0.7l0.4,0.1
		c0.2,0.1,0.4,0.2,0.7,0.2c0.7,0.3,1.4,0.6,2.3,0.2c0,0,0.2,0.1,0.3,0.1c0.1,0.1,0.3,0.1,0.4,0.1c0.2,0,0.4,0,0.6,0.1
		c0.1,0,0.2,0,0.2,0l0.2,0l0.3-0.6l-0.2-0.1C101.5,134.1,101.4,134.1,101.3,134z"/>
	<path d="M107.9,127.4l2.5-0.2l-1.6-0.3c-1.3-0.3-1.4-0.3-2.1,0l-0.1,0c-0.1,0-0.3,0.1-0.4,0.1l-0.3,0c-0.4,0-0.8-0.1-1.2-0.2
		c-0.9-0.3-1.9-0.1-2.8,0.2c-0.3,0.1-0.7,0.1-1.1,0c-0.2,0-0.4,0-0.6,0h-1.8c-0.2,0-0.4,0-0.5,0c-0.5,0-0.9-0.1-1.3,0.1
		c-0.2,0.1-0.5,0.1-0.8,0.1c-0.3,0-0.6,0-0.9,0.2h0c-0.3,0.2-0.5,0.1-0.8,0c-0.2-0.1-0.4-0.1-0.7-0.1c-1.1,0.1-2.1,0.1-3.2-0.3
		c-0.2-0.1-0.4,0.1-0.6,0.3c-0.1,0.1-0.1,0.2-0.2,0.2l-0.4,0.3l0.5,0.1c0.3,0.1,0.5,0.1,0.8,0.2c0.5,0.1,1,0.2,1.5,0.3
		c0.5,0.1,1.1,0,1.6,0c0.2,0,0.5,0,0.7,0h2.4c0.1,0,0.2,0,0.3,0c0.1,0,0.3,0,0.4,0c0.6,0.3,1.2,0.5,1.8,0.6c0.4,0.1,0.7,0.2,1.1,0.3
		c0.5,0.2,1,0.3,1.5,0.4c0.5,0.1,1,0.2,1.4,0.3c0.1,0,0.1,0,0.2,0c0.1,0,0.2,0,0.4-0.1c0.1,0,0.2-0.1,0.4-0.1l0.8-0.1l-0.7-0.3
		c-0.2-0.1-0.3-0.2-0.5-0.2c-0.3-0.1-0.5-0.2-0.7-0.3c-0.2,0-0.4,0-0.6,0c-0.2,0-0.5,0-0.6,0c-0.5-0.2-1.1-0.4-1.6-0.5
		c-0.4-0.1-0.8-0.2-1.1-0.3c0.5,0.1,1,0.2,1.6,0.3c1.4,0.3,2.8,0.6,4.2,0.6l0.7,0l-0.6-0.4c-0.4-0.3-0.8-0.6-1.3-0.5
		c-0.3,0-0.6,0-0.9-0.2c1.8-0.1,3.7,0.1,6,0.8l0.2,0.5l0.5-0.2c0.2-0.1,0.3-0.1,0.4-0.1c0.1,0,0.2,0,0.4-0.1l1.4-0.3l-1.6-0.4
		C109.3,127.7,108.6,127.5,107.9,127.4z"/>
	<path d="M98.1,102.8c0.8-1,1.3-2,1.7-3.1c0.1-0.3,0.1-0.6,0.2-0.8c0.1-0.4,0.1-0.7,0.3-1c0.1-0.1,0.1-0.3,0.2-0.4
		c0,0.1,0,0.3,0,0.4c0,0.3,0,0.5,0,0.7c-0.1,0.3-0.2,0.7-0.2,1c0,0.2-0.1,0.3-0.1,0.5c0,0.1-0.1,0.2-0.1,0.3
		c-0.1,0.2-0.4,0.7,0.1,1.1l0.2,0.2l0.2-0.2c0.5-0.7,0.7-1.6,0.9-2.4c0.1-0.4,0.1-0.7,0.2-1.1c0.1-0.3,0.2-0.6,0.3-1
		c0.1,0.4,0.2,0.9,0.5,1.5l0.1,0.3l0.2-0.1c0.5-0.3,0.7-0.9,0.5-1.4c-0.3-0.7-0.3-1.4-0.3-2.1c0-0.3,0-0.6,0-0.9v0
		c0-0.1-0.1-0.2-0.1-0.3c0,0,0-0.1,0-0.1l-0.1-0.2l-0.8,0l0,0.2c0,0.1,0,0.3,0,0.4c0-0.1,0-0.1,0-0.2l-0.1-0.2l-0.9,0.1v0.2
		c0,0.2,0,0.4,0,0.5c0,0.4,0,0.7,0,1c0,0.2-0.1,0.4-0.1,0.7c0-0.2,0-0.5,0-0.7c0-0.3,0-0.6,0-0.9c0-0.2-0.1-0.4-0.4-0.6
		c-0.1-0.1-0.2-0.2-0.3-0.4l-0.4-0.5l0,1.8c0,0.8,0,1.5,0,2.2c0,0.6-0.1,1.1-0.7,1.4c-0.2,0.1-0.3,0.4-0.4,0.6c0,0,0,0,0,0l-0.4-1.2
		l-1,3.2l0.3,0.3l-0.4,0.7l1.4,0.7L98.1,102.8z"/>
	<path d="M165.9,132.3c0.1-0.1,0.3-0.1,0.4-0.2c0.2-0.1,0.3-0.2,0.4-0.2c0.6-0.2,1-0.5,1.1-0.8c0.1-0.3,0.1-0.6-0.1-1
		c-0.1-0.2-0.1-0.3-0.2-0.5c-0.1-0.5-0.3-1-0.9-1.3c-0.2-0.1-0.3-0.3-0.4-0.5c-0.1-0.1-0.1-0.2-0.2-0.2l-0.1-0.1l-0.1,0
		c-0.2,0-0.4,0-0.5,0c-0.6,0-1.2,0-1.6,0.7l0,0.1v2.5l2,1.6L165.9,132.3z M165.6,128.7c0.7,0.4,1,1,1.3,1.8c0,0-0.1,0.1-0.1,0.1
		c-0.3,0.3-0.5,0.5-0.8,0.4L165.6,128.7z"/>
	<path d="M146.4,117c0.3,0.2,0.7,0.5,1.1,0.5c0.4,0.1,0.8-0.1,1.2-0.2c0.1,0,0.2-0.1,0.3-0.1l0.8,1.3l0.8-1.5l-0.7-0.7
		c-0.5-0.5-1-0.9-1.4-1.4c-0.7-0.7-1.5-1-2.4-0.7l-0.2,0.1v2.3l0.1,0.1C146.1,116.8,146.3,116.9,146.4,117z"/>
	<path d="M181.1,199.3c0.9-0.8,1.8-1.1,3-1.3c0.3-0.1,0.6-0.1,0.8-0.1c0.8-0.1,1.6-0.2,2.3-0.7c0.1-0.1,0.4-0.1,0.6-0.1
		c0.3,0,0.7,0,1,0c0.3,0,0.6,0,0.9,0c0.2,0,0.3-0.1,0.3-0.2c0,0,0,0,0,0l0.2-0.2l-1.3-0.7l-0.1,0.1c-0.1,0-0.1,0.1-0.2,0.1
		c-0.3,0.2-0.5,0.3-0.9,0.1c-1.7-0.7-3.4,0-4.7,0.6c-0.3,0.2-0.6,0.4-0.9,0.6c-0.2,0.1-0.3,0.2-0.5,0.3l-0.1,0
		c-0.5,0.3-1.1,0.6-1,1.6l0,0.5L181.1,199.3z"/>
	<path d="M109,130.8c-0.3,0-0.5,0-0.7,0l0,0c-0.3,0-0.6,0-1,0c-0.6,0-1.2,0-1.9,0.2c-0.8,0.3-1.9,0.6-3,0.4c-0.4-0.1-0.8,0-1.2,0
		c-0.6,0-1.2,0.1-1.8-0.2c-0.3-0.2-0.7-0.1-1.1-0.1c-0.1,0-0.3,0-0.4,0l-1.3,0.1l1.3,0.4c1.7,0.6,3.2,0.9,4.6,1c0.1,0,0.3,0,0.4,0
		c1,0,1.9-0.2,2.8-0.4c0.6-0.1,1.3-0.3,2-0.3l0.1,0l0.1-0.1c0.1-0.2,0.3-0.2,0.7-0.2c0.4,0,0.8,0,1.2-0.4l0.4-0.4h-0.6
		C109.3,130.8,109.1,130.8,109,130.8z"/>
	<path d="M175.5,144.6v0.2l0.1,0.1c0.1,0.1,0.3,0.1,0.5,0.1c0.1,0,0.1,0,0.2,0c0.2-0.1,0.3-0.3,0.3-0.5l0.7,0.4v-3.2
		c0.1,0.4,0.1,0.8,0.1,1.2c0,0.4,0,0.9,0.1,1.3l0.1,0.4l0.3-0.3c0.1-0.1,0.1-0.1,0.2-0.2c0.1-0.1,0.2-0.2,0.3-0.3
		c0.3-0.6,0.1-1.1-0.1-1.6c-0.1-0.4-0.3-0.7-0.1-1.1l0.1-0.1l-0.1-0.1c-0.3-0.4-0.7-0.7-1.3-0.6l-0.1-0.2v0.2c-0.1,0-0.1,0-0.2,0.1
		c-0.7,0.3-1.1,0.9-1.2,1.6c0,0.6,0,1.3,0,1.9C175.5,144.1,175.5,144.3,175.5,144.6z"/>
	<path d="M233.1,151.9c2-0.6,3.8-0.9,5.7-0.8l0.3,0l-0.2-0.9l-0.2,0c-0.4,0-0.8,0-1.2,0c-0.9,0-1.9,0-2.9,0.2
		c-1.2,0.1-2.4,0.4-3.7,0.8c-0.8,0.3-1.7,0.6-2.5,1c-0.3,0.1-0.7,0.3-1,0.4l-1.8,0.7l2-0.3C229.2,153,231,152.5,233.1,151.9z"/>
	<path d="M171,120.5L171,120.5l2.7-0.6v-2l-1.8-1.9l-0.2,0.1c-0.3,0.2-0.7,0.4-1.2,0.5c-0.7,0.2-1.3,0.4-1.8,1.1l-0.1,0.1l2,2.8
		L171,120.5z M170.1,117.8c0.4-0.2,0.8-0.4,1.2-0.5c0.1,0,0.3,0,0.4,0c0.1,0,0.1,0,0.2,0l1,1l0,0.1c0,0.1,0,0.3,0,0.5
		c0,0.4-0.2,0.5-0.6,0.6c-0.1,0-0.2,0-0.3,0c-0.3,0-0.7-0.1-1,0.2l-1.2-1.6C169.9,117.9,170,117.9,170.1,117.8z"/>
	<path d="M234,181.3c0.1,0.1,0.2,0.1,0.3,0.1v0c0.9,0.1,1.8,0,2.7,0c1.5,0,3-0.1,4.5,0.3c0.4,0.1,0.9,0.2,1.3,0.2
		c0.7,0.1,1.4,0.2,2.1,0.4c0.2,0.1,0.4,0.1,0.6,0.1c0.2,0,0.3,0,0.5,0c0.1,0,0.3,0,0.4,0h1.6l-1.5-0.5c-4.1-1.4-6.9-1.5-12.7-1.2
		l-1.1,0.1l1,0.4C233.8,181.2,233.9,181.3,234,181.3z"/>
	<path d="M230.3,175.4c0.1,0.1,0.2,0.1,0.3,0.1c0.1,0,0.2,0,0.4,0c0.6,0,1.1-0.1,1.6-0.2c0.7-0.1,1.4-0.3,2.1-0.1l0.1,0l0.1-0.1
		c0.6-0.4,1.2-0.4,1.9-0.3c0.3,0,0.5,0.1,0.8,0.1c0.3,0,0.5,0,0.8,0c0.7-0.1,1.3-0.1,1.9,0.2c0.7,0.4,1.8,0.1,2.5-0.1l1-0.3l-1-0.2
		c-4.8-0.8-8.7-0.7-12.4,0.3l-0.6,0.2L230.3,175.4C230.3,175.3,230.3,175.4,230.3,175.4z"/>
	<path d="M146.8,102.5c0,0.3,0,0.6,0.1,0.9l0,0.1l2,0.6v-1.7l-0.6-0.7l0.5-0.9l-1.9-1.2l-0.1,0.3c0,0.1-0.1,0.2-0.1,0.4
		c-0.1,0.3-0.3,0.6-0.1,0.9C146.8,101.6,146.8,102,146.8,102.5z"/>
	<path d="M210.9,244.2c0-0.1-0.1-0.1-0.1-0.2l-0.1-0.2c-0.3-0.7-0.6-1.4-1.2-2c-0.4-0.4-0.5-0.9-0.7-1.6c-0.1-0.3-0.2-0.5-0.2-0.8
		c0-0.1-0.1-0.2-0.1-0.3l-0.2-0.8l-0.3,0.5c-0.6,1-0.2,1.7,0.2,2.3c0.1,0.2,0.2,0.4,0.3,0.6c0.5,1.5,1.2,2.8,2.2,4.2l0.5,0.6v-0.8
		c0-0.2,0-0.3,0-0.5c0-0.3,0-0.4,0-0.6C211.1,244.5,211,244.4,210.9,244.2z"/>
	<path d="M116.6,106.6c0-0.1,0.1-0.3,0.1-0.4c0.1-0.3,0.1-0.6,0.2-0.8c0.6-0.8,0.8-1.7,0.8-2.8c0-0.1-0.1-0.2-0.2-0.3
		c0,0-0.1-0.1-0.1-0.1l-0.2-0.2l-0.5,0.6l-0.1-1l-0.6,0.1v5.3l0.6-0.1L116.6,106.6z"/>
	<path d="M115.4,126.4l0-2.3l-0.5,2.3c-0.7,3.2,0.8,7,3,7.5l0.9,0.2l-0.7-0.6C116.2,131.7,115.4,129.7,115.4,126.4z"/>
	<path d="M186,199.1c-0.7,0.3-1.4,0.6-2,0.9c-0.4,0.2-0.8,0.4-1.3,0.6c-0.2,0.1-0.3,0.3-0.4,0.5c0,0.1-0.1,0.1-0.1,0.2l-0.9,1.5
		l1.3-1.2c0.4-0.3,0.8-0.5,1.4-0.6c0.6-0.2,1.2-0.3,1.6-0.8c0.1-0.1,0.2-0.2,0.4-0.2c0.3-0.1,0.6,0,0.9,0l2.5-0.1l-0.7-0.4
		C187.7,198.8,187,198.7,186,199.1z"/>
	<path d="M215.5,190l-0.1,0l-0.2,0.6l-2.7-1.2l2.3,2.4l2.8-0.5l-0.1-0.3C217,190.2,216.4,189.9,215.5,190z"/>
	<path d="M80.2,120.2L80.2,120.2l0.2,0.1c0.1,0,0.2-0.1,0.3-0.1c0.2-0.1,0.2-0.1,0.3,0l0.2,0.3l0.6-1.2l-1.5-1.5l-0.2,0.1
		c-0.4,0.4-0.7,0.7-0.8,1.1C79.4,119.4,79.7,119.7,80.2,120.2z"/>
	<path d="M79.9,95.9c-0.6-0.3-1.2-0.2-1.6,0C78.2,96,78.1,96,78,96c-0.6,0.1-1.3,0.4-1.7,1.2l-0.1-0.9l-0.4,0.4
		c-0.4,0.5-0.9,1.2-0.5,1.8c0.1,0.1,0.2,0.3,0.2,0.4c0.4,0.7,0.8,1.4,1.7,1.8c0.6,0.3,1.1,0.3,1.6,0.3c0.3,0,0.6,0,0.8,0l0.1,0
		l0.1-0.1c0.1-0.2,0.2-0.5,0.4-0.7c0.3-0.5,0.6-1,0.8-1.6C81.5,97.6,81.1,96.6,79.9,95.9z"/>
	<path d="M252.9,194.7c-0.3-2.7-0.4-5.6-0.4-8.7l0-0.2c0.1-0.4,0.1-1.2-0.3-1.6c0,0,0-0.1,0-0.6c0-0.3,0-0.7-0.1-0.9
		c-0.1-0.7-0.2-1.3-0.3-1.9c0-0.2,0-0.3,0-0.5c0-0.7,0-1.6-0.3-2.5c0-0.9-0.2-1.8-0.3-2.6c-0.2-0.7-0.3-1.5-0.3-2.2l0-0.1l-0.1-0.1
		c-0.1-0.2-0.2-0.3-0.3-0.3l0,0c-0.1-0.2-0.1-0.4-0.1-0.7c0-0.3,0-0.6-0.1-0.9c-0.4-1.3-0.8-2.7-1.1-4.1c-0.4-1.8-0.9-3.6-1.5-5.3
		c-0.6-1.9-1.2-3.6-1.8-5.2h1.4l-1.6-0.6c-1.9-5.4-3.7-9.8-5.5-13.6c0-0.3,0-0.6,0-0.9l0-1.1l-0.1,0.5c-0.2-0.5-0.4-1-0.6-1.5
		l-0.3-0.6c-0.7-1.6-1.5-3.2-2.4-4.8c-0.2-0.4-0.4-0.7-0.7-1c-0.2-0.3-0.5-0.6-0.6-1c-0.4-1.1-1-2-1.7-2.8c0-0.2,0-0.4,0-0.4l-0.2,0
		v0l0.2,0c0,0,0-0.4,0-0.4v-0.1l-0.4-0.4c-0.2-0.2-0.6-0.6-0.9-1.1c-0.4-0.5-0.8-1-1.1-1.2l-0.2-0.2c0-0.3-0.1-0.6-0.3-0.8
		c-0.1-0.2-0.2-0.3-0.3-0.5l1.3-0.7l-2,0c-0.1-0.1-0.1-0.1-0.2-0.2l-0.5-0.5l0,0l-0.1-0.2c-0.7-1.4-1.5-3.2-3.1-4
		c-0.4-1.3-1.4-2.6-2.6-3.3l0.2-0.2l-0.9-1c-0.1-0.1-0.2-0.2-0.3-0.4c-0.2-0.3-0.4-0.6-0.7-0.8l0.4-0.2h0.5l-0.4-0.4
		c-0.2-0.2-0.4-0.4-0.6-0.7c-0.4-0.5-0.9-1.1-1.4-1.4c-0.3-0.2-0.8-0.4-1.2-0.5c-0.8-1.7-2.1-3.6-4.4-3.9c-0.3-0.1-0.5-0.2-0.7-0.5
		l0.1-0.3c0.1-0.5,0.3-0.9,0.3-1.2l0-0.2l-0.2-0.1c-0.2-0.1-0.4-0.3-0.7-0.4c-1.1-0.6-2.2-1.3-3.6-1.7c-0.4-0.1-0.6-0.2-0.7-0.2
		l-0.1-0.4c-0.1-0.2-0.1-0.5-0.2-0.8c-0.1-0.3-0.2-0.7-0.3-0.9l-0.1-0.2l-0.2,0c-1.2,0-2.2-0.2-3.2-0.8l1.4-0.7l-0.2-0.2
		c-1-1-2.4-2.4-3.9-2.7c-0.6-0.2-1.1-0.3-1.6-0.4c-0.4-1-1.4-1.4-2.1-1.6l0-0.1l-0.9-0.7c-1.1-0.8-2.5-1.3-4-1.4
		c-0.1-0.2-0.2-0.3-0.5-0.5c-0.6-0.4-1.1-0.5-1.5-0.5c-0.1,0-0.1,0-0.2,0c-0.1,0-0.3,0-0.4-0.1c0,0,0,0,0-0.1l0-0.1l0-0.1
		c-0.4-0.5-0.8-0.9-1.6-1.2c-0.6-0.2-1.1-0.1-1.5,0l-0.5-2.1l-1.2,0c-0.2,0-0.4,0-0.6,0l-1-0.3c-0.7-0.2-1.5-0.4-2.4-0.4l-0.1-0.1
		c-1-0.7-2-1.5-3.2-1.5l0.2-1.4l-0.3,0c-0.4,0.1-1,0.2-1.7,0.3c-0.5,0.1-1,0.2-1.4,0.3l0.1-0.2l-1.9-0.5c-0.9-0.3-2.1-0.2-3.1,0.2
		c-0.1-0.3-0.3-0.6-0.5-0.7c-0.3-0.3-0.6-0.4-0.9-0.5l-0.6-0.2l-0.6,0.4c0,0-1.3,0.8-1.8,1.1l-0.4-0.8l-0.8,0
		c-0.5,0-0.9,0.1-1.1,0.1c0,0-0.1,0-0.1,0c-0.9-0.3-1.7-0.1-2.3,0.3c-0.2-0.5-0.5-1.1-0.5-1.2l0-0.1l-0.1,0
		c-0.1-0.1-0.3-0.2-0.5-0.2c-0.2-0.1-0.5-0.2-0.6-0.3l-1.1-0.5l-1.7,2.2h-0.1c-0.4-1.3-1.2-2.4-2.1-3.5l-0.2-0.3l-0.2,0.3
		c-0.3,0.4-0.8,1.2-1.3,2c-0.3,0.4-0.6,0.9-0.8,1.3c0-0.1-0.1-0.1-0.1-0.2c-0.6-1.2-1.9-1.2-3-1.2c-0.1,0-0.3,0-0.4,0l0-2l-0.4,0.2
		c-0.3,0.2-0.7,0.3-1,0.5c-0.9,0.4-1.9,0.8-2.6,1.5l-0.8-0.8c-0.4-0.4-0.8-0.8-1.1-1.1l-0.2-0.2l-1,1.5c-0.1,0.1-0.2,0.3-0.4,0.5
		c-0.1,0.1-0.3,0.3-0.5,0.5c-0.2-0.3-0.5-0.6-0.7-0.8c-0.1-0.1-0.3-0.3-0.4-0.5l-0.2-0.2l-2.5,2c-0.4,0.4-0.8,0.5-1.5,0.5l-4.6,0
		l-0.5,0c-0.5-0.1-0.9-0.3-1.3-0.3c-0.3-0.1-0.7-0.1-1-0.2c-0.7-0.1-1.4-0.2-2.1-0.5l0.1-1.4l-0.6,1.3c-0.1,0-0.3-0.1-0.4-0.1
		c-0.4-0.1-0.8-0.2-1-0.3c0.1-0.7,0.1-1.7-0.2-2.4c-0.1-0.5-0.1-1-0.2-1.6c-0.1-1-0.2-2.1-0.3-3c0-1.3-0.2-2.8-0.4-4.3
		c-0.1-0.4-0.1-0.8-0.2-1.2c0-0.4,0-0.9-0.1-1.2c0-0.2-0.1-0.4-0.1-0.6c-0.1-0.2-0.1-0.4-0.1-0.6c-0.1-2-1-4.1-2.2-5.5l0,0
		c-0.1-0.1-0.2-0.2-0.3-0.4c-0.3-0.3-0.6-0.5-0.7-0.6l-0.4-0.2c-1.6-1.5-4-2-5.8-1.3c-4.3,0.5-7.8,3.2-11.1,5.8
		c-0.6,0.4-1.1,0.9-1.7,1.3c-2.7,2.3-4.9,5.2-7,7.9c-0.9,1.2-1.9,2.5-2.9,3.7c-0.3,0.4-0.7,0.9-1.1,1.5c-0.4,0.5-1.4,1.5-1.2,2.7
		l0.1,0.9l-0.2,0.2c-0.3,0.2-0.5,0.5-0.8,0.7c-0.5,0.5-1,0.7-1.6,0.8c-0.6,0.1-1.2,0.3-1.8,0.5l-0.3,0.1c-2.1,0.6-4,1.3-5.8,2
		c-2.4,1-4.3,2.2-5.7,3.9c0,0,0,0,0,0c-0.2,0-0.4,0-0.5,0.1c-0.9,0.8-1.7,1.6-2.6,2.3c-0.8,0.7-1.4,1.7-1.9,2.5
		c-0.4,0.6-0.8,1.2-1.3,1.8c-0.3,0.4-0.7,0.9-1,1.3c-0.3,0.4-0.5,0.8-0.8,1.2c-1.1,1.6-2.1,3.3-3.6,4.6c-0.5,0.5-0.9,1.2-1.2,1.9
		l-0.1,0.1c-0.3,0.7-0.7,1.5-0.4,2.5l1.9,2l-0.8,0.8l0,0.1c-0.2,1.9,0.3,3.6,1.6,5.4c0.8,1.2,1.8,2.5,3,4c1.2,1.5,1.8,2.9,1.9,4.4
		c0,0.9,0,1.8,0,2.8c0,0.5,0,0.9,0,1.5v0.4l1.9-1c0.7,0.9,0.8,1.9,0.8,2.9c0,0.4,0.1,0.8,0.1,1.3c0.2,1.2,0.4,2.2,0.9,3.1l0.1,0.1
		l0.1,0c0.6,0,1.3,0,1.4-1c0-0.1,0.1-0.3,0.2-0.4c0.2,0.4,0.3,0.8,0.4,1.2c0.1,0.5,0.2,1.1,0.5,1.5c0.1,0.2,0.3,0.5,0.4,0.8
		c0.3,0.7,0.6,1.5,1.6,1.8l0.2,0.1l0.5-1.4l0.6,0.6c0.7,1.7,1.6,3.3,3.5,4.3l0.2,0.1l0.1-0.1c0,0,0.1-0.1,0.1-0.1
		c0,0,0.1-0.1,0.1-0.1c0,0,0.1,0,0.1,0c0,0,0,0,0,0c0.3,0.3,0.6,0.6,0.9,1c0.8,0.9,1.6,1.9,2.9,2.3l0.1,0l1.3-0.7
		c0.9,1,1.9,1.9,3.5,2l0,0.2l0.3-0.2c0.1,0,0.2-0.1,0.2-0.2l0-0.2l-0.1-0.1l-0.1-0.8c0.1,0.1,0.2,0.1,0.2,0.1
		c0.2,0.2,0.4,0.4,0.6,0.6c0.4,0.4,0.7,0.8,1.2,1.1l0.2,0.2c0.7,0.5,1.4,1.1,2.5,0.8l0.3-0.1l-0.3-1c0.7,0.3,1.2,0.6,1.6,1.1
		c0.4,0.5,1,1,1.6,1.2c0.2,0.1,0.4,0.2,0.5,0.2c0.7,0.3,1.5,0.7,2.5,0.4l0.3-0.1l-0.6-1.3c0,0,0.1,0,0.1,0.1
		c0.4,0.2,0.8,0.4,1.1,0.6c0.9,0.7,2,1.1,3,1.5c0.3,0.1,0.7,0.3,1,0.4c0.6,0.3,1.2,0.1,1.4-0.5l0.1-0.1l-0.3-0.4
		c0.8,0.4,1.5,0.8,2.1,1.2c0.3,0.2,0.6,0.4,0.9,0.6c0.8,0.4,1.8,0.9,2.9,0.5l0.2-0.1l0-0.2c-0.1-0.7-0.6-1-1.1-1.3
		c-0.2-0.1-0.3-0.2-0.4-0.3c0.4-0.1,0.7,0.1,1.2,0.4l0.1,0.1c0.5,0.3,1,0.8,1.5,1.2c0.2,0.2,0.5,0.4,0.7,0.6l0.1,0.1l0.1-0.1
		c0.2-0.1,0.4,0,0.6,0c0.4,0,0.8,0.1,1.2-0.2l0.2-0.1l-0.8-1.7c0.5,0.2,1,0.5,1.5,0.8c0.8,0.5,1.7,0.9,2.6,1.2l0.2,0.1l0.1-0.2
		c0.4-0.6,0.1-1.1-0.1-1.4c-0.1-0.1-0.2-0.3-0.2-0.4c1.1-0.1,2.1,0.2,2.8,1.2c0.4,0.5,0.9,0.6,1.4,0.3l0.1-0.1l0.1-1.1h1.4
		c0.1,0.1,0.2,0.2,0.2,0.2c0.5,0.5,1,1.1,1.9,1.1c0,0,0,0,0,0c0.2,0,0.3-0.1,0.4-0.1l0.2-0.1l0-0.2c0-0.3-0.2-0.4-0.4-0.6
		c-0.2-0.1-0.2-0.2-0.2-0.3l0.1,0.1c0.3,0.1,0.5,0.3,0.8,0.4l0.1,0c0.2,0.1,0.5,0.2,0.7,0.1c0.7-0.4,1.4-0.4,2.3,0
		c0.4,0.1,0.8,0.2,1.1,0.2c0.3,0,0.6,0.1,0.9,0.1c0.4,0.1,0.8,0.3,1.2,0.5c0.1,0,0.2,0.1,0.2,0.1c-0.1,0.1-0.2,0.2-0.3,0.3
		c-0.6,0.6-1.2,1.1-1.5,2l0,0.1c-0.1,0-0.2,0-0.2,0c0,0-0.1,0-0.1,0l0,0c0,0-0.1,0-0.1,0c-0.1,0-0.2,0-0.3,0.1
		c-0.4,0.2-0.6,0.4-0.9,0.7c-0.1,0.1-0.2,0.2-0.3,0.3c-1.7,1.3-3.2,2.7-4.4,4l-1.4,1.4l-0.7,0.7c-0.2,0.2-0.3,0.4-0.4,0.5
		c-0.2,0.3-0.5,0.6-0.8,0.8c-0.3,0.1-0.6,0.3-0.9,0.6c-0.9,1-2,1.6-3.2,2.3c-0.5,0.3-1.1,0.6-1.7,1c-0.6,0.4-1.2,0.7-1.9,1.1
		c-0.5,0.2-1,0.5-1.5,0.8c-0.2,0.1-0.3,0.1-0.6,0c-1.8-0.5-4.5-1.5-6.5-2.3c-0.4-0.2-0.9-0.3-1.3-0.5c-0.8-0.3-1.6-0.5-2.4-0.9
		c-1.6-0.7-3.3-1.3-5-1.9c-2-0.8-4.2-1.5-6.1-2.4l-1.2-0.5c-2-0.9-4-1.8-6.1-2.6c-0.4-0.2-0.8-0.2-1.2-0.2c-1.8,0.1-3.4,0.4-5,0.8
		l-0.2,0c-0.3,0.1-0.6,0.1-0.9,0.3c-0.3,0.1-0.6,0.5-0.7,0.9c-1.7,0.4-3.2,1.2-4.7,2c-1,0.6-2.1,1.2-3.3,1.6c-1.3,0.5-2.7,1-4,1.4
		c-0.8,0.3-1.6,0.5-2.3,0.8c-0.1,0-0.2,0.1-0.3,0.1c-0.3,0.1-0.5,0.2-0.8,0.3c-0.5,0.3-0.8,0.7-1,1.1c-0.1,0.2-0.2,0.3-0.3,0.5
		l-0.4,0.4l1.3-0.1c0.4,0,0.7-0.1,1-0.2c0.1,0,0.2-0.1,0.4-0.1l1.2-0.3c3.9-0.9,7.5-2.5,11.7-4.8c0.4-0.3,0.9-0.5,1.3-0.7
		c1-0.5,2-1,2.9-1.8c2-0.5,3.9-0.5,5.6-0.2c0.5,0.1,1,0.4,1.4,0.7c0.1,0.1,0.2,0.1,0.3,0.2l-0.3,0.1l1.3,1.2c1.2,0.8,2.7,1.4,4,1.9
		c0.6,0.2,1.2,0.4,1.7,0.7l0.2,0.1c0.6,0.4,1.5,0.9,2.4,0.6l0.1,0c0.3,0.2,0.7,0.5,1.1,0.5c0.8,0.2,1.6,0.5,2.4,0.9
		c0.4,0.2,0.7,0.3,1.1,0.5c1.1,0.4,2.3,0.9,3.4,1.4l0.1,0c0.3,0.1,0.6,0.3,1,0.4c0.5,0.2,1.1,0.5,1.7,0.7l0.1,0
		c1.3,0.4,2.6,0.9,3.8,1.4c0.2,0.1,0.5,0.1,0.7,0.1c0.1,0,0.2,0,0.3,0l1.2,0.1l-1.1-0.6c-0.2-0.1-0.4-0.2-0.6-0.4
		c1.1,0.3,2,0.6,2.9,0.7l0.1,0c0.3,0,0.4,0.1,0.6,0.2c0.4,0.3,0.5,0.7,0.4,1.2c0,0.2-0.1,0.5-0.1,0.7c-0.1,0.5-0.2,1-0.3,1.4
		c-0.8,1.9-1.7,4.1-1.8,6.4c-0.1,0.4-0.2,0.6-0.4,0.7c0,0-0.1,0-0.1-0.1l-0.1,0c-2.2-0.6-4.5-1.4-6.6-2.2c-1.8-0.7-3.8-1.4-5.6-1.9
		c-0.7-0.2-1.4-0.5-2-0.8c-1.4-0.5-2.9-1.1-4.3-1.4c-0.6-0.2-1.2-0.4-1.9-0.6c-1.3-0.4-2.6-0.9-4-1.1l0-0.1
		c-0.1-0.4-0.1-0.7-0.2-0.9l-0.1-0.3l-0.3,0.1c0,0-0.9,0.4-1.1,0.6c-0.3,0-0.6,0-1,0c-0.4,0-0.9,0-1.2,0c-2.3,0-4.6,1-6,1.8
		c-0.7,0.4-1.3,0.6-2.1,0.4c-0.2,0-0.3,0-0.4,0l0-0.1l-0.3,0.3c-0.2,0.1-0.2,0.2-0.2,0.4l0,0.4c-0.7,0.3-1.4,0.6-1.8,1
		c-0.1,0.1-0.2,0.1-0.3,0.2c-0.3,0.2-0.6,0.3-0.9,0.6c-0.8,0.7-0.9,1.7-0.9,2.6c0,0.3,0,0.6-0.1,0.9l-0.1,0.8l1-1
		c0.9-0.9,1.9-1.9,3.1-2.4l1-0.5c0.1,0,0.1-0.1,0.2-0.1l0.1,0c0,0,0.1,0,0.1,0c0.2,0,0.5-0.1,0.9-0.4c0.4-0.5,1.2-0.7,1.9-1
		c0.5-0.2,0.9-0.3,1.2-0.5c0.2-0.1,0.5-0.1,0.8-0.2c0.2,0,0.3,0,0.4,0c0.6-0.1,1.2-0.3,1.7-0.5c0.4-0.2,1-0.5,1.5-0.3
		c0.6,0.2,1.3,0.3,2,0.5l1.8,0.4c1.3,0.3,3.6,1.1,5.1,1.6l0.6,0.2c1.8,0.5,4.3,1.4,6.9,2.3c3.9,1.3,7.9,2.7,10.5,3.4
		c0.6,0.1,0.7,0.4,0.9,0.9c0.1,0.2,0.2,0.5,0.4,0.8c0.5,1,1.7,1.6,2.6,2.1c0.1,0.1,0.3,0.1,0.4,0.2l0.1,0l0.1,0c0.3-0.1,0.7,0,1.1,0
		c0.7,0,1.6,0,2.3-0.3c0,0,0,0,0,0c0.1,0,0.3,0.1,0.4,0.2l1.1,0.5c1.4,0.6,3.1,1.5,4.8,2.4c0.9,0.5,1.7,0.9,2.5,1.3
		c0.4,0.2,0.5,0.4,0.6,0.7c0,0,0,0.1,0,0.2c0,0.2,0.1,0.6,0.3,0.8c1,1.2,2.3,2.1,3.7,2.6c0.7,0.2,1.5,0.3,2.2,0.5
		c2.3,0.5,4.4,0.9,6.4,1.8c0.8,0.3,1.6,0.8,2.5,1.2c1.4,0.7,2.9,1.4,4.1,1.9c2.7,1,5.5,1.9,8.9,2.7c0.5,0.1,0.8,0.3,1.2,0.4
		c0.3,0.1,0.7,0.2,1.1,0.3c0.4,0.1,0.8,0.2,1.1,0.3c0.6,0.2,1.1,0.3,1.5,0.3c0.2,0,0.4,0,0.5,0.1l0.5,0.1c1,0.3,2.1,0.6,3.2,0.8
		c0.6,0,1.2,0.2,1.8,0.4c0.1,0,0.3,0.1,0.4,0.1c-0.5,1.6-0.9,3.1-1.3,5.1c-0.2,1.1-0.2,2.3-0.2,3.3c0,0.5,0,1,0,1.6c0,0.6,0,1.3,0,2
		c0,0.2,0.1,0.7,0.3,1c0,0,0,0,0,0c0,0.3,0,0.8,0.1,1.1c0.2,1.2,0.5,2.4,0.8,3.5l0.1,0.4c0.3,1.4,0.7,2.7,1.2,3.9
		c0.1,0.3,0.2,0.5,0.4,0.7c0.2,0.3,0.4,0.7,0.4,0.9l0,0.4l0.1,0.1c0.5,0.6,0.8,1.4,1.2,2.2c0.5,1,1,2,1.6,2.8
		c0.5,0.7,1.1,1.4,1.6,2.2c1.3,1.8,2.6,3.6,4.2,5c3.9,3.6,9.3,7.8,16,9.1c1,0.2,2.1,0.2,3.1,0.2c0.3,0,0.5,0,0.7,0
		c0.2,0,0.5,0,0.8,0c0.4,0,0.8,0,1.3,0c0.9,0,1.9-0.1,2.8-0.3c0.4-0.1,0.5-0.1,0.8-0.1c0.2,0,0.4,0,0.9,0c0.3,0,0.6-0.1,0.8-0.2
		l0.2-0.1c0.1,0,0.2,0,0.3,0c0.1,0,0.3,0,0.6-0.1c0.4-0.1,0.7-0.3,1-0.4c0.1-0.1,0.3-0.1,0.4-0.2c2.8-0.8,5.5-2,8-3.2
		c5.9-2.5,10.8-6.4,15.2-10.2c0.6-0.6,1.2-1.2,1.9-1.8c2-2,4.1-4,5.6-6.3c1.8-2.5,3.3-5.2,4.8-7.9c0.3-0.5,0.5-1,0.8-1.5
		c2.2-4.1,4.5-8.6,5.8-13.6c0.1-0.5,0.2-0.9,0.3-1.4c0.3-1.4,0.7-2.8,0.6-4.3c0-0.7,0-0.9,0.3-1.3l0.1-0.1l-0.1-0.5
		c-0.1-0.9,0-1.8,0.2-2.9C252.8,196.5,252.9,195.7,252.9,194.7z M230.9,125.7L230.9,125.7L230.9,125.7L230.9,125.7z M219.2,128.3
		c-0.1,0.1-0.2,0.2-0.3,0.3l-0.6,0c0.1-0.1,0.3-0.2,0.4-0.3H219.2z M213.7,134.6c-0.3,0.1-0.4,0.2-0.6,0l0.2-0.2l0.3,0.1
		c0.1,0,0.2,0.1,0.4,0C213.8,134.5,213.8,134.6,213.7,134.6z M244.1,162.1l-0.1,0l0,0C244.1,162.1,244.1,162.1,244.1,162.1z
		 M247,171.5c0.1,0.1,0.2,0.2,0.3,0.4c-1-0.3-2-0.5-3-0.7L247,171.5z M248.9,204.2c0,0,0,0.1,0,0.1l-0.7-0.5
		C248.5,203.9,248.7,204,248.9,204.2z M189.7,219.5c0.2,0.2,0.4,0.4,0.6,0.6c0.2,0.2,0.5,0.5,0.7,0.7l-0.6,1.2l0-0.9l-1.4,1.3
		l-0.6-1.8l-1.3,1.3c-0.5,0.4-0.7,1-0.8,1.7c-0.8-1.1-1.4-2.4-1.6-3.7c-0.4-2.1,0.3-4.2,1.7-5.8c1.2-1.4,2.1-2.1,3.2-2.3
		c0.7-0.1,1.3-0.2,2-0.2c0.7,0,1.3,0.1,2,0.5c1.3,0.6,2.9,2.1,3.4,3.8c0.3,0.9,0.2,1.7-0.3,2.3c-0.4,0.8-0.9,0.8-1.7,0.6l-1-0.2
		l-1-1l0-0.4c0.3-0.2,0.6-0.5,1-0.7c0.6-0.5,1.3-0.9,1.7-1.3l0.3-0.3l-0.4-0.2c-0.3-0.1-0.8-0.3-1.3-0.6c-0.5-0.2-1.1-0.5-1.5-0.6
		l-0.8-0.3l-0.1,0.1c-0.2,0.2-0.5,0.5-0.8,0.8c-0.4,0.4-0.7,0.8-0.9,1l-0.3,0.3L189.7,219.5L189.7,219.5z M169,201.2l0,0.7
		c0,0-0.1,0-0.1,0l-5.7,1.3c0,0-0.1,0-0.1,0c-1.2-0.2-2.4-0.4-3.5-0.7c0.2,0,0.4,0,0.6-0.1l4.3-0.6l-1.4-0.3c-2.1-0.5-4.3-1-6.2-1.6
		l2.9,0.5l-11.7-5.5c0.2-0.2,0.4-0.3,0.6-0.4c0.3-0.1,0.4-0.1,0.5-0.1l1.2,0.5c0.4,0.2,0.9,0.3,1.4,0.4l0.5,0.2
		c1.2,0.3,2.4,0.7,3.8,0.5l5.7-0.6l0,0c0.4,0,0.8,0,1.1,0l1.5,0.1l-6.9-2.6c-0.1,0-0.2-0.1-0.4-0.1l0.1-0.6l1.7-0.3l0.4,0.1
		c3.8,1.3,7.2,2,10.4,2.1l1.3,0l-1-0.5c0.2,0,0.4,0,0.5,0c0.3,0,0.3,0,0.6,0.2c0.2,0.1,0.6,0.2,0.8,0.2c0.5-0.1,1-0.1,1.6,0
		c0.1,0,0.2,0,0.3,0.1l2.5,1.1c-0.2,0-0.4-0.1-0.7-0.1c-0.8-0.2-1.5-0.3-2.3,0.1l-0.5,0.3l0.6,0.2c0.4,0.1,0.8,0.2,1.3,0.3
		c0.4,0.1,0.8,0.1,1.1,0.3l-3.2-0.4l0.5,0.5c0.4,0.5,1,0.6,1.5,0.7c0.3,0.1,0.6,0.1,0.9,0.3c0.2,0.1,0.4,0.2,0.7,0.2
		c-0.1,0.1-0.2,0.1-0.2,0.2c-0.7,0.7-1.4,1.3-1.9,1.8l-1.5,1.7l-1.2,0c-0.8,0-1.6,0-2.1,0L169,201.2z M155,190.2
		c0.4,0.1,0.8,0.2,1.3,0.3c0.3,0.1,0.5,0.1,0.8,0.2C156.4,190.6,155.7,190.4,155,190.2z M151.8,189.5c-0.1,0-0.3,0-0.4-0.1
		c-0.1-0.1-0.1-0.2-0.1-0.3c0,0,0,0,0,0c0.1,0,0.1,0,0.2,0c0.2,0,0.4,0.1,0.4,0.1c0.3,0.1,0.5,0.1,0.8,0.3c0.5,0.2,1,0.4,1.5,0.6
		C153.5,189.8,152.7,189.6,151.8,189.5z M187.9,182l0.7,0.3c1.8,1,3.7,1.9,5.7,2.8c-0.6-0.3-1.2-0.5-1.7-0.8
		c-1.4-0.6-2.8-1.2-4.1-1.8c-1.2-0.6-2.5-1.2-3.7-1.8c-0.6-0.3-1.2-0.6-1.9-0.9c-0.1-0.1-0.3-0.1-0.4-0.1l-0.6-0.2l0.2,0.5
		c0,0.1,0.1,0.2,0.1,0.3c-0.2-0.1-0.4-0.2-0.5-0.2l-0.4-0.2c-0.2-0.1-0.3,0-0.4,0c-0.1,0-0.1,0-0.2,0l0,0c-0.7-0.4-1.4-0.8-2-1.2
		l2.6,0.3l-1.7-1.3c0,0,0,0,0,0c0,0,0.2,0,0.4,0.1c0.2,0.1,0.5,0.2,0.8,0.3c0.3,0.1,0.6,0.2,0.9,0.3c0.8,0.3,1.5,0.7,2.2,0.9l0,0.1
		c0,0.1,0,0.2,0.1,0.2c0,0.2,0.1,0.4,0.3,0.5C185.4,180.7,186.7,181.4,187.9,182z M180.8,184.3L180.8,184.3
		c3.7,1.8,7.3,3.2,10.7,4.1c-1.2,0-2.6,0.1-3.8,0.7c-1.5,0.7-4.4,2-5.7,3.1l-0.4-0.2c-2-0.7-4.3-1-5.9-1.1c-0.9-0.2-1.9-0.3-2.8-0.4
		l-0.5,0c-0.2,0-0.4-0.1-0.7-0.1c-0.2,0-0.5-0.1-0.9-0.2c-0.2,0-0.4,0-0.5,0c-0.2,0-0.3,0-0.5,0c-0.2,0-0.5,0-0.7,0
		c-0.7-0.4-1.6-0.3-2.1-0.3c-0.1,0-0.2,0-0.3,0c-0.3-0.1-1-0.2-1.6-0.3l-0.7-0.1c-3.8-0.6-7.7-1.6-11.7-3.1c0.2-0.5,0.8-1,1.3-1.4
		c0.3-0.2,0.5-0.5,0.7-0.7c3.7-3.4,8.3-5.2,13.4-7c0.4-0.2,0.5-0.2,0.6-0.2c1,0.3,1.9,0.9,2.8,1.5c0.5,0.4,1.1,0.7,1.7,1.1l0.3,0.2
		c1.2,0.7,2.3,1.3,3.3,2c0.7,0.4,1.3,0.8,1.9,1c0.7,0.3,1.3,0.6,1.6,1C180.5,184.2,180.6,184.3,180.8,184.3z M200.5,189.8l1.3,0
		c0.2,0,0.4,0.1,0.6,0.1c0.1,0,0.2,0,0.3,0.1l0.1,0c-0.1,0.2-0.2,0.4-0.3,0.6l-0.7,0.3c-0.8-0.4-1.7-0.8-2.6-1.2
		C199.7,189.8,200.1,189.8,200.5,189.8z M191.5,224.8v-0.2V224.8L191.5,224.8z M130,177.8c0.7-0.8,1.6-1.4,2.6-2
		c0.2-0.1,0.4-0.3,0.6-0.4l0,0c0.8-0.7,1.6-1.3,2.4-1.9c1.5-1.1,3-2.3,4.2-3.6l1.2-1.2c0.5-0.5,1-1.1,1.4-1.7
		c0.1-0.2,0.2-0.3,0.3-0.5c0.2-0.2,0.4-0.4,0.6-0.6c0.4-0.4,0.8-0.8,1.1-1.6c0,0,0,0,0.1-0.1c0.9-1.1,2.1-2.8,3.1-4.1l0.5-0.7
		c0.4,0.3,0.7,0.6,1,1c2,2.4,4.2,4.8,7,7.8c-3,1.5-6.1,3.1-9.5,4.4c-2,0.8-4.1,1.6-5.9,2.8c-1.3,0.9-2.6,1.8-3.5,2.9l-0.1,0.1
		l-0.1,0.2c-0.3,0.5-0.6,0.9-0.8,1.4c-0.6,0.1-1.5-0.3-2.2-0.6c-0.3-0.1-0.7-0.3-0.9-0.3C132.2,178.5,131.1,178.1,130,177.8z
		 M127.9,188.2c0.1,0,0.3,0,0.5,0c0.3,0,0.7,0,1.1,0l1.2,0.1l-3-1.5c0.1,0,0.1,0,0.2,0l1.1,0.3l-0.7-0.6c-1-0.9-2.2-1.4-3.3-1.8
		c0.4-0.6,0.8-1.4,1.1-2.1l0.4-0.4c0.7-0.8,1.3-1.8,1.8-2.9c0.2,0,0.4,0,0.4,0c0.5,0.3,1.2,0.5,1.8,0.7c0.5,0.2,1,0.3,1.5,0.6
		c0.7,0.3,1.3,0.7,2,1.1c0.3,0.2,0.6,0.4,0.9,0.5c-0.1,0.3-0.2,0.6-0.3,0.9c-0.4,1.2-0.9,2.4-1.4,3.5c-0.2,0.6-0.6,1.1-1,1.7
		c-0.5,0.7-1,1.4-1.2,2.1c-0.2,0.3-0.3,0.6-0.4,0.9l0,0c0,0.1,0,0.1,0,0.2c-0.3-0.2-0.6-0.4-0.9-0.5c-0.4-0.2-0.7-0.4-0.9-0.6
		c-0.6-0.5-1.2-1-1.9-1.6L127.9,188.2z M127.1,175.7C127.1,175.7,127.1,175.7,127.1,175.7l-0.2-0.1L127.1,175.7z M69.9,131.2l0.7,1
		v1.5c-0.1,0-0.1-0.1-0.1-0.1l0-0.1C70.2,132.7,69.9,132.1,69.9,131.2z M83.5,144.2c-1.1-0.5-1.7-1.3-2.7-2.8
		C82.1,141.8,83.1,142.9,83.5,144.2z M84.3,143.6c0.2,0.2,0.3,0.4,0.5,0.5c0,0,0,0.1,0,0.1C84.6,144,84.4,143.8,84.3,143.6z
		 M114.6,151.2l0.5,1.1c-0.8,0.1-1.4-0.4-2-1.1H114.6z M127.7,136.6c-0.1,0-0.3-0.1-0.5-0.3c0,0-0.1-0.1-0.1-0.1
		C127.3,136.4,127.5,136.5,127.7,136.6z M134.5,155.8c0.4-0.4,0.8-0.9,1.3-1.3c0.8-0.7,1.6-1.5,2.2-2.5c0.3-0.6,0.8-1.1,1.3-1.6
		c0.6-0.5,1-1.2,1.3-2l0.2-0.5c0.3-0.9,0.7-1.9,1-2.8c0.6-1.6,0.2-3.1-1.4-4.2c-0.9-0.7-2-1-3-1.4c-0.2-0.1-0.4-0.2-0.6-0.2
		c-0.9-0.3-1.8-0.7-2.6-1.1c-0.9-0.4-1.9-0.8-2.8-1.1c-0.3-0.1-0.5-0.3-0.7-0.5c-0.6-0.8-1.9-1.5-3-1.7l-0.4-0.1l0.1,0.3
		c-0.6-0.3-1.2-0.6-1.8-1c-0.2-0.1-0.3-0.2-0.5-0.3c-0.6-0.4-1.3-0.8-2-1.1c-0.3-0.2-0.6-0.3-0.9-0.5l-0.2-0.1l-0.4,0.6l0.2,0.1
		c1.1,1,2.4,1.8,3.7,2.5c0.4,0.2,0.8,0.5,1.2,0.7c0,0,0,0,0,0l-0.4-0.1l0,0.4c0.1,1,0.8,1.2,1.3,1.4c0.1,0,0.2,0.1,0.2,0.1l0.7,0.3
		c0.6,0.2,1.2,0.5,1.8,0.7c0.1,0.1,0.3,0.1,0.4,0.2c0.7,0.3,1.5,0.6,2.3,0.5c0.1,0,0.2,0,0.3,0.1c0.1,0,0.2,0.1,0.4,0.1
		c0.5,0.1,1,0.3,1.5,0.6c0.4,0.2,0.9,0.5,1.4,0.6v0.2l-1.7-0.6l-0.3,0.8l0.2,0.1c0.7,0.2,1.3,0.6,1.9,1c0.9,0.5,1.9,1.1,3.1,1.3
		l0.5,0.1l-0.3-0.5c-0.2-0.3-0.4-0.5-0.5-0.6c-0.2-0.2-0.4-0.4-0.5-0.6c0.5,0,0.8,0.3,1.2,0.6c0.2,0.1,0.4,0.3,0.6,0.4
		c0,0.1,0,0.2,0,0.3c0,0.3,0,0.5,0,0.7c0,0.1,0,0.2-0.1,0.3c-0.1,0.5-0.2,1-0.5,1.2c-0.2,0.2-0.4,0.5-0.5,0.8
		c-0.3,0.6-0.5,0.9-1.2,0.8c-0.1,0-0.3,0-0.6,0.4c-0.2,0.3-0.4,0.6-0.6,1l-0.3,0.5l0.3,0.3l-0.5,0.6c-0.6-0.2-0.8-0.3-1.4-0.1
		l-0.6,0.2l0.4,0.2c-0.2,0-0.5,0-0.7,0.2l-0.2,0.2l0.1,0.1l-0.2-0.1l-0.1,0c-0.2,0-0.4,0.1-0.6,0.1c-0.3,0.1-0.7,0.2-0.8,0.1
		c-1.1-0.5-2.3-0.6-3.5-0.8c-0.3,0-0.6-0.1-0.9-0.1c-0.9-0.1-1.8-0.1-2.7-0.1c-1.1,0-2.2,0-3.3-0.2c-0.6-0.1-1.2-0.1-1.9,0
		c-0.3,0-0.6,0.1-0.9,0.2c-0.3,0.1-0.5,0.1-0.8,0.1c-1.5,0.1-3,0-4.4-0.1c-1.2-0.1-2.3-0.2-3.5-0.2c0,0-0.1,0-0.1,0c0,0,0,0,0,0
		c-0.4-0.4-0.8-0.3-1.2-0.3c-0.2,0-0.4,0-0.5,0c-0.6-0.3-1.3-0.3-1.9-0.3c-0.6,0-1.2-0.1-1.8-0.2l-0.4-0.1c-0.6-0.1-1.2-0.3-1.8-0.3
		c-0.2,0-0.5,0-0.7,0c-0.6,0-1.3,0-1.7-0.3c-0.4-0.2-0.8-0.3-1.1-0.3c-0.3,0-0.6,0-0.8-0.2c-1-0.6-2.1-1-3.2-1.1
		c-0.7-0.1-1.3-0.4-2-0.6c-0.4-0.1-0.7-0.3-1.1-0.4c-2.7-0.9-5.3-2.1-7.6-3.2c-0.5-0.2-1-0.5-1.4-0.8c-0.3-0.2-0.5-0.3-0.8-0.5
		c-2.3-1.3-4.7-2.8-6.7-4.9l0.3-0.4l-0.5-0.4c-0.2-0.2-0.4-0.4-0.7-0.5c-1.2-0.9-2.4-1.9-3.2-3.3c-0.7-1.2-1.5-2.2-2.3-3.5
		c-0.7-1.1-1.4-2.3-1.9-3.7c-0.1-0.3-0.2-0.5-0.4-0.8c-0.3-0.5-0.5-0.9-0.5-1.3c0-0.9-0.5-1.5-0.9-2.1c-0.1-0.1-0.2-0.3-0.3-0.5
		c-0.2-0.3-0.3-0.5-0.5-0.8c-0.3-0.3-0.5-0.7-0.8-1c-0.7-0.9-1.3-1.8-2.1-2.6c-0.5-0.6-0.9-1.2-1.3-2c-0.4-1-0.5-1.9-0.3-2.8
		c0.2,0.1,0.3,0.2,0.5,0.2c0.5,0.3,1,0.5,1.5,0.7c0.9,0.4,1.7,0.8,2.6,1.2c1.1,0.6,2.2,1.1,3.4,1.5c0.1,0,0.3,0.1,0.4,0.2
		c0.4,0.2,0.8,0.3,1.3,0.3c0.7,0,1.3,0.2,2,0.4c0.3,0.1,0.6,0.2,0.9,0.3c0.9,0.2,1.3,0.6,1.5,1.2c0,0.2,0.2,0.2,0.3,0.3
		c0,0,0.1,0,0.2,0.1l0.4,0.2v-1.4c0.3,0,0.7,0,1,0c0.9,0,1.7,0,2.6,0c0.9,0,1.7,0.1,2.6,0.2c0.4,0,0.8,0.1,1.2,0.1
		c0.1,0,0.1,0,0.2,0c0,0,0.1,0,0,0c0.5,0.3,1.1,0.4,1.6,0.5c0.4,0.1,0.8,0.1,1.1,0.3c0.4,0.2,0.8,0.3,1.2,0.5c0.5,0.2,1,0.4,1.5,0.7
		c1.2,0.6,2.5,1.1,3.8,1.6c0.8,0.3,1.7,0.6,2.5,1c0.2,0.1,0.4,0.1,0.7,0c0.1,0,0.2,0,0.3,0l0.7,0l-0.6-0.4c-0.1-0.1-0.1-0.1-0.2-0.1
		c-0.1-0.1-0.2-0.1-0.2-0.2c-0.4-0.2-0.8-0.3-1.3-0.5c-1.7-0.7-3.5-1.3-5.1-2.4l-0.1,0l-0.1,0c-0.5,0-0.5-0.2-0.6-0.7
		c0-0.1,0-0.2-0.1-0.3l0-0.2l-0.2,0c-0.1,0-0.2,0-0.3,0c-0.1,0-0.3,0-0.3,0c-0.8-0.7-1.8-0.8-2.7-1c-0.4-0.1-0.7-0.1-1.1-0.2
		c-1.2-0.3-2.4-0.3-3.6-0.4c-0.3,0-0.7,0-1,0c-0.9,0-1.9,0-2.8,0c-0.4,0-0.8,0-1.2,0c0,0-0.1,0-0.1,0c-0.1,0-0.2,0-0.3,0
		c-0.2,0-0.4,0-0.6,0c-1-0.4-2-0.6-3-0.9c-0.9-0.2-1.7-0.4-2.6-0.7c-1.6-0.6-3-1.1-4.3-1.8c-0.5-0.3-1-0.6-1.5-0.9
		c-0.4-0.3-0.8-0.5-1.2-0.8c-0.9-0.5-1.8-1-2.4-1.8c0.2-1.4,0.8-2.5,1.7-3.4c0.7-0.7,1.3-1.4,1.8-2.1c1.3-1.9,2.4-3.6,3.6-5.3
		l0.1-0.1c1.2-1.6,2.3-3.1,3.6-4.5c0.4-0.4,0.9-0.9,1.3-1.4c0.2-0.2,0.3-0.4,0.5-0.5c0,0,0,0,0,0c0.2,0,0.4,0,0.5-0.1
		c1-0.9,2.2-1.5,3.4-2.1c0.4-0.2,0.9-0.4,1.3-0.7c0.9-0.5,1.8-0.9,2.8-1.2c0.5-0.1,1-0.3,1.5-0.5c0.9-0.4,1.8-0.7,2.8-0.7l0.1,0
		l0.1-0.1c0.4-0.4,0.8-0.3,1.3-0.3c0.2,0,0.5,0,0.7,0c0.2,0,0.4,0,0.5-0.1c0.6-0.1,1.3-0.1,1.7,0.1c0.3,0.1,0.6,0.2,0.8,0.2
		c0.4,0,0.6,0,0.8,0.3l0.1,0.2l0.2,0c0.5-0.1,0.9,0.1,1.4,0.4l0.2,0.1c0.3,0.1,0.5,0.2,0.8,0.3c0.3,0.1,0.6,0.2,0.8,0.4
		c2.2,1.2,4.1,1.9,5.9,2.3l0.1,0c1.2,0.3,2.5,0.6,4.1,0.3l1.1-0.2l-2-0.4c-2.2-0.5-4.4-1-6.3-1.9l0.3-0.3l-0.3-0.2
		c-1.4-0.8-3-1.6-4.6-2c-0.3-0.1-0.7-0.2-1-0.3c-0.7-0.3-1.4-0.6-2.2-0.5c-0.1,0-0.3,0.1-0.4,0.1c-0.1,0-0.2,0.1-0.3,0.1
		c-0.2,0-0.4-0.1-0.6-0.2l0.2-0.3l0,0.1l2-1.2c1.1-0.6,1.6-1.4,2.1-2.1c0.3-0.4,0.5-0.8,0.9-1.1c1.1-1.2,2.2-2.7,3.3-4.1
		c0.4-0.5,0.8-1,1.2-1.5c0.1-0.1,0.3-0.3,0.4-0.5c0.5-0.6,1.2-1.3,1.5-1.8c1.8-2.6,4.6-4.5,6.9-5.9c0.6-0.3,1.2-0.7,1.8-1.1
		c1.5-1,2.9-1.9,4.6-2l2.8-0.1c0.1,0.1,0.2,0.1,0.2,0.2l0.2,0.2c1.1,0.9,1.6,2.1,1.9,3.4c0.4,1.2,0.6,2.1,0.4,3.3l0,0.1
		c0,0.2,0,0.4,0.1,0.9c0,0.1,0.1,0.2,0.1,0.3l0,0l0.1,0.2c0,0,0,0.2,0,0.8c0,0.2,0,0.6,0,0.9l0.2,1.4c-0.2,0.1-0.3,0.1-0.4,0.2
		l-0.2,0.1c-0.1-0.5-0.1-1-0.1-1.5c0-0.2,0-0.4,0-0.6c0-0.1-0.1-0.2-0.2-0.3c0,0-0.1-0.1-0.1-0.1l-0.4-0.4l-0.2,1.1l-0.3-0.7
		l-0.2,0.7c-0.1,0.2-0.1,0.3-0.2,0.4c-0.1,0.3-0.2,0.5-0.2,0.7l0,0.2c-0.1,0.6-0.3,1.3,0.4,1.8c0.1,0.1,0.2,0.1,0.3,0.1l0.2,0.1
		l0.2-0.5l0.8,0.7l0.1-0.3l0.2,4l0.7-0.6c0,0,0,0.1,0,0.1c0,0.3,0,0.6,0,1c0,0.5,0.1,1.1,0.2,1.4l0,0.2c0,0.2,0.1,0.4,0.1,0.5l0,0.6
		l-1.8-1.8l0.6,1.6l-0.6,0.2l1.8,1.8c0,0.1,0.1,0.2,0.1,0.3c0,0,0,0,0,0.1l-1.8-1.8l-0.9,0.7l1.2,1l-0.9,0.3l1.4,1.1l-0.8-0.3
		l-0.3,0.6l1.4,1l-0.6,1.6l0.6-0.4c0.4-0.3,0.6-0.5,0.8-0.8l0,0.2c0,0.2,0,0.4,0,0.5c0,0.7,0,1.7,0,2.8c0,1.2,0,2.4,0,3.3
		c0,0.1,0,0.1,0,0.2c-0.3-0.1-0.8-0.1-1.1,0l-3.5,0.7l0.5,0.3c0.6,0.4,1.4,1,2.3,1.6l-2.6,0.5l0.3,0.3c0.4,0.4,1.1,1.1,1.9,1.9
		l1.5,1.5c-0.1,0.5-0.2,1-0.4,1.5l0-0.2l-0.5,2.1c-0.4,1.1-0.8,2.2-1.3,3.4l-0.6,0.2l0,0.1c-0.5,0.7-0.5,1.4-0.4,2.1
		c-0.1,0.2-0.2,0.4-0.3,0.6c0-0.3,0-0.7,0-1.1l-0.1-0.5l-0.4,0.4c-0.4,0.4-0.7,0.8-0.9,1.3c0.1-0.4,0.1-0.9-0.3-1.5l-0.2-0.3
		l-0.2,0.3c-0.2,0.3-0.3,0.6-0.5,0.8c-0.6,0.9-1.2,1.8-1.1,3.1l0,0.2l0.5,0.2l-0.3,0.3l1.3,0.6c-1.4,1.2-2.8,2.1-4.3,2.8
		c-0.6,0.3-1,1.2-1,1.7l-0.3,2.7l2.5-1.1c2.1-1,4.6-2.2,6.6-4.2c2-2,3.5-4.2,4.7-6.1c0.2-0.3,0.4-0.7,0.6-1.1c0.5-0.7,1-1.5,1.3-2.4
		c0.1-0.5,0.2-0.9,0.4-1.3c0.3-0.8,0.5-1.6,0.6-2.7c0-0.3,0.1-0.6,0.2-1c0.2-0.9,0.4-1.9,0.2-2.7c0.5-1,0.3-2.5,0.2-3.4l0-0.1l0-1.6
		l0.1,0l0-1l1.4-0.7l0-0.1c0.2-0.7,0.3-1.4,0.4-2.1c0,0.1,0,0.3,0.1,0.4l0.1,0.7l0.3-0.6c0.8-1.4,0.6-2.8,0.4-4.1
		c-0.1-0.3-0.1-0.7-0.1-1.1c0.2,0,0.4,0,0.6,0c0.2,0,0.4,0,0.6,0c0.2,0,0.4,0.1,0.6,0.1c0.4,0.1,0.9,0.2,1.5,0.2l2,0l0.7,0
		c0,0.2,0,0.5,0.1,0.7l0,0.1c0.3,1.2,0.3,1.2,0,2.3c-0.1,0.2-0.2,0.7,0.1,1c0.2,0.2,0.2,0.4,0.2,0.7c0,0.1,0,0.2,0,0.3
		c0,0.7,0,1.5,0,2.2l0,1.1l0.6,0.2l0.1-0.2c0,0,0,0,0-0.1c0-0.1,0.1-0.2,0.1-0.3c0-0.5,0-0.9,0-1.4c0-0.9-0.1-1.8,0.3-2.6
		c0.1-0.2,0.1-0.5,0-0.7c-0.3-0.5-0.3-1.1-0.3-1.7c0-0.3,0-0.5,0-0.8l0-0.1c0-0.3,0-0.5-0.1-0.7l1.9,0v4.5l0.5-0.8
		c0.7-1.2,0.7-2.3,0.6-3.4c0-0.1,0-0.3,0-0.4c0.2,0,0.4-0.1,0.5-0.2c0.1,0,0.3-0.1,0.4-0.1l0,3.3l0.5,0v1.6l0.5-1.2
		c0.1-0.2,0.1-0.3,0.2-0.5l0.4,1.1c0,0.8,0,1.6,0,2.1l0,0.8l0.7-1l0.6,1.7l0.1-0.9c0.1-0.6,0.2-1.5,0.4-2.4l0.4-0.5l1.4,6l1.5-10
		c1.4,0,3.4,0,4.7,0c1.2,0,2.3,0.1,3.4,0.2c0.3,0,0.7,0.1,1,0.1c0.8,0.1,1.6,0,2.4,0c1.2,0,2.3-0.1,3.4,0.1c0.6,0.2,1.4,0.2,1.9,0.1
		c0.5-0.1,1,0,1.5,0.2c0.2,0,0.3,0.1,0.5,0.1c-0.7,1.3-1,2.7-0.9,4.1l0.1,0.9l0.4-0.8c0.6-1.2,1.1-2.6,1.3-4l0.7,0.1
		c-0.6,0.9-1.1,2.2-1.2,2.8c0,0.1,0,0.3,0,0.5c-0.3,0.9-0.3,1.6-0.2,2.3l0.9,4.8l0.3-0.7c0.2-0.5,0.6-1.3,0.9-2.1v0.1l0.5-1.2
		c0,0.1,0.1,0.2,0.1,0.3l1.3,3.3l0.2-0.4l0.2,1.6l0.2-0.4l0.2,2l0.4-0.8c0.3-0.6,0.8-1.7,1.3-2.8c0.4-0.9,0.8-1.8,1.2-2.4
		c0.2,0,0.4,0,0.6-0.1l0.1,0l0.1-0.1c0-0.1,0.2-0.4,1.1-2c0,0,0,0,0,0c0,0,1,1.4,1,1.5l0.1,0.2l0,1.9l3.4-4.8l0.2,0.2l-0.3,0.6
		c-0.3,0.6-0.6,1.2-0.8,1.8l-0.1,0.2l0.2,0.1c0.3,0.1,0.7,0.3,1,0.5c0.4,0.2,0.9,0.5,1.2,0.6l0.2,0.1l0.1-0.2
		c0.2-0.3,0.6-0.9,0.9-1.5c0.4-0.7,0.9-1.4,1.1-1.8l0.2,0c0,0,0,0,0,0c-0.1,0.3-0.1,0.5-0.2,0.8c0,0-0.1,0.1-0.1,0.2l-0.8,1.4
		l0.3,0.1c0.2,0.1,0.5,0.2,0.7,0.3l-1.1,4.1l0.6-0.5c0.2-0.2,0.5-0.4,0.9-0.6c0.1-0.1,0.2-0.1,0.3-0.2c0,0,0,0.1,0,0.1l0.6,4.7
		l2.1-4.2c0.3-0.6,0.6-1.2,0.8-1.8c0.4-0.9,0.7-1.8,1.3-2.6l3.4,1.4l-0.9,1.5c-0.1,0.2-0.2,0.4-0.4,0.6c-0.6,0.9-1.2,1.8-1.3,3
		l-0.5,5l0.5-0.6l-0.2,0.6l3.3-3.2l0.4,0.5l0.9,2.8l0.3-0.5c0.1-0.3,0.3-0.6,0.5-0.9c0.1-0.1,0.2-0.3,0.2-0.4l0.4,0.5l0.2-0.2
		c0.3-0.4,1.2-1.5,2-2.7c0.6-0.7,1.1-1.5,1.6-2.1l0.2,0.2c1,0.7,2,1.4,2.7,2c0.2,0.1,0.4,0.3,0.7,0.5c0.3,0.2,0.6,0.4,0.8,0.6
		c0.3,0.2,0.6,0.4,0.9,0.6c0.2,0.1,0.5,0.3,0.7,0.4l-0.6,1c-0.5,0.9-1.1,1.8-1.4,2.5l-0.2,0.3l1.7,0.2c0,0,0,0,0,0l-0.1,4.1l0.5-0.6
		l-1.2,3.9l3.8-4.4c0.2,0.3,0.4,0.5,0.6,0.7l0.1,0.2l0.3-0.2c-0.2,0.8-0.1,1.7,0,2.6c-0.7,0.9-1.4,1.8-1.6,2l-0.8,1l5.5-2.8
		c0.7-0.4,1.3-0.9,1.8-1.3c0.3-0.3,0.7-0.6,1-0.8c2.7,2.5,5.1,5.2,7.2,7.8l-5.8,4.9l3.1-0.8c0,0,0,0,0,0l-1.4,3.7l1.4-0.9l1-0.3
		c-0.2,0.3-0.3,0.6-0.5,0.8c-0.2,0.3-0.3,0.6-0.4,0.7l-0.5,0.7l0.1-0.1c-0.3,0.3-0.5,0.6-0.7,0.9l-0.2,0.3c-1,0.8-1.9,1.7-2.8,2.6
		l-0.1,0.1c-0.2,0.2-0.4,0.4-0.5,0.5l-0.5,0.4l0.1,0c-0.2,0.3-0.5,0.6-0.7,0.9c-0.3,0.3-0.5,0.6-0.8,0.9l-0.3,0.3l0.7,0.1
		c0,0,0,0.1-0.1,0.1c-0.3,0.7-0.9,1.4-1.8,2c-0.3,0.2-0.6,0.5-1,0.7l-0.8,0.6l0.4,0.2c0.7,0.2,1.2,0.3,1.5,0
		c1.1-0.7,2.1-1.4,3.2-2.2c0.4-0.3,0.7-0.5,1.1-0.8l0.4-0.3l-0.5-0.2c-0.2-0.1-0.4-0.1-0.6-0.1c0.5-0.1,1.1-0.4,1.3-0.8l0.2-0.2
		c0.1,0,0.2,0,0.4,0c0,0,0,0,0,0c0.5,0,1-0.3,1.3-0.7c0.1-0.1,0.2-0.1,0.3-0.2c0.2-0.1,0.5-0.3,0.7-0.4c0.6-0.5,1.3-0.9,2.1-1.3
		c1-0.6,2.1-1.2,2.8-2c0.2-0.1,0.4-0.2,0.6-0.3l1-0.5c0.2-0.1,0.3-0.2,0.5-0.3c0.7-0.4,1.5-0.8,2.2-0.9l6.8,10.9l-3.5,1.4l0.3,0.8
		l-4.8,2.2v0.2c0,0.2,0,0.2,1.7,0.4c0.9,0.1,1.3,0.2,1.4,0.2l-1.9,1.8l3.3-0.8l0,0c0.2,0.1,0.3,0.2,0.5,0.4c0.2,0.1,0.3,0.3,0.5,0.4
		c-0.1,0.1-0.2,0.2-0.3,0.2l-0.4,0.3l0,0.4l-3.6,0.7l0.8,0.3c0.4,0.2,0.8,0.3,1.2,0.5c1.3,0.6,2.7,1.2,3.9,1.4
		c0.4,0.1,0.9,0.1,1.3-0.1c1.5-0.5,2.5-0.6,3.8-0.4l0.3,0l0-0.3c0-0.1,0-0.1,0-0.2c0.6,1.3,1.1,2.7,1.6,4.1
		c-1.6-0.7-3.5-0.8-5.2-0.3l-3.6,1.3l0.5,0.1c-1,0.3-2.2,0.7-3.4,1.2l-2.2,0.8l2.2,1c0.8,0.3,1.5,0.3,2.2,0.1l1.5,0.9l-4.6,2
		l0.9,0.1c0.2,0,0.5,0.1,0.8,0.1c1,0.2,2.3,0.4,3.2,0.1l2,0.7l-3,1l2.2,0c3.3,0.1,6.6,0.1,9.6,0.9l-0.7-0.1c-4.4-0.4-5-0.4-10.6,1.4
		l-1.5,0.5h5.4l0.1-0.1c0.3-0.3,0.6-0.3,1.1-0.3c0.3,0,0.7,0,1-0.1c0.5-0.2,1-0.2,1.6-0.2c0.2,0,0.5,0,0.7,0c0.3,0,0.6,0,0.9,0
		c0.3,0,0.5,0,0.8,0c0.2,0,0.3-0.1,0.3-0.2c0,0,0-0.1,0.1-0.1l0.3-0.3l0,1.2l2.4,0.5c0.3,0.8,0.5,1.6,0.7,2.4
		c0.2,0.7,0.4,1.5,0.6,2.2c0,0.1,0.1,0.3,0.1,0.4l-0.2-0.1c-0.6-0.2-1.2-0.3-1.9-0.5c-0.2,0-0.3,0-0.4,0l-3.2,0.1l0.8,0.4
		c0.2,0.1,0.5,0.3,0.7,0.4c0.3,0.2,0.6,0.3,0.9,0.5c-1.7-0.4-3.2-0.4-4.3,0l-1.1,0.4l1.6,0.2c-2.2-0.1-4.2,0.1-6.2,0.5l-4.5,1
		l1.5,0.2c0.3,0,1.1,0.1,1.9,0.2c0.9,0.1,1.8,0.2,2.1,0.2l1,0c0.1,0,0.2,0,0.3,0c0.2,0,0.5,0,0.7-0.1c2.1-0.5,4.4-0.2,6.4,0.1
		c0,0,0,0,0,0l-2.9,1l1,0.1c0.4,0.1,1,0.1,1.6,0.2c0.7,0.1,1.4,0.2,1.8,0.2c0.4,0,0.6,0.1,1,0.2c0,0,0.1,0,0.1,0l-0.9,0.3l0.5,0.3
		c0.4,0.2,1,0.5,1.6,0.8c0.5,0.2,0.9,0.5,1.3,0.7c0,0.4,0.1,0.8,0.2,1.2c0.1,0.2,0.1,0.4,0.1,0.7l-2.9-1.2c-0.2-0.1-0.4-0.2-0.7-0.2
		l0-0.5l-0.2,0c-0.3-0.1-0.7-0.1-1-0.2c-0.8-0.2-1.5-0.3-2.3-0.4c-1-0.1-2-0.1-3-0.1l-0.7,0c-0.5,0-1,0-1.5,0c-0.7,0-1.4,0-2.1,0
		c-1.1,0-2.3,0.1-3.5,0.6l-0.5,0.2l0.5,0.3c0.2,0.1,0.4,0.1,0.6,0.1l0.1,0c0.8,0.1,1.5,0,2.2-0.1c0.5-0.1,1.1-0.1,1.6-0.2
		c0.4,0,0.9,0,1.3,0c1.4-0.1,2.8-0.1,4.1,0.3c0.1,0,0.2,0,0.2,0l-1.5,0.7l1.8,0.5c0.2,0.1,0.5,0.1,0.7,0.2c-0.5,0-0.9,0-1.4,0.1
		l-4.7,0.9l4.8,0.4c2.9,0.3,5.7,1.3,8.6,2.5c0.2,1.6,0.4,4,0.4,5.6c0,0.6,0,1.2,0,1.9c0,1,0,2,0,3c-0.9-0.6-1.8-1-2.7-1.1l-2.6-0.4
		l2.1,1.6c0.4,0.4,0.9,0.6,1.4,0.9c0.2,0.1,0.3,0.2,0.5,0.3l-2.2-0.5l2.8,2.8c0.1,0.1,0.2,0.2,0.2,0.2c0.3,0.3,0.6,0.6,0.6,0.8
		c-0.3,0.7-0.3,1.4-0.3,2.1c0,0.1,0,0.2,0,0.3l-2,0.7l1.9,0.8c0,0.1,0,0.2,0,0.3c0,0.2,0,0.3,0,0.5c-0.2-0.1-0.3-0.2-0.5-0.3
		c-1.2-0.7-2.5-1.5-4-1.9c-0.9-0.2-2.4,0.1-3.6,0.3c-0.4,0.1-0.7,0.2-1,0.2l-1.9,0.3l1.9,0.2c0.4,0,0.8,0.1,1.2,0.1l-0.3,0.1l1,0.2
		c1.1,0.3,2.2,0.8,3.2,1.3c0.8,0.4,1.6,0.8,2.5,1.1l1.1,0.4c0,0.2-0.1,0.3-0.1,0.5c-0.2,1-0.3,2-0.6,2.9c-0.4-0.2-0.8-0.4-1.3-0.7
		c-0.8-0.5-1.7-1-2.7-1.2l-2.6-0.5l0.7,0.6c0,0,0,0,0.1,0.1l-4-1.9l3.4,3.1c0.8,0.7,1.7,1.3,2.6,1.8c1.1,0.6,2.1,1.2,2.9,2.1
		c-0.1,0.1-0.1,0.3-0.1,0.4c-0.1,0.4-0.3,0.7-0.5,1c-0.4-0.4-0.9-0.7-1.3-1.1c-1.6-1.5-3.3-3-5.6-3.5l-2.4-0.2l1.9,1.4
		c0.8,0.6,1.7,1.2,2.6,1.9c-0.1,0-0.2,0-0.3,0c0,0-0.1-0.1-0.1-0.1c-0.2-0.1-0.4-0.2-0.5-0.2l-4.4-1.6l0.8,0.8
		c1.4,1.4,3.3,2.8,4.8,4c1.1,0.9,1.9,1.8,2.4,2.7l-1,1.4l-1.3-1.3c-0.1-0.1-0.2-0.2-0.3-0.4c-0.1-0.2-0.2-0.4-0.4-0.6
		c-0.3-0.4-0.9-0.8-1.5-0.8l-1.5-0.1l0.9,1.2c0.4,0.4,1.7,2.1,2.3,2.8c-0.2,0.1-0.4,0.1-0.5,0.2l-0.6,0.2l1.5,1.6l-0.5,0.9l-1.2-1
		c-0.6-0.6-1.3-1.1-1.9-1.7c-0.3-0.2-0.6-0.3-0.8-0.3c0,0-0.1,0-0.1,0l-1.9-0.9l0.4,0.7c0.2,0.3,0.4,0.6,0.6,0.9
		c-0.3-0.1-0.5-0.2-0.8-0.2l-1.5-0.1l1,1.1c0.3,0.3,0.5,0.6,0.8,0.8c0,0,0,0,0,0.1c-0.1,0.1-0.2,0.2-0.2,0.3l-0.3,0.4l3.8,3.8l0,0.1
		c-0.4-0.3-0.8-0.7-1.4-0.8l-1.3-0.3l-0.5-0.5c-0.1-0.1-0.2-0.2-0.3-0.2c-0.2-0.1-0.3-0.1-0.4-0.1c-0.1,0-0.2,0-0.2-0.1l-1.7-0.7
		c-0.7-1.2-2-1.8-3.9-2.1l-1.1-0.2l0.9,0.6c0.3,0.2,0.6,0.4,0.8,0.6c0.5,0.4,1,0.7,1.4,1c0.5,0.4,0.9,0.8,1.4,1.2
		c0.2,0.2,0.4,0.4,0.6,0.5l0.6,0.5l-0.2-0.8c0-0.1-0.1-0.2-0.1-0.2l3,3.6c-0.9-0.9-1.9-1.8-3.2-2.2l-1-0.3l4.5,4.1l-3,3.6l-2.3-1.8
		c-0.3-0.2-0.6-0.3-0.9-0.4c-0.1,0-0.2-0.1-0.4-0.1l-3.4-1.6l2.3,2.3c-0.1,0-0.3-0.1-0.4-0.1l-2.7-0.6l1.6,1.3
		c-0.1-0.1-0.3-0.1-0.4-0.2l-2.8-1l2,2c-0.1,0-0.2,0.1-0.3,0.1l-0.3,0.1l0.2,0.3c1.1,1.3,2.6,2.1,4,2.9l0,0
		c-3.8,3.7-8.5,6.5-12.4,8.8c-0.4,0.2-0.5,0.2-0.6,0.2l-0.3-0.2c-0.3-0.1-0.4-0.1-0.5-0.1c0,0-0.1,0-0.1,0l-1.6-0.4l0.9,1.6
		c-2.1,1.1-4.6,2.1-7.3,2.8c-0.4,0.1-0.8,0.2-1.3,0.3c-1,0.2-2.2,0.5-2.9,0.5c-0.6,0-1.1,0.1-1.3,0.3c-0.4,0.2-0.8,0.2-1.5,0.2
		c-3.2,0.1-6.7,0-9.9-1.1c-1.3-0.5-2.6-1.2-3.7-1.9l0-0.1c-0.1-0.6-0.4-1.1-0.6-1.6c-0.1-0.2-0.2-0.4-0.3-0.6
		c-0.2-0.5-0.4-1.1-0.5-1.6c-0.1-0.2-0.1-0.5-0.2-0.7l-0.1-0.2l-0.6,0.1v0.9l-1.1-2.1l-0.6,0.4l0,0.2c0,0.1,0.1,0.3,0.1,0.4
		c0.1,0.3,0.2,0.7,0.3,1c0,0.1,0.1,0.2,0.1,0.3c0.2,0.5,0.5,1.1,0.9,1.3c0.5,0.2,0.7,0.6,0.9,1c0.1,0.1,0.2,0.3,0.2,0.4
		c0.1,0.1,0.1,0.2,0.2,0.2c-1.5-1.1-2.9-2.3-4.2-3.5c-0.1-0.1-0.3-0.2-0.4-0.3l0-0.6c-0.1-1.1-0.5-1.9-0.9-2.7
		c-0.2-0.4-0.4-0.7-0.5-1.1c-0.1-0.2-0.3-0.2-0.3-0.2l0,0.3l0-0.2l-0.2,0l-0.1,0.4c-0.5-0.7-0.5-1.6-0.6-2.4c0-0.6-0.1-1.1-0.2-1.7
		l-0.4-1.6l-0.1,1.6c0,0.1,0,0.2,0,0.2c0,0.2,0,0.3,0,0.5c0,0.2-0.1,0.3-0.1,0.5c-0.2,0.4-0.3,0.9-0.1,1.5c0.2,0.5,0.5,1.1,0.5,1.6
		c0,0.6,0.3,1,0.8,1.2c0.4,0.2,0.7,0.6,0.9,1c0.1,0.2,0.2,0.3,0.3,0.5c0.1,0.1,0.2,0.3,0.3,0.5l0.2,0.3c-0.5-0.5-1.1-0.9-1.6-1.4
		c-0.7-0.7-1.5-1.9-2.3-2.9c-0.4-0.5-0.7-1-1-1.4l0.2-1.3c0.1-0.6,0.1-1.3,0.2-1.7c0-0.5,0.2-1.1,0.4-1.7c0.1-0.4,0.2-0.9,0.3-1.4
		l0.4-2.4l-1.7,1.7c-0.1,0.1-0.2,0.2-0.3,0.3c0,0,0,0-0.1,0c0,0,0,0,0,0c0-0.4,0-0.9-0.1-1.4l-0.4-1.9l-0.3,0.5
		c-0.6,0.9-1.2,2.1-1.3,3c0,0.5-0.1,0.9-0.1,1.4c-0.8-1.6-1.5-3.2-2.1-5c-0.2-0.8-0.4-1.7-0.7-2.5c-0.3-1.2-0.7-2.5-0.9-3.7
		c0-0.5,0-1.1,0-1.7c0-0.5,0-1,0-1.4c0-0.6,0.1-1.1,0.2-1.6c0.1-0.2,0.1-0.5,0.2-0.7c0-0.3,0-0.5,0-0.7c0-0.2,0-0.3,0-0.5l0.5-2.7
		c0.1-0.3,0.1-0.6,0.1-0.8c0-0.3,0.1-0.7,0.2-1c0.2-0.5,0.3-1,0.3-1.5c0-0.2,0-0.4,0.1-0.6l0.3,0.1l0-0.3c0-0.2,0.1-0.4,0.1-0.7
		c0-0.2,0.1-0.3,0.1-0.5l0.4-0.5l0.5-0.4l-0.1-0.2l0.3-0.4l0.5-0.3l-0.1-0.2c0.7-0.9,1.3-1.6,1.9-2.2c0.2-0.1,0.3-0.4,0.4-0.6
		c0.1-0.1,0.1-0.2,0.2-0.3c0.3-0.3,0.6-0.6,0.9-0.9c0.5-0.6,1-1.1,1.6-1.5c0.2-0.2,0.5-0.3,0.7-0.4c0.2-0.1,0.5-0.2,0.7-0.3
		c0.5-0.3,0.8-0.6,1.1-0.9c0.1-0.1,0.2-0.2,0.3-0.3c0.2-0.1,0.3-0.3,0.5-0.5c0.6-0.6,1.2-1.2,1.8-1.6c0.1-0.1,0.3-0.2,0.4-0.3l0.3,0
		v1.2l0.4-0.3c0.8-0.5,1.4-0.7,2.1-0.7c0.2,0,0.4,0,0.6,0c0.5,0,0.9,0,1.3,0.3c0.3,0.2,0.6,0.1,0.8,0c0.1-0.1,0.2-0.3,0.1-0.7
		c0.2,0,0.4,0.1,0.6,0.1c0.7,0.1,1.5,0.2,2.2,0.2l0.8,0.1l-2.3-1.8c0.1,0,0.1,0,0.2,0l0.1,0l0.3-0.5c0.1,0,0.1,0.1,0.2,0.1
		c0.7,0.3,1.4-0.1,1.7-0.6c0.1-0.1,0.2-0.2,0.9,0.1c3,0.8,6.8,2.1,9.9,4.9c2.7,2.6,5.3,5.4,6.6,8.7c0.2,0.5,0.3,1,0.4,1.5
		c0.1,0.7,0.3,1.5,0.6,2.2c0,0,0.9,2,1,2.4c0,0.2,0,0.5,0,0.7c0,0.3,0,0.6,0,0.8c0,0.4,0,0.5-0.1,0.6c-0.1,0.1-0.2,0.3-0.3,0.5
		c-0.1,0.4,0,0.5,0,0.6c0,0,0,0.1,0.1,0.2c0.1,0.3,0.2,0.6,0.3,0.8c0.1,1.2-0.5,2.3-1.1,3.5c-0.2,0.3-0.4,0.6-0.5,1
		c-0.3,0.6-0.6,1.1-0.9,1.6l0-2.4l-1.1,4c-0.7,0.9-1.3,1.6-2,2.2c-0.7,0.6-1.6,1.1-2.4,1.6l-0.4,0.2c-1.2,0.7-2.1,1-3.1,0.9l-0.2,0
		l-0.1,0.1c-0.2,0.3-0.6,0.3-1.1,0.3c-0.4,0-0.9,0-1.3,0.2c-0.2-1-0.6-1.9-1.4-2.8l-2.5-2.5l0.3,1.2l-0.4,1.3
		c-0.1-0.1-0.2-0.2-0.2-0.2l-2.2-2l0.2,1.6l-1.8-2.4c0-0.8,0-1.4,0-1.9c0.2,0.1,0.3,0.3,0.5,0.4c1.1,0.7,2.3,0.8,3.3,0.8
		c1.9,0.4,3.8-1,4.5-2.6l0.3-0.7c0.1-0.1,0.1-0.2,0.2-0.3c0.2-0.4,0.4-0.9,0.4-1.6c0-0.6-0.1-1.1-0.3-1.6c-0.1-0.3-0.2-0.7-0.3-1.1
		c-0.1-0.4-0.3-0.9-0.6-1.3c0.1,0,0.1,0,0.2,0.1l0.6,0.2l-0.3-0.6c-0.2-0.3-0.3-0.6-0.5-1c-0.6-1.2-1.2-2.5-2.4-3.1
		c-0.1,0-0.2-0.1-0.3-0.2c-0.2-0.2-0.5-0.3-1.1-0.4c-0.7-0.1-1.3,0.1-1.7,0.4c-1.8-0.7-3.9-0.7-5.9,0c-3.7,1.4-7.4,5.2-7.2,9.4
		l-0.3-0.1l-1.6-2l0.4,1.6l-0.2-0.1l0,1.7c0,0-0.1,0-0.2-0.1c-0.1,0-0.2-0.1-0.3-0.1l-0.2-0.1l-0.8,0.8l1.7,2.3l0.6-0.2
		c0,0.1,0.1,0.1,0.1,0.2l0.3,1.8l0.3-0.9c0,0,0,0,0-0.1c0.3,1,0.5,2,0.7,2.6l0.1,0.2l0.2-0.1c0.2-0.1,0.6-0.1,0.9-0.2l0.2,0
		c3.3,5.3,9.4,8,17.4,7.6c5.3-0.1,9.2-3.7,11.1-5.9l0.5,0.3c0.5,0.3,0.9,0.5,1.3,0.8l0.3,0.1l0.5-1.4c0.1-0.3,0.3-0.7,0.2-1.3
		l1.5-1.6l-1.4-1.7c0.4-1.2,0.9-2.5,1.5-3.5l0.7,0.4l0.8-0.2l0,0c0,0,0.1,0,0.1,0c0.1,0,0.5,0.1,0.9,0l1.3-0.3
		c0.2,0.2,0.5,0.3,0.7,0.5l0.4,0.3l-0.2-2.8c0-0.2,0-0.5-0.1-0.8c0.4,0.1,0.7,0.2,1.1,0.4l0.7,0.2l-0.4-0.6
		c-0.3-0.4-0.5-0.8-0.8-1.2c-0.6-1-1.1-1.9-2-2.6c-0.5-0.4-1.2-0.7-1.9-1c-0.3-0.1-0.6-0.2-0.8-0.3c0-0.3,0-0.7,0-1c0-0.7,0-1.4,0-2
		l0.1-0.7c0.3-2-0.3-3.7-0.8-5.2c-0.1-0.2-0.2-0.5-0.2-0.7c-0.1-0.2-0.3-0.3-0.5-0.4c-0.1,0-0.1-0.1-0.2-0.1l-0.5-0.3
		c-0.1-0.1-0.1-0.2-0.2-0.3l-0.6-3.9c-0.1-0.7-0.4-1.3-0.8-1.8c0,0-0.1-0.1-0.1-0.1c0.7-0.2,1.6-0.4,2.3-0.7
		c0.6-0.2,1.2-0.4,1.5-0.4l1.1-0.2l-5.1-1.3c-1.1-0.3-2.2-0.8-3.4-1.7c0.9,0,1.5,0,1.8,0l0.3,0l0-0.3c-0.1-0.4-0.1-0.9-0.2-1.4
		c-0.1-0.5-0.2-1.1-0.2-1.5l0-0.2l-3.8,0l-0.3,0c-1.4-0.2-2.6-0.8-3.8-1.5c-0.8-0.4-1.7-0.9-2.6-1.3c-0.7-0.7-1.5-1-2.2-1.3
		c-0.2-0.1-0.3-0.1-0.5-0.2c-3.2-1.7-6.5-3.4-9.8-5.1c-2.7-1.4-5.5-2.8-8.1-4.1l-0.1,0c-0.4-0.1-0.6-0.1-0.8-0.1c0,0-0.1,0-0.1,0
		l-1.4-0.4l-0.1,0.8c-1.2-0.2-2.4-0.2-3.2-0.1c-0.8,0-1.7,0.1-2.5,0.2c-0.5,0-0.9,0.1-1.4,0.1l0,0c0,0,0,0,0,0
		c-0.2,0-0.4,0.1-0.4,0.1c-0.1,0-0.2,0.1-0.2,0.1c-0.2,0.1-0.7,0.2-1.1,0.3c-0.5,0.1-0.9,0.3-1.2,0.4c-4.2,1.4-8.1,3.3-11.7,5.2
		c-0.4-0.1-0.9-0.2-1.4-0.3c-0.9-0.2-1.7-0.4-2.2-0.5l-0.7-0.2l0.5,0.6c0.2,0.2,0.6,0.8,1.1,1.4l0.5,0.7c-0.2,0.2-0.4,0.3-0.5,0.5
		c-0.9,0.8-1.9,1.6-2.5,2.6c-0.3,0.4-0.4,0.5-0.6,0.5l-2.2,0.6l1.4,1.3c-0.2,0.8-0.5,1.7-1.1,2.4l0,0.1c-0.8-0.3-1.5-0.6-2.3-0.8
		c-1.3-0.5-2.6-1-3.7-1.3l-2-0.7l6.7,4.4c-0.4,0.5-0.9,1-1.3,1.4l0,0.1c-0.8,0.7-2.4,2-4.2,2.6l-0.4-0.2l0.1,0.3
		c-1.2,0.3-2.2,0.2-3.1-0.2c-0.5-0.3-1-0.3-1.5-0.4c-0.4-0.1-0.7-0.1-1-0.2c-0.2-0.1-0.6-0.1-0.9-0.2c-0.3,0-0.8-0.1-0.9-0.2
		c-0.1-0.1-0.3-0.3-0.5-0.5l0,0c0-1,0.2-1.5,0.8-2.3c2.3-2.4,3.9-5.5,4.4-8.5c0.1-0.3,0.1-0.6,0.2-0.9l0.4-1.3
		c0.4-0.2,0.8-0.3,1-0.6c2.5-2.2,5.8-3.3,9-4.5c1.3-0.5,2.6-0.9,3.9-1.5c3.6-1.6,7-3.7,10.3-5.7c1.2-0.8,2.5-1.6,3.7-2.3
		c0.4-0.2,0.8-0.5,1.1-0.8c0.6-0.5,1.1-0.8,1.8-0.8c0.3,0,0.7-0.1,0.8-0.2c0.3-0.2,0.3-0.2,0.4-0.3l0.1-0.1c2.3-1.9,4.4-3.2,7-3.1
		c2,0,4.2,0.3,6.1,0.8c2.5,1.1,5.1,2.5,7.9,4.3c5.4,3.4,12.7,7.7,20.8,9.9l1.5,0.3l0.2-0.8c0.3,0.1,0.6,0.1,0.8,0.1c0,0,0.1,0,0.1,0
		c0.6,0,1.6-0.4,2.4-0.8c0.4-0.2,0.8-0.3,1-0.4l0.7-0.2l-0.7-0.2c-0.7-0.2-2.5-0.9-4.5-1.5c-2.2-0.7-4.5-1.5-5.4-1.8
		c-4.8-1.7-9.5-4-13.9-6.7c-0.9-0.5-1.8-1-2.7-1.6c-2-1.2-4-2.5-6.2-3.1c-0.7-0.2-1.4-0.4-2.1-0.6c-1.2-0.4-2.5-0.8-3.9-0.9
		c-0.7,0.1-1.2,0-2,0c-0.4,0-0.7,0.1-1.1,0.2c-0.3,0.1-0.6,0.2-0.9,0.2l-0.1,0c-0.7,0-1.6,0.1-2.1,0.3c-1.2,0.3-2.2,1-3.1,1.8
		c-0.2,0.1-0.4,0.3-0.5,0.4c-2.8,1.5-5.7,3.3-8.4,5l-1.9,1.1c-0.2,0.1-0.4,0.3-0.7,0.4l-5.8-5.2c0.2-0.2,0.4-0.4,0.6-0.7
		c0.4-0.4,0.9-0.9,1.1-1.4c0,0,0.1-0.4,0.7-1.9c0.4-1,0.9-2.3,0.9-2.5l0.6-1.3l-1,1c-0.6,0.6-1.6,1.6-2.5,2.5l-2.4,2.4
		c-0.3-0.3-0.6-0.5-1-0.7c-0.2-0.2-0.4-0.3-0.6-0.5c0.4-0.4,0.7-0.8,0.8-1.3c0.2-0.6,0.6-1.1,1-1.7c0.1-0.2,0.3-0.4,0.4-0.6
		c0.5-0.9,1.2-2,1.8-3.1l0.8-1.5c0.5-1,0.9-2,1.3-2.9c0.3-0.7,0.5-1.3,0.8-1.9c0.2-0.5,0.4-1.1,0.5-1.6l0.1,0.2l0.9-1.9
		c0.5-1,0.1-2.3-0.4-3.2c-0.3-0.5-0.6-1.1-0.9-1.6c-0.6-1.2-1.2-2.4-2-3.3l-1.1-0.9v-0.4l0-0.1c-1.3-2.3-3.3-4-4.9-5.2l-1.4-1
		l-0.1,0.4c-0.1,0.6-0.2,1-0.2,1.2c-0.2-0.1-0.4-0.3-0.6-0.4c-0.2-0.1-0.3-0.2-0.5-0.3c-2.1-1.5-6.8-3.6-10.2-5.2
		c-1-0.4-1.9-0.8-2.6-1.2c-0.6-0.3-1.2-0.7-1.8-1.2c-0.3-0.2-0.5-0.5-0.8-0.7c-0.3-0.3-0.6-0.7-1-0.9c-0.7-0.5-1.5-0.8-2.1-1
		c-0.2-0.1-0.4-0.1-0.6-0.2c-0.4-0.1-0.8-0.1-1.1,0l-0.2,0c-2.2,0.3-4.3,1.2-5.8,2.6c-1.5,1.5-2.3,2.9-2.6,4.7l-0.2,2.7l1.9-1.9
		c0.6-0.5,1-1.3,1.3-2c0.9-1.3,2.5-3,4.5-3c0.4,0,1.1-0.2,1.4-0.5c0,0,0,0,0.1,0l0.1,0c0,0,0.1,0,0.1,0.1c0.1,0.1,0.3,0.1,0.5,0.2
		c0.2,0.1,0.3,0.1,0.4,0.1c0.1,0,0.1,0,0.2,0c0.3,0.1,0.6,0.2,0.8,0.3c0.3,0.2,0.5,0.4,0.7,0.7c0,0,0,0,0,0c-0.2,0-0.5-0.1-0.7-0.2
		c-0.9-0.2-1.8-0.4-2.7,0l-0.9,0.4l0.5,0.9c0.4,0.7,1.3,1,2,1c0.3,0,0.5,0,0.7,0c0.4,0,0.7-0.1,0.9,0.1l0.2,0.2l0.2,0
		c1.1,0.2,2.3,0.7,3.4,1.2c0,0,0.1,0,0.1,0.1c-0.1,0-0.2,0-0.3,0.1l-0.9,0.2l0.8,0.3c0.6,0.2,1.2,0.5,1.9,0.9c0.9,0.5,1.9,1,3,1.2
		c0.3,0.1,0.5,0.2,0.8,0.3c0.5,0.2,0.9,0.4,1.5,0.5c1,0.1,1.9,0.6,2.8,1.1c-0.1,0-0.2,0.1-0.2,0.1l-0.3,0.1l0.7,0.9c0,0,0,0,0,0.1
		c0.1,0.1,0.1,0.2,0.4,0.3c0.1,0,0.2,0.1,0.2,0.1l0.1,0l0,0c1.2-0.1,2.1,0.2,2.9,1l0.9,0.7c0.5,0.4,1,0.9,1.4,1.2
		c0.2,0.2,0.5,0.4,0.7,0.5c0.3,0.2,0.6,0.4,0.8,0.6c0,0,0.1,0.1,0.2,0.2c0.1,0.2,0.3,0.4,0.4,0.5c1.4,1.5,2.5,2.8,3.1,4.5
		c0,0.4,0,0.8,0,1.2c0,1.5,0.1,2.9-0.5,4.3c-0.3-0.1-0.5-0.2-0.8-0.3l-0.2-0.1c-1-0.5-2.4-1.1-3.8-0.6l-3.2,1l1.5,0.3
		c2,0.4,4.1,0.8,5.8,1.9l-0.1,0.3c0,0.1,0,0.1-0.1,0.2L153,148c-0.1,0.4-0.3,0.7-0.6,1c-0.1,0.2-0.2,0.3-0.4,0.5
		c-1.5,3.2-3.8,5.9-6,8.5c-0.8,1-1.7,2-2.5,3c-0.4,0.9-1.2,1.5-2.3,2l-0.2,0.1l0,1l-0.5,0.5c-1.2,1.2-2.6,2.6-3.8,3.8l-2.2,0.7
		l-0.1,0c-0.2,0-0.6,0-0.8,0.3l-0.2,0.1c-0.5,0.5-1,1-1.6,1.5c-0.9,0.8-1.8,1.7-2.6,2.4c-0.5,0.4-0.9,0.7-1.3,0.8l-0.5-0.3
		c-0.4-0.2-0.8-0.5-0.9-0.5c-0.2-0.1-0.5-0.2-0.7-0.2c-0.1,0-0.2,0-0.3-0.1l-1.3-0.3l-0.3-0.3l0,0.2l-0.6-0.2l0.6,0.7
		c0.2,0.2,0.5,0.5,0.8,0.8l-1.1-0.9l-0.1,1.2c0,0.4,0.1,0.7,0.3,1.1l-0.6-0.6l-2,0l0,0.6c0,0.1,0,0.1,0,0.2l-0.5-0.4l0.4,1.5
		c0.2,0.7,0.6,1.2,1.1,1.6l0,0.4c0,0.1,0,0.3,0,0.5c0,0.2,0.2,0.3,0.3,0.3l0.2,0.1c0.2,0.1,0.4,0.2,0.5,0.3c0.1,0.1,0.2,0.1,0.3,0.2
		c0.2,0.1,0.4,0.2,0.7,0.3c-0.4,0.5-0.7,1.1-0.9,1.7c-0.1,0.1-0.1,0.3-0.2,0.4c0,0.1-0.1,0.1-0.1,0.2l0,0.1
		c-0.6,0.8-1.2,1.6-1.7,2.3l-0.1,0.1c-0.1,0.1-0.1,0.1-0.2,0.2c-0.2,0.2-0.5,0.4-0.7,0.6l-0.2,0.2c-1.1,0.7-3.2,1.6-4.8-0.7
		c-0.4-0.4-0.7-1-0.3-1.6l0-0.1c0,0,0.1-0.2,0.1-0.3c0-0.1,0-0.3,0-0.3c0-0.9,0.1-1.9,0.3-2.6c0.1-0.4,0.4-1,0.6-1.6
		c0.3-0.7,0.5-1.4,0.7-1.9c0.7-1.4,0.7-2.9,0.6-4.4c0-0.5,0-0.9,0-1.4l0-0.2l-0.5-0.5c1.1-0.3,2.1-0.9,3-1.9
		c2.8-1.2,5.3-3.3,7.7-6.2c0.7-1,1.7-1.8,2.6-2.6c0.8-0.7,1.7-1.4,2.4-2.3c0.1-0.1,0.2-0.2,0.3-0.3c0.3-0.3,0.5-0.6,0.7-1l0.4-0.1
		L134,156C134.2,156,134.4,156,134.5,155.8z"/>
</g>
</svg>
