<?xml version="1.0" encoding="utf-8"?>
<!-- Generator: Adobe Illustrator 26.2.1, SVG Export Plug-In . SVG Version: 6.00 Build 0)  -->
<svg version="1.1" id="Layer_1" xmlns="http://www.w3.org/2000/svg" xmlns:xlink="http://www.w3.org/1999/xlink" x="0px" y="0px"
	 viewBox="0 0 300 300" style="enable-background:new 0 0 300 300;" xml:space="preserve">
<style type="text/css">
	.st0{fill:#020202;}
	.st1{fill:#CDCDCD;}
	.st2{fill:#DADADA;}
	.st3{fill:#D8D8D8;}
	.st4{fill:#E7E7E7;}
	.st5{fill:#F3F3F3;}
	.st6{fill:#080808;}
	.st7{fill:#0C0C0C;}
	.st8{fill:#0B0B0B;}
	.st9{fill:#0A0A0A;}
	.st10{fill:#111111;}
	.st11{fill:#0F0F0F;}
	.st12{fill:#121212;}
</style>
<path class="st0" d="M99.1,222.3c-6-5.5-12.6-10.4-17.6-16.7c-3.6-4.5-5.2-10.6-7.6-16.1c-8.6-19.8-9.6-40.5-6.4-61.5
	c0.7-4.6,0.5-9.4,1.7-13.8c1.6-6.2,3.2-12.7,6.5-18c9.1-14.5,21.4-26.2,35.8-35.6c13.3-8.7,27.4-8.9,40.9-1.8
	c8.1,4.3,16.9,6.7,24.8,11c10.2,5.7,19.3,12.5,25.7,22.9c10.4,16.8,16.4,34.9,19.3,54.3c0.1,0.8,0.6,1.5,0.9,2.3
	c0.3,1.7,0.5,3.4,0.8,5.1c0.2,1.5,0.2,3,0.5,4.4c2.6,11,1.9,21.6-1.7,32.3c-3.2,9.6-9.7,16.9-15.4,24.8
	c-5.6,7.7-12.9,12.7-21.5,16.3c-10.6,4.4-21.9,5.5-33.1,5.9c-16.8,0.6-31.4-7.2-46.5-12.8C103.7,224.4,101.4,223.4,99.1,222.3z
	 M70.2,150.3c0.9,6.8,1.1,14.2,3,21.1c2.7,9.8,5.3,20.2,10.6,28.7c4.5,7.3,12,13.3,19.3,18.1c6.6,4.3,15,5.9,22.3,9.3
	c12,5.5,24.3,6.6,37.4,5.2c17.7-1.9,32.3-8,43.4-22.8c9.6-12.8,16.5-26.2,14.7-42.6c-1-9.1-2.5-18.1-4.5-27
	c-2-8.5-4.7-16.9-7.6-25.1c-6.6-19.2-18.3-34.1-37.1-42.6c-4.5-2-9.6-2.7-13.8-5.2c-7.7-4.6-15.2-8.6-24.5-8.2
	c-8.9,0.3-15.8,5.9-23.9,8.1c-0.2,0-0.3,0.2-0.4,0.3C99.9,76.9,90.2,86,81.4,96c-3.5,4.1-6.2,9.8-7,15.1
	C72.3,123.9,71.6,136.8,70.2,150.3z"/>
<path class="st1" d="M106,225.5c15.2,5.6,29.8,13.4,46.5,12.8c11.3-0.4,22.5-1.5,33.1-5.9c8.6-3.6,15.9-8.5,21.5-16.3
	c5.7-7.9,12.2-15.2,15.4-24.8c3.6-10.8,4.3-21.4,1.7-32.3c-0.3-1.4-0.4-3-0.5-4.4c1.8,0.3,3.5,0.6,5.3,0.9c1,3.3,2,6.7,2.9,10
	c0,3.3,0,6.7,0.1,10c-0.3,2.7-0.7,5.3-1,8c-1.1,1.6-2.6,3.1-3.1,4.8c-0.9,3.6-1.3,7.4-1.9,11.2c0,0,0,0,0,0
	c-6.2,8.4-10,18.6-19.1,24.9c-1.5,1-2,3.3-3,5c-9.5,7.6-19.9,13.8-31.5,16.9c-8.2,2.2-17,2.7-25.6,0.2c-4.1-1.2-8.3-1.7-12.5-2.5
	c-4.2-0.8-8.3-1.7-12.5-2.5c-3.9-2.5-7.7-5.1-11.6-7.3C106.9,232.1,104.3,230,106,225.5z"/>
<path class="st2" d="M106,225.5c-1.7,4.5,0.9,6.6,4.4,8.6c4,2.3,7.8,4.9,11.6,7.3c-7.5-3.7-15.2-7.2-22.3-11.5
	c-1.3-0.8-0.5-5.1-0.6-7.7C101.4,223.4,103.7,224.4,106,225.5z"/>
<path class="st3" d="M204,229.3c1-1.7,1.5-4,3-5c9-6.3,12.9-16.5,19.1-24.9c0.8,6.8-3.9,11.1-7.5,15.6
	C214.3,220.2,208.9,224.6,204,229.3z"/>
<path class="st3" d="M226,199.4c0.6-3.7,1-7.5,1.9-11.2c0.5-1.8,2-3.2,3.1-4.8c0.3,0.2,0.8,0.5,0.8,0.5
	C229.7,189,231.9,195.7,226,199.4z"/>
<path class="st4" d="M229,155.4c-1.8-0.3-3.5-0.6-5.3-0.9c-0.3-1.7-0.5-3.4-0.8-5.1C228.7,149.2,230,150.5,229,155.4z"/>
<path class="st2" d="M232,175.4c0-3.3,0-6.7-0.1-10C234.9,168.7,235.3,172,232,175.4z"/>
<path class="st5" d="M70.2,150.3c1.3-13.5,2.1-26.5,4.2-39.2c0.9-5.3,3.5-11.1,7-15.1c8.7-10,18.4-19.1,27.7-28.5
	c0.1-0.1,0.3-0.2,0.4-0.3c8.1-2.2,15-7.8,23.9-8.1c9.3-0.3,16.9,3.7,24.5,8.2c4.1,2.5,9.3,3.2,13.8,5.2
	c18.8,8.6,30.5,23.4,37.1,42.6c2.8,8.3,5.6,16.6,7.6,25.1c2.1,8.9,3.5,17.9,4.5,27c1.8,16.4-5.1,29.8-14.7,42.6
	c-11,14.8-25.7,20.9-43.4,22.8c-13.1,1.4-25.4,0.4-37.4-5.2c-7.3-3.4-15.7-4.9-22.3-9.3c-7.3-4.8-14.8-10.8-19.3-18.1
	c-5.3-8.5-7.9-18.9-10.6-28.7C71.3,164.5,71.1,157.1,70.2,150.3z M125,142.3c1.8-2.5,4-4.2,3.7-5.3c-0.4-1.6-2.5-2.8-3.9-4.1
	c-1.3,1.4-3.3,2.7-3.6,4.3C121,138.4,123.1,139.9,125,142.3z M115.8,158.8c-1.8,2.5-3.8,4.2-3.6,5.4c0.3,1.6,2.4,2.8,3.7,4.1
	c1.2-1.3,3.3-2.6,3.4-4C119.5,163,117.6,161.4,115.8,158.8z M190.5,198.7c-1.7,2.9-3.3,4.4-3.3,5.8c0.1,1.2,2.1,3.1,3.3,3.1
	c1.2,0,3.3-2,3.3-3.1C193.8,203,192.2,201.5,190.5,198.7z M167.2,203.1c1.5-2.4,3.1-3.9,2.9-5c-0.2-1.3-2.1-2.4-3.2-3.5
	c-1.2,1.3-3.1,2.5-3.4,4C163.3,199.5,165.4,200.9,167.2,203.1z M202.4,167.5c-2.4-1.5-3.8-3.2-5.1-3c-1.2,0.1-3.2,2.2-3.1,3.2
	c0.1,1.2,2,3.2,3.3,3.2C198.7,171.1,200.1,169.3,202.4,167.5z M159.4,150.9c-2.4-1.3-3.9-2.6-5.2-2.5c-1.1,0.1-2,2-3,3.2
	c1.3,1,2.5,2.6,3.8,2.8C156,154.4,157.3,152.7,159.4,150.9z M158.4,169.6c-1.7,2.3-3.5,3.6-3.4,4.8c0.1,1.3,1.9,2.5,2.9,3.7
	c1.2-1.1,3.2-2,3.5-3.3C161.7,173.6,160,172.1,158.4,169.6z M108.6,133.3c0.9-1.7,2.1-3.4,1.9-3.6c-1.4-1.3-3.1-2.5-4.8-3.3
	c-0.5-0.2-1.7,1.3-2.6,2.1C104.7,130,106.3,131.4,108.6,133.3z M129.5,189.9c0.9-0.2,1.9-0.4,2.8-0.6c-0.2-1.9-0.5-3.8-0.7-5.7
	c-1.5,0.2-3,0.4-4.5,0.6C128,186.1,128.8,188,129.5,189.9z"/>
<path class="st6" d="M125,142.3c-1.8-2.4-3.9-4-3.7-5.1c0.3-1.6,2.3-2.9,3.6-4.3c1.4,1.4,3.5,2.5,3.9,4.1
	C128.9,138.2,126.8,139.9,125,142.3z"/>
<path class="st7" d="M115.8,158.8c1.8,2.6,3.7,4.1,3.5,5.5c-0.1,1.4-2.2,2.7-3.4,4c-1.3-1.4-3.4-2.6-3.7-4.1
	C112,163,114,161.4,115.8,158.8z"/>
<path class="st6" d="M190.5,198.7c1.8,2.9,3.4,4.4,3.3,5.8c0,1.2-2.1,3.1-3.3,3.1c-1.2,0-3.2-2-3.3-3.1
	C187.1,203,188.7,201.5,190.5,198.7z"/>
<path class="st8" d="M167.2,203.1c-1.9-2.2-3.9-3.7-3.7-4.6c0.3-1.5,2.2-2.7,3.4-4c1.2,1.2,3,2.2,3.2,3.5
	C170.3,199.2,168.7,200.7,167.2,203.1z"/>
<path class="st9" d="M202.4,167.5c-2.3,1.7-3.7,3.6-4.9,3.5c-1.2-0.1-3.2-2-3.3-3.2c-0.1-1.1,1.9-3.1,3.1-3.2
	C198.6,164.4,200,166,202.4,167.5z"/>
<path class="st10" d="M159.4,150.9c-2.1,1.8-3.4,3.6-4.4,3.4c-1.4-0.2-2.6-1.8-3.8-2.8c1-1.1,1.9-3,3-3.2
	C155.5,148.2,157,149.6,159.4,150.9z"/>
<path class="st11" d="M158.4,169.6c1.6,2.5,3.3,4,3,5.1c-0.3,1.3-2.2,2.2-3.5,3.3c-1-1.2-2.8-2.4-2.9-3.7
	C155,173.2,156.7,171.9,158.4,169.6z"/>
<path class="st12" d="M108.6,133.3c-2.2-2-3.9-3.4-5.5-4.8c0.9-0.7,2.1-2.3,2.6-2.1c1.8,0.8,3.4,2,4.8,3.3
	C110.7,129.9,109.5,131.6,108.6,133.3z"/>
<path class="st6" d="M129.5,189.9c-0.8-1.9-1.6-3.8-2.3-5.7c1.5-0.2,3-0.4,4.5-0.6c0.2,1.9,0.5,3.8,0.7,5.7
	C131.4,189.5,130.5,189.7,129.5,189.9z"/>
<g>
</g>
<g>
</g>
<g>
</g>
<g>
</g>
<g>
</g>
<g>
</g>
</svg>
